<?xml version="1.0" encoding="UTF-8" standalone="no"?>
<!DOCTYPE svg PUBLIC "-//W3C//DTD SVG 1.1//EN"
 "http://www.w3.org/Graphics/SVG/1.1/DTD/svg11.dtd">
<!-- Generated by graphviz version 12.1.2 (20240928.0832)
 -->
<!-- Title: TBL_CommercialCondition Pages: 1 -->
<svg width="618pt" height="602pt"
 viewBox="0.00 0.00 618.49 602.00" xmlns="http://www.w3.org/2000/svg" xmlns:xlink="http://www.w3.org/1999/xlink">
<g id="graph0" class="graph" transform="scale(1 1) rotate(0) translate(4 598)">
<title>TBL_CommercialCondition</title>
<polygon fill="white" stroke="none" points="-4,4 -4,-598 614.49,-598 614.49,4 -4,4"/>
<!-- TBL_CommercialCondition -->
<g id="node1" class="node">
<title>TBL_CommercialCondition</title>
<polygon fill="#efefef" stroke="none" points="131.68,-261.8 131.68,-297.4 478.81,-297.4 478.81,-261.8 131.68,-261.8"/>
<polygon fill="none" stroke="black" points="131.68,-261.8 131.68,-297.4 478.81,-297.4 478.81,-261.8 131.68,-261.8"/>
<text text-anchor="start" x="138.68" y="-275.2" font-family="Arial Bold" font-size="18.00">TBL_CommercialCondition</text>
<text text-anchor="start" x="342.66" y="-275.2" font-family="Arial" font-size="14.00">    </text>
<text text-anchor="start" x="373.77" y="-275.2" font-family="Arial" font-size="14.00" fill="#666666">[BASIC TABLE]</text>
<polygon fill="none" stroke="black" points="131.68,-231 131.68,-261.8 478.81,-261.8 478.81,-231 131.68,-231"/>
<text text-anchor="start" x="138.68" y="-243.2" font-family="Arial" font-size="14.00">SCode </text>
<text text-anchor="start" x="185.38" y="-243.2" font-family="Arial" font-size="14.00" fill="#666666">[varchar(20)]</text>
<polygon fill="none" stroke="black" points="131.68,-200.2 131.68,-231 478.81,-231 478.81,-200.2 131.68,-200.2"/>
<text text-anchor="start" x="138.68" y="-212.4" font-family="Arial" font-size="14.00">SDescription </text>
<text text-anchor="start" x="221.93" y="-212.4" font-family="Arial" font-size="14.00" fill="#666666">[varchar(300)]</text>
<polygon fill="none" stroke="black" points="131.68,-169.4 131.68,-200.2 478.81,-200.2 478.81,-169.4 131.68,-169.4"/>
<text text-anchor="start" x="138.68" y="-181.6" font-family="Arial" font-size="14.00">DCreationDate </text>
<text text-anchor="start" x="235.17" y="-181.6" font-family="Arial" font-size="14.00" fill="#666666">[datetime]</text>
<polygon fill="none" stroke="black" points="131.68,-138.6 131.68,-169.4 478.81,-169.4 478.81,-138.6 131.68,-138.6"/>
<text text-anchor="start" x="138.68" y="-150.8" font-family="Arial" font-size="14.00">SCreationUser </text>
<text text-anchor="start" x="234.38" y="-150.8" font-family="Arial" font-size="14.00" fill="#666666">[varchar(300)]</text>
<polygon fill="none" stroke="black" points="131.68,-107.8 131.68,-138.6 478.81,-138.6 478.81,-107.8 131.68,-107.8"/>
<text text-anchor="start" x="138.68" y="-120" font-family="Arial" font-size="14.00">DModificationDate </text>
<text text-anchor="start" x="256.95" y="-120" font-family="Arial" font-size="14.00" fill="#666666">[datetime]</text>
<polygon fill="none" stroke="black" points="131.68,-77 131.68,-107.8 478.81,-107.8 478.81,-77 131.68,-77"/>
<text text-anchor="start" x="138.68" y="-89.2" font-family="Arial" font-size="14.00">SModificationUser </text>
<text text-anchor="start" x="256.17" y="-89.2" font-family="Arial" font-size="14.00" fill="#666666">[varchar(300)]</text>
<polygon fill="none" stroke="black" points="131.68,-46.2 131.68,-77 478.81,-77 478.81,-46.2 131.68,-46.2"/>
<text text-anchor="start" x="138.68" y="-58.4" font-family="Arial" font-size="14.00">BDeleted </text>
<text text-anchor="start" x="200.16" y="-58.4" font-family="Arial" font-size="14.00" fill="#666666">[bit]</text>
<polygon fill="none" stroke="black" stroke-width="3" points="130.18,-44.7 130.18,-298.9 480.31,-298.9 480.31,-44.7 130.18,-44.7"/>
</g>
<!-- TBL_MacrosegmentTypologyCommercialCondition -->
<g id="node2" class="node">
<title>TBL_MacrosegmentTypologyCommercialCondition</title>
<polygon fill="#efefef" stroke="none" points="43.2,-515.2 43.2,-550.8 567.29,-550.8 567.29,-515.2 43.2,-515.2"/>
<polygon fill="none" stroke="black" points="43.2,-515.2 43.2,-550.8 567.29,-550.8 567.29,-515.2 43.2,-515.2"/>
<text text-anchor="start" x="50.2" y="-528.6" font-family="Arial Bold" font-size="18.00">TBL_MacrosegmentTypologyCommercialCondition</text>
<text text-anchor="start" x="431.14" y="-528.6" font-family="Arial" font-size="14.00">    </text>
<text text-anchor="start" x="462.25" y="-528.6" font-family="Arial" font-size="14.00" fill="#666666">[BASIC TABLE]</text>
<polygon fill="none" stroke="black" points="43.2,-484.4 43.2,-515.2 567.29,-515.2 567.29,-484.4 43.2,-484.4"/>
<text text-anchor="start" x="50.2" y="-496.6" font-family="Arial" font-size="14.00">SMacrosegmentCode </text>
<text text-anchor="start" x="189.49" y="-496.6" font-family="Arial" font-size="14.00" fill="#666666">[varchar(3)]</text>
<polygon fill="none" stroke="black" points="43.2,-453.6 43.2,-484.4 567.29,-484.4 567.29,-453.6 43.2,-453.6"/>
<text text-anchor="start" x="50.2" y="-465.8" font-family="Arial" font-size="14.00">STypologyCode </text>
<text text-anchor="start" x="153.7" y="-465.8" font-family="Arial" font-size="14.00" fill="#666666">[varchar(3)]</text>
<polygon fill="none" stroke="black" points="43.2,-422.8 43.2,-453.6 567.29,-453.6 567.29,-422.8 43.2,-422.8"/>
<text text-anchor="start" x="50.2" y="-435" font-family="Arial" font-size="14.00">SCommercialConditionCode </text>
<text text-anchor="start" x="230.72" y="-435" font-family="Arial" font-size="14.00" fill="#666666">[varchar(20)]</text>
</g>
<!-- TBL_MacrosegmentTypologyCommercialCondition&#45;&gt;TBL_CommercialCondition -->
<g id="edge1" class="edge">
<title>TBL_MacrosegmentTypologyCommercialCondition:SCommercialConditionCode&#45;&gt;TBL_CommercialCondition:SCode</title>
<path fill="none" stroke="black" d="M305.93,-411.77C316.03,-343.56 434.51,-411.38 478.81,-343.6 502.44,-307.44 523.01,-246.4 479.81,-246.4"/>
<polygon fill="black" stroke="black" points="305.95,-411.49 300.78,-421.16 305.59,-416.81 305.29,-421.13 305.29,-421.13 305.29,-421.13 305.59,-416.81 309.76,-421.77 305.95,-411.49"/>
</g>
</g>
</svg>
