<?xml version="1.0" encoding="UTF-8" standalone="no"?>
<!DOCTYPE svg PUBLIC "-//W3C//DTD SVG 1.1//EN"
 "http://www.w3.org/Graphics/SVG/1.1/DTD/svg11.dtd">
<!-- Generated by graphviz version 12.1.2 (20240928.0832)
 -->
<!-- Title: TBL_Limit Pages: 1 -->
<svg width="327pt" height="506pt"
 viewBox="0.00 0.00 326.55 505.60" xmlns="http://www.w3.org/2000/svg" xmlns:xlink="http://www.w3.org/1999/xlink">
<g id="graph0" class="graph" transform="scale(1 1) rotate(0) translate(4 501.6)">
<title>TBL_Limit</title>
<polygon fill="white" stroke="none" points="-4,4 -4,-501.6 322.55,-501.6 322.55,4 -4,4"/>
<!-- TBL_Limit -->
<g id="node1" class="node">
<title>TBL_Limit</title>
<polygon fill="#efefef" stroke="none" points="46.2,-415.8 46.2,-451.4 272.35,-451.4 272.35,-415.8 46.2,-415.8"/>
<polygon fill="none" stroke="black" points="46.2,-415.8 46.2,-451.4 272.35,-451.4 272.35,-415.8 46.2,-415.8"/>
<text text-anchor="start" x="53.2" y="-429.2" font-family="Arial Bold" font-size="18.00">TBL_Limit</text>
<text text-anchor="start" x="136.2" y="-429.2" font-family="Arial" font-size="14.00">    </text>
<text text-anchor="start" x="167.31" y="-429.2" font-family="Arial" font-size="14.00" fill="#666666">[BASIC TABLE]</text>
<polygon fill="none" stroke="black" points="46.2,-385 46.2,-415.8 272.35,-415.8 272.35,-385 46.2,-385"/>
<text text-anchor="start" x="53.2" y="-397.2" font-family="Arial" font-size="14.00">Id </text>
<text text-anchor="start" x="68.77" y="-397.2" font-family="Arial" font-size="14.00" fill="#666666">[int]</text>
<polygon fill="none" stroke="black" points="46.2,-354.2 46.2,-385 272.35,-385 272.35,-354.2 46.2,-354.2"/>
<text text-anchor="start" x="53.2" y="-366.4" font-family="Arial" font-size="14.00">NGroupCode </text>
<text text-anchor="start" x="139.58" y="-366.4" font-family="Arial" font-size="14.00" fill="#666666">[int]</text>
<polygon fill="none" stroke="black" points="46.2,-323.4 46.2,-354.2 272.35,-354.2 272.35,-323.4 46.2,-323.4"/>
<text text-anchor="start" x="53.2" y="-335.6" font-family="Arial" font-size="14.00">NCompanyCode </text>
<text text-anchor="start" x="160.59" y="-335.6" font-family="Arial" font-size="14.00" fill="#666666">[int]</text>
<polygon fill="none" stroke="black" points="46.2,-292.6 46.2,-323.4 272.35,-323.4 272.35,-292.6 46.2,-292.6"/>
<text text-anchor="start" x="53.2" y="-304.8" font-family="Arial" font-size="14.00">NMacroSegmentCode </text>
<text text-anchor="start" x="195.6" y="-304.8" font-family="Arial" font-size="14.00" fill="#666666">[int]</text>
<polygon fill="none" stroke="black" points="46.2,-261.8 46.2,-292.6 272.35,-292.6 272.35,-261.8 46.2,-261.8"/>
<text text-anchor="start" x="53.2" y="-274" font-family="Arial" font-size="14.00">NTypologyCode </text>
<text text-anchor="start" x="157.48" y="-274" font-family="Arial" font-size="14.00" fill="#666666">[int]</text>
<polygon fill="none" stroke="black" points="46.2,-231 46.2,-261.8 272.35,-261.8 272.35,-231 46.2,-231"/>
<text text-anchor="start" x="53.2" y="-243.2" font-family="Arial" font-size="14.00">NRegionCode </text>
<text text-anchor="start" x="145.03" y="-243.2" font-family="Arial" font-size="14.00" fill="#666666">[int]</text>
<polygon fill="none" stroke="black" points="46.2,-200.2 46.2,-231 272.35,-231 272.35,-200.2 46.2,-200.2"/>
<text text-anchor="start" x="53.2" y="-212.4" font-family="Arial" font-size="14.00">NCDICode </text>
<text text-anchor="start" x="124.78" y="-212.4" font-family="Arial" font-size="14.00" fill="#666666">[int]</text>
<polygon fill="none" stroke="black" points="46.2,-169.4 46.2,-200.2 272.35,-200.2 272.35,-169.4 46.2,-169.4"/>
<text text-anchor="start" x="53.2" y="-181.6" font-family="Arial" font-size="14.00">DCreationDate </text>
<text text-anchor="start" x="149.69" y="-181.6" font-family="Arial" font-size="14.00" fill="#666666">[datetime]</text>
<polygon fill="none" stroke="black" points="46.2,-138.6 46.2,-169.4 272.35,-169.4 272.35,-138.6 46.2,-138.6"/>
<text text-anchor="start" x="53.2" y="-150.8" font-family="Arial" font-size="14.00">SCreationUser </text>
<text text-anchor="start" x="148.9" y="-150.8" font-family="Arial" font-size="14.00" fill="#666666">[varchar(300)]</text>
<polygon fill="none" stroke="black" points="46.2,-107.8 46.2,-138.6 272.35,-138.6 272.35,-107.8 46.2,-107.8"/>
<text text-anchor="start" x="53.2" y="-120" font-family="Arial" font-size="14.00">DModificationDate </text>
<text text-anchor="start" x="171.48" y="-120" font-family="Arial" font-size="14.00" fill="#666666">[datetime]</text>
<polygon fill="none" stroke="black" points="46.2,-77 46.2,-107.8 272.35,-107.8 272.35,-77 46.2,-77"/>
<text text-anchor="start" x="53.2" y="-89.2" font-family="Arial" font-size="14.00">SModificationUser </text>
<text text-anchor="start" x="170.69" y="-89.2" font-family="Arial" font-size="14.00" fill="#666666">[varchar(300)]</text>
<polygon fill="none" stroke="black" points="46.2,-46.2 46.2,-77 272.35,-77 272.35,-46.2 46.2,-46.2"/>
<text text-anchor="start" x="53.2" y="-58.4" font-family="Arial" font-size="14.00">BDeleted </text>
<text text-anchor="start" x="114.68" y="-58.4" font-family="Arial" font-size="14.00" fill="#666666">[bit]</text>
<polygon fill="none" stroke="black" stroke-width="3" points="44.7,-44.7 44.7,-452.9 273.85,-452.9 273.85,-44.7 44.7,-44.7"/>
</g>
</g>
</svg>
