<?xml version="1.0" encoding="UTF-8" standalone="no"?>
<!DOCTYPE svg PUBLIC "-//W3C//DTD SVG 1.1//EN"
 "http://www.w3.org/Graphics/SVG/1.1/DTD/svg11.dtd">
<!-- Generated by graphviz version 12.1.2 (20240928.0832)
 -->
<!-- Title: TBL_Center Pages: 1 -->
<svg width="353pt" height="818pt"
 viewBox="0.00 0.00 353.35 817.60" xmlns="http://www.w3.org/2000/svg" xmlns:xlink="http://www.w3.org/1999/xlink">
<g id="graph0" class="graph" transform="scale(1 1) rotate(0) translate(4 813.6)">
<title>TBL_Center</title>
<polygon fill="white" stroke="none" points="-4,4 -4,-813.6 349.35,-813.6 349.35,4 -4,4"/>
<!-- TBL_Center -->
<g id="node1" class="node">
<title>TBL_Center</title>
<polygon fill="#efefef" stroke="none" points="46.2,-727.8 46.2,-763.4 280.33,-763.4 280.33,-727.8 46.2,-727.8"/>
<polygon fill="none" stroke="black" points="46.2,-727.8 46.2,-763.4 280.33,-763.4 280.33,-727.8 46.2,-727.8"/>
<text text-anchor="start" x="53.2" y="-741.2" font-family="Arial Bold" font-size="18.00">TBL_Center</text>
<text text-anchor="start" x="144.18" y="-741.2" font-family="Arial" font-size="14.00">    </text>
<text text-anchor="start" x="175.29" y="-741.2" font-family="Arial" font-size="14.00" fill="#666666">[BASIC TABLE]</text>
<polygon fill="none" stroke="black" points="46.2,-697 46.2,-727.8 280.33,-727.8 280.33,-697 46.2,-697"/>
<text text-anchor="start" x="53.2" y="-709.2" font-family="Arial" font-size="14.00">NCode </text>
<text text-anchor="start" x="100.67" y="-709.2" font-family="Arial" font-size="14.00" fill="#666666">[int]</text>
<polygon fill="none" stroke="black" points="46.2,-666.2 46.2,-697 280.33,-697 280.33,-666.2 46.2,-666.2"/>
<text text-anchor="start" x="53.2" y="-678.4" font-family="Arial" font-size="14.00">SDescription </text>
<text text-anchor="start" x="136.45" y="-678.4" font-family="Arial" font-size="14.00" fill="#666666">[varchar(300)]</text>
<polygon fill="none" stroke="black" points="46.2,-635.4 46.2,-666.2 280.33,-666.2 280.33,-635.4 46.2,-635.4"/>
<text text-anchor="start" x="53.2" y="-647.6" font-family="Arial" font-size="14.00">NRegionCode </text>
<text text-anchor="start" x="145.03" y="-647.6" font-family="Arial" font-size="14.00" fill="#666666">[int]</text>
<polygon fill="none" stroke="black" points="46.2,-604.6 46.2,-635.4 280.33,-635.4 280.33,-604.6 46.2,-604.6"/>
<text text-anchor="start" x="53.2" y="-616.8" font-family="Arial" font-size="14.00">BIsActive </text>
<text text-anchor="start" x="115.44" y="-616.8" font-family="Arial" font-size="14.00" fill="#666666">[bit]</text>
<polygon fill="none" stroke="black" points="46.2,-573.8 46.2,-604.6 280.33,-604.6 280.33,-573.8 46.2,-573.8"/>
<text text-anchor="start" x="53.2" y="-586" font-family="Arial" font-size="14.00">BDelete </text>
<text text-anchor="start" x="106.9" y="-586" font-family="Arial" font-size="14.00" fill="#666666">[bit]</text>
<polygon fill="none" stroke="black" points="46.2,-543 46.2,-573.8 280.33,-573.8 280.33,-543 46.2,-543"/>
<text text-anchor="start" x="53.2" y="-555.2" font-family="Arial" font-size="14.00">DCreationDate </text>
<text text-anchor="start" x="149.69" y="-555.2" font-family="Arial" font-size="14.00" fill="#666666">[datetime]</text>
<polygon fill="none" stroke="black" points="46.2,-512.2 46.2,-543 280.33,-543 280.33,-512.2 46.2,-512.2"/>
<text text-anchor="start" x="53.2" y="-524.4" font-family="Arial" font-size="14.00">SCreationUser </text>
<text text-anchor="start" x="148.9" y="-524.4" font-family="Arial" font-size="14.00" fill="#666666">[varchar(300)]</text>
<polygon fill="none" stroke="black" points="46.2,-481.4 46.2,-512.2 280.33,-512.2 280.33,-481.4 46.2,-481.4"/>
<text text-anchor="start" x="53.2" y="-493.6" font-family="Arial" font-size="14.00">DModificationDate </text>
<text text-anchor="start" x="171.48" y="-493.6" font-family="Arial" font-size="14.00" fill="#666666">[datetime]</text>
<polygon fill="none" stroke="black" points="46.2,-450.6 46.2,-481.4 280.33,-481.4 280.33,-450.6 46.2,-450.6"/>
<text text-anchor="start" x="53.2" y="-462.8" font-family="Arial" font-size="14.00">SModificationUser </text>
<text text-anchor="start" x="170.69" y="-462.8" font-family="Arial" font-size="14.00" fill="#666666">[varchar(300)]</text>
<polygon fill="none" stroke="black" stroke-width="3" points="44.7,-449.1 44.7,-764.9 281.83,-764.9 281.83,-449.1 44.7,-449.1"/>
</g>
<!-- TBL_Region -->
<g id="node2" class="node">
<title>TBL_Region</title>
<polygon fill="#efefef" stroke="none" points="44.19,-289.6 44.19,-325.2 282.34,-325.2 282.34,-289.6 44.19,-289.6"/>
<polygon fill="none" stroke="black" points="44.19,-289.6 44.19,-325.2 282.34,-325.2 282.34,-289.6 44.19,-289.6"/>
<text text-anchor="start" x="51.19" y="-303" font-family="Arial Bold" font-size="18.00">TBL_Region</text>
<text text-anchor="start" x="146.18" y="-303" font-family="Arial" font-size="14.00">    </text>
<text text-anchor="start" x="177.3" y="-303" font-family="Arial" font-size="14.00" fill="#666666">[BASIC TABLE]</text>
<polygon fill="none" stroke="black" points="44.19,-258.8 44.19,-289.6 282.34,-289.6 282.34,-258.8 44.19,-258.8"/>
<text text-anchor="start" x="51.19" y="-271" font-family="Arial" font-size="14.00">NCode </text>
<text text-anchor="start" x="98.66" y="-271" font-family="Arial" font-size="14.00" fill="#666666">[int]</text>
<polygon fill="none" stroke="black" points="44.19,-228 44.19,-258.8 282.34,-258.8 282.34,-228 44.19,-228"/>
<text text-anchor="start" x="51.19" y="-240.2" font-family="Arial" font-size="14.00">SDescription </text>
<text text-anchor="start" x="134.45" y="-240.2" font-family="Arial" font-size="14.00" fill="#666666">[varchar(300)]</text>
<polygon fill="none" stroke="black" points="44.19,-197.2 44.19,-228 282.34,-228 282.34,-197.2 44.19,-197.2"/>
<text text-anchor="start" x="51.19" y="-209.4" font-family="Arial" font-size="14.00">BIsActive </text>
<text text-anchor="start" x="113.43" y="-209.4" font-family="Arial" font-size="14.00" fill="#666666">[bit]</text>
<polygon fill="none" stroke="black" points="44.19,-166.4 44.19,-197.2 282.34,-197.2 282.34,-166.4 44.19,-166.4"/>
<text text-anchor="start" x="51.19" y="-178.6" font-family="Arial" font-size="14.00">BDelete </text>
<text text-anchor="start" x="104.89" y="-178.6" font-family="Arial" font-size="14.00" fill="#666666">[bit]</text>
<polygon fill="none" stroke="black" points="44.19,-135.6 44.19,-166.4 282.34,-166.4 282.34,-135.6 44.19,-135.6"/>
<text text-anchor="start" x="51.19" y="-147.8" font-family="Arial" font-size="14.00">DCreationDate </text>
<text text-anchor="start" x="147.68" y="-147.8" font-family="Arial" font-size="14.00" fill="#666666">[datetime]</text>
<polygon fill="none" stroke="black" points="44.19,-104.8 44.19,-135.6 282.34,-135.6 282.34,-104.8 44.19,-104.8"/>
<text text-anchor="start" x="51.19" y="-117" font-family="Arial" font-size="14.00">SCreationUser </text>
<text text-anchor="start" x="146.89" y="-117" font-family="Arial" font-size="14.00" fill="#666666">[varchar(300)]</text>
<polygon fill="none" stroke="black" points="44.19,-74 44.19,-104.8 282.34,-104.8 282.34,-74 44.19,-74"/>
<text text-anchor="start" x="51.19" y="-86.2" font-family="Arial" font-size="14.00">DModificationDate </text>
<text text-anchor="start" x="169.47" y="-86.2" font-family="Arial" font-size="14.00" fill="#666666">[datetime]</text>
<polygon fill="none" stroke="black" points="44.19,-43.2 44.19,-74 282.34,-74 282.34,-43.2 44.19,-43.2"/>
<text text-anchor="start" x="51.19" y="-55.4" font-family="Arial" font-size="14.00">SModificationUser </text>
<text text-anchor="start" x="168.68" y="-55.4" font-family="Arial" font-size="14.00" fill="#666666">[varchar(300)]</text>
</g>
<!-- TBL_Center&#45;&gt;TBL_Region -->
<g id="edge1" class="edge">
<title>TBL_Center:NRegionCode&#45;&gt;TBL_Region:NCode</title>
<path fill="none" stroke="black" d="M291.21,-648.95C365.04,-620.54 363.59,-274.2 283.34,-274.2"/>
<polygon fill="black" stroke="black" points="291.49,-648.9 280.83,-646.32 286.24,-649.88 281.98,-650.68 281.98,-650.68 281.98,-650.68 286.24,-649.88 282.48,-655.16 291.49,-648.9"/>
</g>
</g>
</svg>
