<?xml version="1.0" encoding="UTF-8" standalone="no"?>
<!DOCTYPE svg PUBLIC "-//W3C//DTD SVG 1.1//EN"
 "http://www.w3.org/Graphics/SVG/1.1/DTD/svg11.dtd">
<!-- Generated by graphviz version 12.1.2 (20240928.0832)
 -->
<!-- Title: TBL_Region Pages: 1 -->
<svg width="355pt" height="818pt"
 viewBox="0.00 0.00 355.35 817.60" xmlns="http://www.w3.org/2000/svg" xmlns:xlink="http://www.w3.org/1999/xlink">
<g id="graph0" class="graph" transform="scale(1 1) rotate(0) translate(4 813.6)">
<title>TBL_Region</title>
<polygon fill="white" stroke="none" points="-4,4 -4,-813.6 351.35,-813.6 351.35,4 -4,4"/>
<!-- TBL_Region -->
<g id="node1" class="node">
<title>TBL_Region</title>
<polygon fill="#efefef" stroke="none" points="46.2,-292.6 46.2,-328.2 284.34,-328.2 284.34,-292.6 46.2,-292.6"/>
<polygon fill="none" stroke="black" points="46.2,-292.6 46.2,-328.2 284.34,-328.2 284.34,-292.6 46.2,-292.6"/>
<text text-anchor="start" x="53.2" y="-306" font-family="Arial Bold" font-size="18.00">TBL_Region</text>
<text text-anchor="start" x="148.19" y="-306" font-family="Arial" font-size="14.00">    </text>
<text text-anchor="start" x="179.31" y="-306" font-family="Arial" font-size="14.00" fill="#666666">[BASIC TABLE]</text>
<polygon fill="none" stroke="black" points="46.2,-261.8 46.2,-292.6 284.34,-292.6 284.34,-261.8 46.2,-261.8"/>
<text text-anchor="start" x="53.2" y="-274" font-family="Arial" font-size="14.00">NCode </text>
<text text-anchor="start" x="100.67" y="-274" font-family="Arial" font-size="14.00" fill="#666666">[int]</text>
<polygon fill="none" stroke="black" points="46.2,-231 46.2,-261.8 284.34,-261.8 284.34,-231 46.2,-231"/>
<text text-anchor="start" x="53.2" y="-243.2" font-family="Arial" font-size="14.00">SDescription </text>
<text text-anchor="start" x="136.45" y="-243.2" font-family="Arial" font-size="14.00" fill="#666666">[varchar(300)]</text>
<polygon fill="none" stroke="black" points="46.2,-200.2 46.2,-231 284.34,-231 284.34,-200.2 46.2,-200.2"/>
<text text-anchor="start" x="53.2" y="-212.4" font-family="Arial" font-size="14.00">BIsActive </text>
<text text-anchor="start" x="115.44" y="-212.4" font-family="Arial" font-size="14.00" fill="#666666">[bit]</text>
<polygon fill="none" stroke="black" points="46.2,-169.4 46.2,-200.2 284.34,-200.2 284.34,-169.4 46.2,-169.4"/>
<text text-anchor="start" x="53.2" y="-181.6" font-family="Arial" font-size="14.00">BDelete </text>
<text text-anchor="start" x="106.9" y="-181.6" font-family="Arial" font-size="14.00" fill="#666666">[bit]</text>
<polygon fill="none" stroke="black" points="46.2,-138.6 46.2,-169.4 284.34,-169.4 284.34,-138.6 46.2,-138.6"/>
<text text-anchor="start" x="53.2" y="-150.8" font-family="Arial" font-size="14.00">DCreationDate </text>
<text text-anchor="start" x="149.69" y="-150.8" font-family="Arial" font-size="14.00" fill="#666666">[datetime]</text>
<polygon fill="none" stroke="black" points="46.2,-107.8 46.2,-138.6 284.34,-138.6 284.34,-107.8 46.2,-107.8"/>
<text text-anchor="start" x="53.2" y="-120" font-family="Arial" font-size="14.00">SCreationUser </text>
<text text-anchor="start" x="148.9" y="-120" font-family="Arial" font-size="14.00" fill="#666666">[varchar(300)]</text>
<polygon fill="none" stroke="black" points="46.2,-77 46.2,-107.8 284.34,-107.8 284.34,-77 46.2,-77"/>
<text text-anchor="start" x="53.2" y="-89.2" font-family="Arial" font-size="14.00">DModificationDate </text>
<text text-anchor="start" x="171.48" y="-89.2" font-family="Arial" font-size="14.00" fill="#666666">[datetime]</text>
<polygon fill="none" stroke="black" points="46.2,-46.2 46.2,-77 284.34,-77 284.34,-46.2 46.2,-46.2"/>
<text text-anchor="start" x="53.2" y="-58.4" font-family="Arial" font-size="14.00">SModificationUser </text>
<text text-anchor="start" x="170.69" y="-58.4" font-family="Arial" font-size="14.00" fill="#666666">[varchar(300)]</text>
<polygon fill="none" stroke="black" stroke-width="3" points="44.7,-44.7 44.7,-329.7 285.84,-329.7 285.84,-44.7 44.7,-44.7"/>
</g>
<!-- TBL_Center -->
<g id="node2" class="node">
<title>TBL_Center</title>
<polygon fill="#efefef" stroke="none" points="48.21,-730.8 48.21,-766.4 282.34,-766.4 282.34,-730.8 48.21,-730.8"/>
<polygon fill="none" stroke="black" points="48.21,-730.8 48.21,-766.4 282.34,-766.4 282.34,-730.8 48.21,-730.8"/>
<text text-anchor="start" x="55.21" y="-744.2" font-family="Arial Bold" font-size="18.00">TBL_Center</text>
<text text-anchor="start" x="146.18" y="-744.2" font-family="Arial" font-size="14.00">    </text>
<text text-anchor="start" x="177.3" y="-744.2" font-family="Arial" font-size="14.00" fill="#666666">[BASIC TABLE]</text>
<polygon fill="none" stroke="black" points="48.21,-700 48.21,-730.8 282.34,-730.8 282.34,-700 48.21,-700"/>
<text text-anchor="start" x="55.21" y="-712.2" font-family="Arial" font-size="14.00">NCode </text>
<text text-anchor="start" x="102.68" y="-712.2" font-family="Arial" font-size="14.00" fill="#666666">[int]</text>
<polygon fill="none" stroke="black" points="48.21,-669.2 48.21,-700 282.34,-700 282.34,-669.2 48.21,-669.2"/>
<text text-anchor="start" x="55.21" y="-681.4" font-family="Arial" font-size="14.00">SDescription </text>
<text text-anchor="start" x="138.46" y="-681.4" font-family="Arial" font-size="14.00" fill="#666666">[varchar(300)]</text>
<polygon fill="none" stroke="black" points="48.21,-638.4 48.21,-669.2 282.34,-669.2 282.34,-638.4 48.21,-638.4"/>
<text text-anchor="start" x="55.21" y="-650.6" font-family="Arial" font-size="14.00">NRegionCode </text>
<text text-anchor="start" x="147.04" y="-650.6" font-family="Arial" font-size="14.00" fill="#666666">[int]</text>
<polygon fill="none" stroke="black" points="48.21,-607.6 48.21,-638.4 282.34,-638.4 282.34,-607.6 48.21,-607.6"/>
<text text-anchor="start" x="55.21" y="-619.8" font-family="Arial" font-size="14.00">BIsActive </text>
<text text-anchor="start" x="117.45" y="-619.8" font-family="Arial" font-size="14.00" fill="#666666">[bit]</text>
<polygon fill="none" stroke="black" points="48.21,-576.8 48.21,-607.6 282.34,-607.6 282.34,-576.8 48.21,-576.8"/>
<text text-anchor="start" x="55.21" y="-589" font-family="Arial" font-size="14.00">BDelete </text>
<text text-anchor="start" x="108.9" y="-589" font-family="Arial" font-size="14.00" fill="#666666">[bit]</text>
<polygon fill="none" stroke="black" points="48.21,-546 48.21,-576.8 282.34,-576.8 282.34,-546 48.21,-546"/>
<text text-anchor="start" x="55.21" y="-558.2" font-family="Arial" font-size="14.00">DCreationDate </text>
<text text-anchor="start" x="151.7" y="-558.2" font-family="Arial" font-size="14.00" fill="#666666">[datetime]</text>
<polygon fill="none" stroke="black" points="48.21,-515.2 48.21,-546 282.34,-546 282.34,-515.2 48.21,-515.2"/>
<text text-anchor="start" x="55.21" y="-527.4" font-family="Arial" font-size="14.00">SCreationUser </text>
<text text-anchor="start" x="150.91" y="-527.4" font-family="Arial" font-size="14.00" fill="#666666">[varchar(300)]</text>
<polygon fill="none" stroke="black" points="48.21,-484.4 48.21,-515.2 282.34,-515.2 282.34,-484.4 48.21,-484.4"/>
<text text-anchor="start" x="55.21" y="-496.6" font-family="Arial" font-size="14.00">DModificationDate </text>
<text text-anchor="start" x="173.48" y="-496.6" font-family="Arial" font-size="14.00" fill="#666666">[datetime]</text>
<polygon fill="none" stroke="black" points="48.21,-453.6 48.21,-484.4 282.34,-484.4 282.34,-453.6 48.21,-453.6"/>
<text text-anchor="start" x="55.21" y="-465.8" font-family="Arial" font-size="14.00">SModificationUser </text>
<text text-anchor="start" x="172.7" y="-465.8" font-family="Arial" font-size="14.00" fill="#666666">[varchar(300)]</text>
</g>
<!-- TBL_Center&#45;&gt;TBL_Region -->
<g id="edge1" class="edge">
<title>TBL_Center:NRegionCode&#45;&gt;TBL_Region:NCode</title>
<path fill="none" stroke="black" d="M293.22,-651.95C367.05,-623.54 365.6,-277.2 285.34,-277.2"/>
<polygon fill="black" stroke="black" points="293.49,-651.9 282.84,-649.32 288.25,-652.88 283.99,-653.68 283.99,-653.68 283.99,-653.68 288.25,-652.88 284.49,-658.16 293.49,-651.9"/>
</g>
</g>
</svg>
