<?xml version="1.0" encoding="UTF-8" standalone="no"?>
<!DOCTYPE svg PUBLIC "-//W3C//DTD SVG 1.1//EN"
 "http://www.w3.org/Graphics/SVG/1.1/DTD/svg11.dtd">
<!-- Generated by graphviz version 12.1.2 (20240928.0832)
 -->
<!-- Title: TBL_Hierarchy Pages: 1 -->
<svg width="800pt" height="910pt"
 viewBox="0.00 0.00 799.99 910.00" xmlns="http://www.w3.org/2000/svg" xmlns:xlink="http://www.w3.org/1999/xlink">
<g id="graph0" class="graph" transform="scale(1 1) rotate(0) translate(4 906)">
<title>TBL_Hierarchy</title>
<polygon fill="white" stroke="none" points="-4,4 -4,-906 795.99,-906 795.99,4 -4,4"/>
<!-- TBL_Hierarchy -->
<g id="node1" class="node">
<title>TBL_Hierarchy</title>
<polygon fill="#efefef" stroke="none" points="268.2,-261.8 268.2,-297.4 526.3,-297.4 526.3,-261.8 268.2,-261.8"/>
<polygon fill="none" stroke="black" points="268.2,-261.8 268.2,-297.4 526.3,-297.4 526.3,-261.8 268.2,-261.8"/>
<text text-anchor="start" x="275.2" y="-275.2" font-family="Arial Bold" font-size="18.00">TBL_Hierarchy</text>
<text text-anchor="start" x="390.15" y="-275.2" font-family="Arial" font-size="14.00">    </text>
<text text-anchor="start" x="421.27" y="-275.2" font-family="Arial" font-size="14.00" fill="#666666">[BASIC TABLE]</text>
<polygon fill="none" stroke="black" points="268.2,-231 268.2,-261.8 526.3,-261.8 526.3,-231 268.2,-231"/>
<text text-anchor="start" x="275.2" y="-243.2" font-family="Arial" font-size="14.00">Id </text>
<text text-anchor="start" x="290.76" y="-243.2" font-family="Arial" font-size="14.00" fill="#666666">[int]</text>
<polygon fill="none" stroke="black" points="268.2,-200.2 268.2,-231 526.3,-231 526.3,-200.2 268.2,-200.2"/>
<text text-anchor="start" x="275.2" y="-212.4" font-family="Arial" font-size="14.00">SName </text>
<text text-anchor="start" x="325.77" y="-212.4" font-family="Arial" font-size="14.00" fill="#666666">[varchar(200)]</text>
<polygon fill="none" stroke="black" points="268.2,-169.4 268.2,-200.2 526.3,-200.2 526.3,-169.4 268.2,-169.4"/>
<text text-anchor="start" x="275.2" y="-181.6" font-family="Arial" font-size="14.00">DCreationDate </text>
<text text-anchor="start" x="371.69" y="-181.6" font-family="Arial" font-size="14.00" fill="#666666">[datetime]</text>
<polygon fill="none" stroke="black" points="268.2,-138.6 268.2,-169.4 526.3,-169.4 526.3,-138.6 268.2,-138.6"/>
<text text-anchor="start" x="275.2" y="-150.8" font-family="Arial" font-size="14.00">SCreationUser </text>
<text text-anchor="start" x="370.9" y="-150.8" font-family="Arial" font-size="14.00" fill="#666666">[varchar(300)]</text>
<polygon fill="none" stroke="black" points="268.2,-107.8 268.2,-138.6 526.3,-138.6 526.3,-107.8 268.2,-107.8"/>
<text text-anchor="start" x="275.2" y="-120" font-family="Arial" font-size="14.00">DModificationDate </text>
<text text-anchor="start" x="393.47" y="-120" font-family="Arial" font-size="14.00" fill="#666666">[datetime]</text>
<polygon fill="none" stroke="black" points="268.2,-77 268.2,-107.8 526.3,-107.8 526.3,-77 268.2,-77"/>
<text text-anchor="start" x="275.2" y="-89.2" font-family="Arial" font-size="14.00">SModificationUser </text>
<text text-anchor="start" x="392.69" y="-89.2" font-family="Arial" font-size="14.00" fill="#666666">[varchar(300)]</text>
<polygon fill="none" stroke="black" points="268.2,-46.2 268.2,-77 526.3,-77 526.3,-46.2 268.2,-46.2"/>
<text text-anchor="start" x="275.2" y="-58.4" font-family="Arial" font-size="14.00">BDeleted </text>
<text text-anchor="start" x="336.68" y="-58.4" font-family="Arial" font-size="14.00" fill="#666666">[bit]</text>
<polygon fill="none" stroke="black" stroke-width="3" points="266.7,-44.7 266.7,-298.9 527.8,-298.9 527.8,-44.7 266.7,-44.7"/>
</g>
<!-- TBL_HierarchyGroup -->
<g id="node2" class="node">
<title>TBL_HierarchyGroup</title>
<polygon fill="#efefef" stroke="none" points="43.2,-823.2 43.2,-858.8 347.3,-858.8 347.3,-823.2 43.2,-823.2"/>
<polygon fill="none" stroke="black" points="43.2,-823.2 43.2,-858.8 347.3,-858.8 347.3,-823.2 43.2,-823.2"/>
<text text-anchor="start" x="50.2" y="-836.6" font-family="Arial Bold" font-size="18.00">TBL_HierarchyGroup</text>
<text text-anchor="start" x="211.15" y="-836.6" font-family="Arial" font-size="14.00">    </text>
<text text-anchor="start" x="242.26" y="-836.6" font-family="Arial" font-size="14.00" fill="#666666">[BASIC TABLE]</text>
<polygon fill="none" stroke="black" points="43.2,-792.4 43.2,-823.2 347.3,-823.2 347.3,-792.4 43.2,-792.4"/>
<text text-anchor="start" x="50.2" y="-804.6" font-family="Arial" font-size="14.00">Id </text>
<text text-anchor="start" x="65.77" y="-804.6" font-family="Arial" font-size="14.00" fill="#666666">[int]</text>
<polygon fill="none" stroke="black" points="43.2,-761.6 43.2,-792.4 347.3,-792.4 347.3,-761.6 43.2,-761.6"/>
<text text-anchor="start" x="50.2" y="-773.8" font-family="Arial" font-size="14.00">NHierarchyCode </text>
<text text-anchor="start" x="157.57" y="-773.8" font-family="Arial" font-size="14.00" fill="#666666">[int]</text>
<polygon fill="none" stroke="black" points="43.2,-730.8 43.2,-761.6 347.3,-761.6 347.3,-730.8 43.2,-730.8"/>
<text text-anchor="start" x="50.2" y="-743" font-family="Arial" font-size="14.00">SSectorCode </text>
<text text-anchor="start" x="137.36" y="-743" font-family="Arial" font-size="14.00" fill="#666666">[varchar(2)]</text>
<polygon fill="none" stroke="black" points="43.2,-700 43.2,-730.8 347.3,-730.8 347.3,-700 43.2,-700"/>
<text text-anchor="start" x="50.2" y="-712.2" font-family="Arial" font-size="14.00">NTypeCommercialActivityDomainCode </text>
<text text-anchor="start" x="296.05" y="-712.2" font-family="Arial" font-size="14.00" fill="#666666">[int]</text>
<polygon fill="none" stroke="black" points="43.2,-669.2 43.2,-700 347.3,-700 347.3,-669.2 43.2,-669.2"/>
<text text-anchor="start" x="50.2" y="-681.4" font-family="Arial" font-size="14.00">SChannelCode </text>
<text text-anchor="start" x="149.05" y="-681.4" font-family="Arial" font-size="14.00" fill="#666666">[varchar(4)]</text>
<polygon fill="none" stroke="black" points="43.2,-638.4 43.2,-669.2 347.3,-669.2 347.3,-638.4 43.2,-638.4"/>
<text text-anchor="start" x="50.2" y="-650.6" font-family="Arial" font-size="14.00">SMacrosegmentCode </text>
<text text-anchor="start" x="189.49" y="-650.6" font-family="Arial" font-size="14.00" fill="#666666">[varchar(3)]</text>
<polygon fill="none" stroke="black" points="43.2,-607.6 43.2,-638.4 347.3,-638.4 347.3,-607.6 43.2,-607.6"/>
<text text-anchor="start" x="50.2" y="-619.8" font-family="Arial" font-size="14.00">STypologyCode </text>
<text text-anchor="start" x="153.7" y="-619.8" font-family="Arial" font-size="14.00" fill="#666666">[varchar(3)]</text>
<polygon fill="none" stroke="black" points="43.2,-576.8 43.2,-607.6 347.3,-607.6 347.3,-576.8 43.2,-576.8"/>
<text text-anchor="start" x="50.2" y="-589" font-family="Arial" font-size="14.00">DCreationDate </text>
<text text-anchor="start" x="146.69" y="-589" font-family="Arial" font-size="14.00" fill="#666666">[datetime]</text>
<polygon fill="none" stroke="black" points="43.2,-546 43.2,-576.8 347.3,-576.8 347.3,-546 43.2,-546"/>
<text text-anchor="start" x="50.2" y="-558.2" font-family="Arial" font-size="14.00">SCreationUser </text>
<text text-anchor="start" x="145.9" y="-558.2" font-family="Arial" font-size="14.00" fill="#666666">[varchar(300)]</text>
<polygon fill="none" stroke="black" points="43.2,-515.2 43.2,-546 347.3,-546 347.3,-515.2 43.2,-515.2"/>
<text text-anchor="start" x="50.2" y="-527.4" font-family="Arial" font-size="14.00">DModificationDate </text>
<text text-anchor="start" x="168.48" y="-527.4" font-family="Arial" font-size="14.00" fill="#666666">[datetime]</text>
<polygon fill="none" stroke="black" points="43.2,-484.4 43.2,-515.2 347.3,-515.2 347.3,-484.4 43.2,-484.4"/>
<text text-anchor="start" x="50.2" y="-496.6" font-family="Arial" font-size="14.00">SModificationUser </text>
<text text-anchor="start" x="167.69" y="-496.6" font-family="Arial" font-size="14.00" fill="#666666">[varchar(300)]</text>
<polygon fill="none" stroke="black" points="43.2,-453.6 43.2,-484.4 347.3,-484.4 347.3,-453.6 43.2,-453.6"/>
<text text-anchor="start" x="50.2" y="-465.8" font-family="Arial" font-size="14.00">BDeleted </text>
<text text-anchor="start" x="111.68" y="-465.8" font-family="Arial" font-size="14.00" fill="#666666">[bit]</text>
<polygon fill="none" stroke="black" points="43.2,-422.8 43.2,-453.6 347.3,-453.6 347.3,-422.8 43.2,-422.8"/>
<text text-anchor="start" x="50.2" y="-435" font-family="Arial" font-size="14.00">SCediCode </text>
<text text-anchor="start" x="125.69" y="-435" font-family="Arial" font-size="14.00" fill="#666666">[varchar(4)]</text>
</g>
<!-- TBL_HierarchyGroup&#45;&gt;TBL_Hierarchy -->
<g id="edge1" class="edge">
<title>TBL_HierarchyGroup:NHierarchyCode&#45;&gt;TBL_Hierarchy:Id</title>
<path fill="none" stroke="black" d="M356.87,-771.61C389.37,-726.61 369.51,-414.02 347.3,-379.6 326.35,-347.15 289.27,-375.97 268.2,-343.6 244.63,-307.39 223.99,-246.4 267.2,-246.4"/>
<polygon fill="black" stroke="black" points="357.05,-771.5 346.19,-773.01 352.53,-774.34 348.86,-776.64 348.86,-776.64 348.86,-776.64 352.53,-774.34 350.97,-780.63 357.05,-771.5"/>
</g>
<!-- TBL_HierarchyNode -->
<g id="node3" class="node">
<title>TBL_HierarchyNode</title>
<polygon fill="#efefef" stroke="none" points="451.7,-792.4 451.7,-828 748.79,-828 748.79,-792.4 451.7,-792.4"/>
<polygon fill="none" stroke="black" points="451.7,-792.4 451.7,-828 748.79,-828 748.79,-792.4 451.7,-792.4"/>
<text text-anchor="start" x="458.7" y="-805.8" font-family="Arial Bold" font-size="18.00">TBL_HierarchyNode</text>
<text text-anchor="start" x="612.64" y="-805.8" font-family="Arial" font-size="14.00">    </text>
<text text-anchor="start" x="643.76" y="-805.8" font-family="Arial" font-size="14.00" fill="#666666">[BASIC TABLE]</text>
<polygon fill="none" stroke="black" points="451.7,-761.6 451.7,-792.4 748.79,-792.4 748.79,-761.6 451.7,-761.6"/>
<text text-anchor="start" x="458.7" y="-773.8" font-family="Arial" font-size="14.00">Id </text>
<text text-anchor="start" x="474.27" y="-773.8" font-family="Arial" font-size="14.00" fill="#666666">[int]</text>
<polygon fill="none" stroke="black" points="451.7,-730.8 451.7,-761.6 748.79,-761.6 748.79,-730.8 451.7,-730.8"/>
<text text-anchor="start" x="458.7" y="-743" font-family="Arial" font-size="14.00">NHierarchyCode </text>
<text text-anchor="start" x="566.07" y="-743" font-family="Arial" font-size="14.00" fill="#666666">[int]</text>
<polygon fill="none" stroke="black" points="451.7,-700 451.7,-730.8 748.79,-730.8 748.79,-700 451.7,-700"/>
<text text-anchor="start" x="458.7" y="-712.2" font-family="Arial" font-size="14.00">NHierarchyApprovalLevelCode </text>
<text text-anchor="start" x="654.8" y="-712.2" font-family="Arial" font-size="14.00" fill="#666666">[int]</text>
<polygon fill="none" stroke="black" points="451.7,-669.2 451.7,-700 748.79,-700 748.79,-669.2 451.7,-669.2"/>
<text text-anchor="start" x="458.7" y="-681.4" font-family="Arial" font-size="14.00">SEmailUser </text>
<text text-anchor="start" x="536.5" y="-681.4" font-family="Arial" font-size="14.00" fill="#666666">[varchar(100)]</text>
<polygon fill="none" stroke="black" points="451.7,-638.4 451.7,-669.2 748.79,-669.2 748.79,-638.4 451.7,-638.4"/>
<text text-anchor="start" x="458.7" y="-650.6" font-family="Arial" font-size="14.00">SInfoNodeJson </text>
<text text-anchor="start" x="558.32" y="-650.6" font-family="Arial" font-size="14.00" fill="#666666">[nvarchar(MAX)]</text>
<polygon fill="none" stroke="black" points="451.7,-607.6 451.7,-638.4 748.79,-638.4 748.79,-607.6 451.7,-607.6"/>
<text text-anchor="start" x="458.7" y="-619.8" font-family="Arial" font-size="14.00">NParentNodeCode </text>
<text text-anchor="start" x="580.89" y="-619.8" font-family="Arial" font-size="14.00" fill="#666666">[int]</text>
<polygon fill="none" stroke="black" points="451.7,-576.8 451.7,-607.6 748.79,-607.6 748.79,-576.8 451.7,-576.8"/>
<text text-anchor="start" x="458.7" y="-589" font-family="Arial" font-size="14.00">DCreationDate </text>
<text text-anchor="start" x="555.19" y="-589" font-family="Arial" font-size="14.00" fill="#666666">[datetime]</text>
<polygon fill="none" stroke="black" points="451.7,-546 451.7,-576.8 748.79,-576.8 748.79,-546 451.7,-546"/>
<text text-anchor="start" x="458.7" y="-558.2" font-family="Arial" font-size="14.00">SCreationUser </text>
<text text-anchor="start" x="554.41" y="-558.2" font-family="Arial" font-size="14.00" fill="#666666">[varchar(300)]</text>
<polygon fill="none" stroke="black" points="451.7,-515.2 451.7,-546 748.79,-546 748.79,-515.2 451.7,-515.2"/>
<text text-anchor="start" x="458.7" y="-527.4" font-family="Arial" font-size="14.00">DModificationDate </text>
<text text-anchor="start" x="576.98" y="-527.4" font-family="Arial" font-size="14.00" fill="#666666">[datetime]</text>
<polygon fill="none" stroke="black" points="451.7,-484.4 451.7,-515.2 748.79,-515.2 748.79,-484.4 451.7,-484.4"/>
<text text-anchor="start" x="458.7" y="-496.6" font-family="Arial" font-size="14.00">SModificationUser </text>
<text text-anchor="start" x="576.19" y="-496.6" font-family="Arial" font-size="14.00" fill="#666666">[varchar(300)]</text>
<polygon fill="none" stroke="black" points="451.7,-453.6 451.7,-484.4 748.79,-484.4 748.79,-453.6 451.7,-453.6"/>
<text text-anchor="start" x="458.7" y="-465.8" font-family="Arial" font-size="14.00">BDeleted </text>
<text text-anchor="start" x="520.18" y="-465.8" font-family="Arial" font-size="14.00" fill="#666666">[bit]</text>
</g>
<!-- TBL_HierarchyNode&#45;&gt;TBL_Hierarchy -->
<g id="edge2" class="edge">
<title>TBL_HierarchyNode:NHierarchyCode&#45;&gt;TBL_Hierarchy:Id</title>
<path fill="none" stroke="black" d="M440.61,-744.34C380.45,-720.53 422.65,-475.16 451.7,-410.4 469.92,-369.79 507.93,-384.14 526.3,-343.6 544.13,-304.25 570.5,-246.4 527.3,-246.4"/>
<polygon fill="black" stroke="black" points="440.54,-744.33 449.56,-750.56 445.79,-745.29 450.04,-746.08 450.04,-746.08 450.04,-746.08 445.79,-745.29 451.19,-741.71 440.54,-744.33"/>
</g>
</g>
</svg>
