<?xml version="1.0" encoding="UTF-8" standalone="no"?>
<!DOCTYPE svg PUBLIC "-//W3C//DTD SVG 1.1//EN"
 "http://www.w3.org/Graphics/SVG/1.1/DTD/svg11.dtd">
<!-- Generated by graphviz version 12.1.2 (20240928.0832)
 -->
<!-- Title: TBL_Macrosegment Pages: 1 -->
<svg width="1086pt" height="633pt"
 viewBox="0.00 0.00 1086.00 632.80" xmlns="http://www.w3.org/2000/svg" xmlns:xlink="http://www.w3.org/1999/xlink">
<g id="graph0" class="graph" transform="scale(1 1) rotate(0) translate(4 628.8)">
<title>TBL_Macrosegment</title>
<polygon fill="white" stroke="none" points="-4,4 -4,-628.8 1082,-628.8 1082,4 -4,4"/>
<!-- TBL_Macrosegment -->
<g id="node1" class="node">
<title>TBL_Macrosegment</title>
<polygon fill="#efefef" stroke="none" points="352.2,-292.6 352.2,-328.2 645.31,-328.2 645.31,-292.6 352.2,-292.6"/>
<polygon fill="none" stroke="black" points="352.2,-292.6 352.2,-328.2 645.31,-328.2 645.31,-292.6 352.2,-292.6"/>
<text text-anchor="start" x="359.2" y="-306" font-family="Arial Bold" font-size="18.00">TBL_Macrosegment</text>
<text text-anchor="start" x="509.16" y="-306" font-family="Arial" font-size="14.00">    </text>
<text text-anchor="start" x="540.27" y="-306" font-family="Arial" font-size="14.00" fill="#666666">[BASIC TABLE]</text>
<polygon fill="none" stroke="black" points="352.2,-261.8 352.2,-292.6 645.31,-292.6 645.31,-261.8 352.2,-261.8"/>
<text text-anchor="start" x="359.2" y="-274" font-family="Arial" font-size="14.00">SCode </text>
<text text-anchor="start" x="405.89" y="-274" font-family="Arial" font-size="14.00" fill="#666666">[varchar(3)]</text>
<polygon fill="none" stroke="black" points="352.2,-231 352.2,-261.8 645.31,-261.8 645.31,-231 352.2,-231"/>
<text text-anchor="start" x="359.2" y="-243.2" font-family="Arial" font-size="14.00">SDescription </text>
<text text-anchor="start" x="442.45" y="-243.2" font-family="Arial" font-size="14.00" fill="#666666">[nvarchar(200)]</text>
<polygon fill="none" stroke="black" points="352.2,-200.2 352.2,-231 645.31,-231 645.31,-200.2 352.2,-200.2"/>
<text text-anchor="start" x="359.2" y="-212.4" font-family="Arial" font-size="14.00">DCreationDate </text>
<text text-anchor="start" x="455.69" y="-212.4" font-family="Arial" font-size="14.00" fill="#666666">[datetime]</text>
<polygon fill="none" stroke="black" points="352.2,-169.4 352.2,-200.2 645.31,-200.2 645.31,-169.4 352.2,-169.4"/>
<text text-anchor="start" x="359.2" y="-181.6" font-family="Arial" font-size="14.00">SCreationUser </text>
<text text-anchor="start" x="454.9" y="-181.6" font-family="Arial" font-size="14.00" fill="#666666">[varchar(300)]</text>
<polygon fill="none" stroke="black" points="352.2,-138.6 352.2,-169.4 645.31,-169.4 645.31,-138.6 352.2,-138.6"/>
<text text-anchor="start" x="359.2" y="-150.8" font-family="Arial" font-size="14.00">DModificationDate </text>
<text text-anchor="start" x="477.47" y="-150.8" font-family="Arial" font-size="14.00" fill="#666666">[datetime]</text>
<polygon fill="none" stroke="black" points="352.2,-107.8 352.2,-138.6 645.31,-138.6 645.31,-107.8 352.2,-107.8"/>
<text text-anchor="start" x="359.2" y="-120" font-family="Arial" font-size="14.00">SModificationUser </text>
<text text-anchor="start" x="476.69" y="-120" font-family="Arial" font-size="14.00" fill="#666666">[varchar(300)]</text>
<polygon fill="none" stroke="black" points="352.2,-77 352.2,-107.8 645.31,-107.8 645.31,-77 352.2,-77"/>
<text text-anchor="start" x="359.2" y="-89.2" font-family="Arial" font-size="14.00">BDeleted </text>
<text text-anchor="start" x="420.68" y="-89.2" font-family="Arial" font-size="14.00" fill="#666666">[bit]</text>
<polygon fill="none" stroke="black" points="352.2,-46.2 352.2,-77 645.31,-77 645.31,-46.2 352.2,-46.2"/>
<text text-anchor="start" x="359.2" y="-58.4" font-family="Arial" font-size="14.00">BIsActive </text>
<text text-anchor="start" x="421.44" y="-58.4" font-family="Arial" font-size="14.00" fill="#666666">[bit]</text>
<polygon fill="none" stroke="black" stroke-width="3" points="350.7,-44.7 350.7,-329.7 646.81,-329.7 646.81,-44.7 350.7,-44.7"/>
</g>
<!-- TBL_MacrosegmentTypology -->
<g id="node2" class="node">
<title>TBL_MacrosegmentTypology</title>
<polygon fill="#efefef" stroke="none" points="43.2,-530.6 43.2,-566.2 406.31,-566.2 406.31,-530.6 43.2,-530.6"/>
<polygon fill="none" stroke="black" points="43.2,-530.6 43.2,-566.2 406.31,-566.2 406.31,-530.6 43.2,-530.6"/>
<text text-anchor="start" x="50.2" y="-544" font-family="Arial Bold" font-size="18.00">TBL_MacrosegmentTypology</text>
<text text-anchor="start" x="270.16" y="-544" font-family="Arial" font-size="14.00">    </text>
<text text-anchor="start" x="301.27" y="-544" font-family="Arial" font-size="14.00" fill="#666666">[BASIC TABLE]</text>
<polygon fill="none" stroke="black" points="43.2,-499.8 43.2,-530.6 406.31,-530.6 406.31,-499.8 43.2,-499.8"/>
<text text-anchor="start" x="50.2" y="-512" font-family="Arial" font-size="14.00">SMacrosegmentCode </text>
<text text-anchor="start" x="189.49" y="-512" font-family="Arial" font-size="14.00" fill="#666666">[varchar(3)]</text>
<polygon fill="none" stroke="black" points="43.2,-469 43.2,-499.8 406.31,-499.8 406.31,-469 43.2,-469"/>
<text text-anchor="start" x="50.2" y="-481.2" font-family="Arial" font-size="14.00">STypologyCode </text>
<text text-anchor="start" x="153.7" y="-481.2" font-family="Arial" font-size="14.00" fill="#666666">[varchar(3)]</text>
</g>
<!-- TBL_MacrosegmentTypology&#45;&gt;TBL_Macrosegment -->
<g id="edge1" class="edge">
<title>TBL_MacrosegmentTypology:SMacrosegmentCode&#45;&gt;TBL_Macrosegment:SCode</title>
<path fill="none" stroke="black" d="M417.49,-513.63C442.09,-504.61 420.57,-458.53 406.31,-425.8 393.05,-395.39 365.44,-404.81 352.2,-374.4 334.95,-334.79 308,-277.2 351.2,-277.2"/>
<polygon fill="black" stroke="black" points="417.52,-513.63 406.95,-510.7 412.25,-514.44 407.97,-515.1 407.97,-515.1 407.97,-515.1 412.25,-514.44 408.32,-519.6 417.52,-513.63"/>
</g>
<!-- TBL_MacrosegmentTypologyCommercialCondition -->
<g id="node3" class="node">
<title>TBL_MacrosegmentTypologyCommercialCondition</title>
<polygon fill="#efefef" stroke="none" points="510.71,-546 510.71,-581.6 1034.8,-581.6 1034.8,-546 510.71,-546"/>
<polygon fill="none" stroke="black" points="510.71,-546 510.71,-581.6 1034.8,-581.6 1034.8,-546 510.71,-546"/>
<text text-anchor="start" x="517.71" y="-559.4" font-family="Arial Bold" font-size="18.00">TBL_MacrosegmentTypologyCommercialCondition</text>
<text text-anchor="start" x="898.65" y="-559.4" font-family="Arial" font-size="14.00">    </text>
<text text-anchor="start" x="929.76" y="-559.4" font-family="Arial" font-size="14.00" fill="#666666">[BASIC TABLE]</text>
<polygon fill="none" stroke="black" points="510.71,-515.2 510.71,-546 1034.8,-546 1034.8,-515.2 510.71,-515.2"/>
<text text-anchor="start" x="517.71" y="-527.4" font-family="Arial" font-size="14.00">SMacrosegmentCode </text>
<text text-anchor="start" x="657" y="-527.4" font-family="Arial" font-size="14.00" fill="#666666">[varchar(3)]</text>
<polygon fill="none" stroke="black" points="510.71,-484.4 510.71,-515.2 1034.8,-515.2 1034.8,-484.4 510.71,-484.4"/>
<text text-anchor="start" x="517.71" y="-496.6" font-family="Arial" font-size="14.00">STypologyCode </text>
<text text-anchor="start" x="621.21" y="-496.6" font-family="Arial" font-size="14.00" fill="#666666">[varchar(3)]</text>
<polygon fill="none" stroke="black" points="510.71,-453.6 510.71,-484.4 1034.8,-484.4 1034.8,-453.6 510.71,-453.6"/>
<text text-anchor="start" x="517.71" y="-465.8" font-family="Arial" font-size="14.00">SCommercialConditionCode </text>
<text text-anchor="start" x="698.23" y="-465.8" font-family="Arial" font-size="14.00" fill="#666666">[varchar(20)]</text>
</g>
<!-- TBL_MacrosegmentTypologyCommercialCondition&#45;&gt;TBL_Macrosegment -->
<g id="edge2" class="edge">
<title>TBL_MacrosegmentTypologyCommercialCondition:SMacrosegmentCode&#45;&gt;TBL_Macrosegment:SCode</title>
<path fill="none" stroke="black" d="M499.53,-529.48C459.39,-519.81 480.3,-449.67 510.71,-410.4 548.62,-361.44 607.35,-423.32 645.31,-374.4 671.79,-340.27 689.51,-277.2 646.31,-277.2"/>
<polygon fill="black" stroke="black" points="499.44,-529.47 508.89,-535.04 504.74,-530.05 509.04,-530.53 509.04,-530.53 509.04,-530.53 504.74,-530.05 509.87,-526.09 499.44,-529.47"/>
</g>
</g>
</svg>
