<?xml version="1.0" encoding="UTF-8" standalone="no"?>
<!DOCTYPE svg PUBLIC "-//W3C//DTD SVG 1.1//EN"
 "http://www.w3.org/Graphics/SVG/1.1/DTD/svg11.dtd">
<!-- Generated by graphviz version 12.1.2 (20240928.0832)
 -->
<!-- Title: TBL_HierarchyGroup Pages: 1 -->
<svg width="820pt" height="910pt"
 viewBox="0.00 0.00 820.00 910.00" xmlns="http://www.w3.org/2000/svg" xmlns:xlink="http://www.w3.org/1999/xlink">
<g id="graph0" class="graph" transform="scale(1 1) rotate(0) translate(4 906)">
<title>TBL_HierarchyGroup</title>
<polygon fill="white" stroke="none" points="-4,4 -4,-906 816,-906 816,4 -4,4"/>
<!-- TBL_HierarchyGroup -->
<g id="node1" class="node">
<title>TBL_HierarchyGroup</title>
<polygon fill="#efefef" stroke="none" points="227.2,-820.2 227.2,-855.8 531.3,-855.8 531.3,-820.2 227.2,-820.2"/>
<polygon fill="none" stroke="black" points="227.2,-820.2 227.2,-855.8 531.3,-855.8 531.3,-820.2 227.2,-820.2"/>
<text text-anchor="start" x="234.2" y="-833.6" font-family="Arial Bold" font-size="18.00">TBL_HierarchyGroup</text>
<text text-anchor="start" x="395.15" y="-833.6" font-family="Arial" font-size="14.00">    </text>
<text text-anchor="start" x="426.27" y="-833.6" font-family="Arial" font-size="14.00" fill="#666666">[BASIC TABLE]</text>
<polygon fill="none" stroke="black" points="227.2,-789.4 227.2,-820.2 531.3,-820.2 531.3,-789.4 227.2,-789.4"/>
<text text-anchor="start" x="234.2" y="-801.6" font-family="Arial" font-size="14.00">Id </text>
<text text-anchor="start" x="249.77" y="-801.6" font-family="Arial" font-size="14.00" fill="#666666">[int]</text>
<polygon fill="none" stroke="black" points="227.2,-758.6 227.2,-789.4 531.3,-789.4 531.3,-758.6 227.2,-758.6"/>
<text text-anchor="start" x="234.2" y="-770.8" font-family="Arial" font-size="14.00">NHierarchyCode </text>
<text text-anchor="start" x="341.58" y="-770.8" font-family="Arial" font-size="14.00" fill="#666666">[int]</text>
<polygon fill="none" stroke="black" points="227.2,-727.8 227.2,-758.6 531.3,-758.6 531.3,-727.8 227.2,-727.8"/>
<text text-anchor="start" x="234.2" y="-740" font-family="Arial" font-size="14.00">SSectorCode </text>
<text text-anchor="start" x="321.36" y="-740" font-family="Arial" font-size="14.00" fill="#666666">[varchar(2)]</text>
<polygon fill="none" stroke="black" points="227.2,-697 227.2,-727.8 531.3,-727.8 531.3,-697 227.2,-697"/>
<text text-anchor="start" x="234.2" y="-709.2" font-family="Arial" font-size="14.00">NTypeCommercialActivityDomainCode </text>
<text text-anchor="start" x="480.05" y="-709.2" font-family="Arial" font-size="14.00" fill="#666666">[int]</text>
<polygon fill="none" stroke="black" points="227.2,-666.2 227.2,-697 531.3,-697 531.3,-666.2 227.2,-666.2"/>
<text text-anchor="start" x="234.2" y="-678.4" font-family="Arial" font-size="14.00">SChannelCode </text>
<text text-anchor="start" x="333.05" y="-678.4" font-family="Arial" font-size="14.00" fill="#666666">[varchar(4)]</text>
<polygon fill="none" stroke="black" points="227.2,-635.4 227.2,-666.2 531.3,-666.2 531.3,-635.4 227.2,-635.4"/>
<text text-anchor="start" x="234.2" y="-647.6" font-family="Arial" font-size="14.00">SMacrosegmentCode </text>
<text text-anchor="start" x="373.49" y="-647.6" font-family="Arial" font-size="14.00" fill="#666666">[varchar(3)]</text>
<polygon fill="none" stroke="black" points="227.2,-604.6 227.2,-635.4 531.3,-635.4 531.3,-604.6 227.2,-604.6"/>
<text text-anchor="start" x="234.2" y="-616.8" font-family="Arial" font-size="14.00">STypologyCode </text>
<text text-anchor="start" x="337.71" y="-616.8" font-family="Arial" font-size="14.00" fill="#666666">[varchar(3)]</text>
<polygon fill="none" stroke="black" points="227.2,-573.8 227.2,-604.6 531.3,-604.6 531.3,-573.8 227.2,-573.8"/>
<text text-anchor="start" x="234.2" y="-586" font-family="Arial" font-size="14.00">DCreationDate </text>
<text text-anchor="start" x="330.69" y="-586" font-family="Arial" font-size="14.00" fill="#666666">[datetime]</text>
<polygon fill="none" stroke="black" points="227.2,-543 227.2,-573.8 531.3,-573.8 531.3,-543 227.2,-543"/>
<text text-anchor="start" x="234.2" y="-555.2" font-family="Arial" font-size="14.00">SCreationUser </text>
<text text-anchor="start" x="329.91" y="-555.2" font-family="Arial" font-size="14.00" fill="#666666">[varchar(300)]</text>
<polygon fill="none" stroke="black" points="227.2,-512.2 227.2,-543 531.3,-543 531.3,-512.2 227.2,-512.2"/>
<text text-anchor="start" x="234.2" y="-524.4" font-family="Arial" font-size="14.00">DModificationDate </text>
<text text-anchor="start" x="352.48" y="-524.4" font-family="Arial" font-size="14.00" fill="#666666">[datetime]</text>
<polygon fill="none" stroke="black" points="227.2,-481.4 227.2,-512.2 531.3,-512.2 531.3,-481.4 227.2,-481.4"/>
<text text-anchor="start" x="234.2" y="-493.6" font-family="Arial" font-size="14.00">SModificationUser </text>
<text text-anchor="start" x="351.69" y="-493.6" font-family="Arial" font-size="14.00" fill="#666666">[varchar(300)]</text>
<polygon fill="none" stroke="black" points="227.2,-450.6 227.2,-481.4 531.3,-481.4 531.3,-450.6 227.2,-450.6"/>
<text text-anchor="start" x="234.2" y="-462.8" font-family="Arial" font-size="14.00">BDeleted </text>
<text text-anchor="start" x="295.69" y="-462.8" font-family="Arial" font-size="14.00" fill="#666666">[bit]</text>
<polygon fill="none" stroke="black" points="227.2,-419.8 227.2,-450.6 531.3,-450.6 531.3,-419.8 227.2,-419.8"/>
<text text-anchor="start" x="234.2" y="-432" font-family="Arial" font-size="14.00">SCediCode </text>
<text text-anchor="start" x="309.69" y="-432" font-family="Arial" font-size="14.00" fill="#666666">[varchar(4)]</text>
<polygon fill="none" stroke="black" stroke-width="3" points="225.7,-418.3 225.7,-857.3 532.8,-857.3 532.8,-418.3 225.7,-418.3"/>
</g>
<!-- TBL_Hierarchy -->
<g id="node2" class="node">
<title>TBL_Hierarchy</title>
<polygon fill="#efefef" stroke="none" points="43.2,-258.8 43.2,-294.4 301.3,-294.4 301.3,-258.8 43.2,-258.8"/>
<polygon fill="none" stroke="black" points="43.2,-258.8 43.2,-294.4 301.3,-294.4 301.3,-258.8 43.2,-258.8"/>
<text text-anchor="start" x="50.2" y="-272.2" font-family="Arial Bold" font-size="18.00">TBL_Hierarchy</text>
<text text-anchor="start" x="165.15" y="-272.2" font-family="Arial" font-size="14.00">    </text>
<text text-anchor="start" x="196.27" y="-272.2" font-family="Arial" font-size="14.00" fill="#666666">[BASIC TABLE]</text>
<polygon fill="none" stroke="black" points="43.2,-228 43.2,-258.8 301.3,-258.8 301.3,-228 43.2,-228"/>
<text text-anchor="start" x="50.2" y="-240.2" font-family="Arial" font-size="14.00">Id </text>
<text text-anchor="start" x="65.77" y="-240.2" font-family="Arial" font-size="14.00" fill="#666666">[int]</text>
<polygon fill="none" stroke="black" points="43.2,-197.2 43.2,-228 301.3,-228 301.3,-197.2 43.2,-197.2"/>
<text text-anchor="start" x="50.2" y="-209.4" font-family="Arial" font-size="14.00">SName </text>
<text text-anchor="start" x="100.77" y="-209.4" font-family="Arial" font-size="14.00" fill="#666666">[varchar(200)]</text>
<polygon fill="none" stroke="black" points="43.2,-166.4 43.2,-197.2 301.3,-197.2 301.3,-166.4 43.2,-166.4"/>
<text text-anchor="start" x="50.2" y="-178.6" font-family="Arial" font-size="14.00">DCreationDate </text>
<text text-anchor="start" x="146.69" y="-178.6" font-family="Arial" font-size="14.00" fill="#666666">[datetime]</text>
<polygon fill="none" stroke="black" points="43.2,-135.6 43.2,-166.4 301.3,-166.4 301.3,-135.6 43.2,-135.6"/>
<text text-anchor="start" x="50.2" y="-147.8" font-family="Arial" font-size="14.00">SCreationUser </text>
<text text-anchor="start" x="145.9" y="-147.8" font-family="Arial" font-size="14.00" fill="#666666">[varchar(300)]</text>
<polygon fill="none" stroke="black" points="43.2,-104.8 43.2,-135.6 301.3,-135.6 301.3,-104.8 43.2,-104.8"/>
<text text-anchor="start" x="50.2" y="-117" font-family="Arial" font-size="14.00">DModificationDate </text>
<text text-anchor="start" x="168.48" y="-117" font-family="Arial" font-size="14.00" fill="#666666">[datetime]</text>
<polygon fill="none" stroke="black" points="43.2,-74 43.2,-104.8 301.3,-104.8 301.3,-74 43.2,-74"/>
<text text-anchor="start" x="50.2" y="-86.2" font-family="Arial" font-size="14.00">SModificationUser </text>
<text text-anchor="start" x="167.69" y="-86.2" font-family="Arial" font-size="14.00" fill="#666666">[varchar(300)]</text>
<polygon fill="none" stroke="black" points="43.2,-43.2 43.2,-74 301.3,-74 301.3,-43.2 43.2,-43.2"/>
<text text-anchor="start" x="50.2" y="-55.4" font-family="Arial" font-size="14.00">BDeleted </text>
<text text-anchor="start" x="111.68" y="-55.4" font-family="Arial" font-size="14.00" fill="#666666">[bit]</text>
</g>
<!-- TBL_HierarchyGroup&#45;&gt;TBL_Hierarchy -->
<g id="edge1" class="edge">
<title>TBL_HierarchyGroup:NHierarchyCode&#45;&gt;TBL_Hierarchy:Id</title>
<path fill="none" stroke="black" d="M216.07,-773.72C51.55,-764.28 134.44,-521.38 227.2,-373.6 246.67,-342.59 281.71,-368.53 301.3,-337.6 323.71,-302.23 344.17,-243.4 302.3,-243.4"/>
<polygon fill="black" stroke="black" points="215.87,-773.71 225.74,-778.49 221.21,-773.86 225.53,-773.98 225.53,-773.98 225.53,-773.98 221.21,-773.86 225.99,-769.49 215.87,-773.71"/>
</g>
<!-- TBL_MacrosegmentTypology -->
<g id="node3" class="node">
<title>TBL_MacrosegmentTypology</title>
<polygon fill="#efefef" stroke="none" points="405.7,-181.8 405.7,-217.4 768.8,-217.4 768.8,-181.8 405.7,-181.8"/>
<polygon fill="none" stroke="black" points="405.7,-181.8 405.7,-217.4 768.8,-217.4 768.8,-181.8 405.7,-181.8"/>
<text text-anchor="start" x="412.7" y="-195.2" font-family="Arial Bold" font-size="18.00">TBL_MacrosegmentTypology</text>
<text text-anchor="start" x="632.65" y="-195.2" font-family="Arial" font-size="14.00">    </text>
<text text-anchor="start" x="663.77" y="-195.2" font-family="Arial" font-size="14.00" fill="#666666">[BASIC TABLE]</text>
<polygon fill="none" stroke="black" points="405.7,-151 405.7,-181.8 768.8,-181.8 768.8,-151 405.7,-151"/>
<text text-anchor="start" x="412.7" y="-163.2" font-family="Arial" font-size="14.00">SMacrosegmentCode </text>
<text text-anchor="start" x="551.99" y="-163.2" font-family="Arial" font-size="14.00" fill="#666666">[varchar(3)]</text>
<polygon fill="none" stroke="black" points="405.7,-120.2 405.7,-151 768.8,-151 768.8,-120.2 405.7,-120.2"/>
<text text-anchor="start" x="412.7" y="-132.4" font-family="Arial" font-size="14.00">STypologyCode </text>
<text text-anchor="start" x="516.2" y="-132.4" font-family="Arial" font-size="14.00" fill="#666666">[varchar(3)]</text>
</g>
<!-- TBL_HierarchyGroup&#45;&gt;TBL_MacrosegmentTypology -->
<g id="edge2" class="edge">
<title>TBL_HierarchyGroup:SMacrosegmentCode&#45;&gt;TBL_MacrosegmentTypology:SMacrosegmentCode</title>
<path fill="none" stroke="black" d="M542.63,-650.38C651.19,-641.19 580.16,-482.75 531.3,-373.6 500.62,-305.06 436.62,-329.03 405.7,-260.6 388.46,-222.45 362.83,-166.4 404.7,-166.4"/>
<polygon fill="black" stroke="black" points="542.63,-650.38 532.45,-646.29 537.3,-650.6 532.97,-650.77 532.97,-650.77 532.97,-650.77 537.3,-650.6 532.82,-655.28 542.63,-650.38"/>
</g>
</g>
</svg>
