<?xml version="1.0" encoding="UTF-8" standalone="no"?>
<!DOCTYPE svg PUBLIC "-//W3C//DTD SVG 1.1//EN"
 "http://www.w3.org/Graphics/SVG/1.1/DTD/svg11.dtd">
<!-- Generated by graphviz version 12.1.2 (20240928.0832)
 -->
<!-- Title: TBL_Typology Pages: 1 -->
<svg width="1086pt" height="633pt"
 viewBox="0.00 0.00 1086.00 632.80" xmlns="http://www.w3.org/2000/svg" xmlns:xlink="http://www.w3.org/1999/xlink">
<g id="graph0" class="graph" transform="scale(1 1) rotate(0) translate(4 628.8)">
<title>TBL_Typology</title>
<polygon fill="white" stroke="none" points="-4,4 -4,-628.8 1082,-628.8 1082,4 -4,4"/>
<!-- TBL_Typology -->
<g id="node1" class="node">
<title>TBL_Typology</title>
<polygon fill="#efefef" stroke="none" points="370.68,-292.6 370.68,-328.2 626.83,-328.2 626.83,-292.6 370.68,-292.6"/>
<polygon fill="none" stroke="black" points="370.68,-292.6 370.68,-328.2 626.83,-328.2 626.83,-292.6 370.68,-292.6"/>
<text text-anchor="start" x="377.68" y="-306" font-family="Arial Bold" font-size="18.00">TBL_Typology</text>
<text text-anchor="start" x="490.67" y="-306" font-family="Arial" font-size="14.00">    </text>
<text text-anchor="start" x="521.79" y="-306" font-family="Arial" font-size="14.00" fill="#666666">[BASIC TABLE]</text>
<polygon fill="none" stroke="black" points="370.68,-261.8 370.68,-292.6 626.83,-292.6 626.83,-261.8 370.68,-261.8"/>
<text text-anchor="start" x="377.68" y="-274" font-family="Arial" font-size="14.00">SCode </text>
<text text-anchor="start" x="424.38" y="-274" font-family="Arial" font-size="14.00" fill="#666666">[varchar(3)]</text>
<polygon fill="none" stroke="black" points="370.68,-231 370.68,-261.8 626.83,-261.8 626.83,-231 370.68,-231"/>
<text text-anchor="start" x="377.68" y="-243.2" font-family="Arial" font-size="14.00">SDescription </text>
<text text-anchor="start" x="460.94" y="-243.2" font-family="Arial" font-size="14.00" fill="#666666">[nvarchar(200)]</text>
<polygon fill="none" stroke="black" points="370.68,-200.2 370.68,-231 626.83,-231 626.83,-200.2 370.68,-200.2"/>
<text text-anchor="start" x="377.68" y="-212.4" font-family="Arial" font-size="14.00">DCreationDate </text>
<text text-anchor="start" x="474.17" y="-212.4" font-family="Arial" font-size="14.00" fill="#666666">[datetime]</text>
<polygon fill="none" stroke="black" points="370.68,-169.4 370.68,-200.2 626.83,-200.2 626.83,-169.4 370.68,-169.4"/>
<text text-anchor="start" x="377.68" y="-181.6" font-family="Arial" font-size="14.00">SCreationUser </text>
<text text-anchor="start" x="473.38" y="-181.6" font-family="Arial" font-size="14.00" fill="#666666">[varchar(300)]</text>
<polygon fill="none" stroke="black" points="370.68,-138.6 370.68,-169.4 626.83,-169.4 626.83,-138.6 370.68,-138.6"/>
<text text-anchor="start" x="377.68" y="-150.8" font-family="Arial" font-size="14.00">DModificationDate </text>
<text text-anchor="start" x="495.96" y="-150.8" font-family="Arial" font-size="14.00" fill="#666666">[datetime]</text>
<polygon fill="none" stroke="black" points="370.68,-107.8 370.68,-138.6 626.83,-138.6 626.83,-107.8 370.68,-107.8"/>
<text text-anchor="start" x="377.68" y="-120" font-family="Arial" font-size="14.00">SModificationUser </text>
<text text-anchor="start" x="495.17" y="-120" font-family="Arial" font-size="14.00" fill="#666666">[varchar(300)]</text>
<polygon fill="none" stroke="black" points="370.68,-77 370.68,-107.8 626.83,-107.8 626.83,-77 370.68,-77"/>
<text text-anchor="start" x="377.68" y="-89.2" font-family="Arial" font-size="14.00">BDeleted </text>
<text text-anchor="start" x="439.16" y="-89.2" font-family="Arial" font-size="14.00" fill="#666666">[bit]</text>
<polygon fill="none" stroke="black" points="370.68,-46.2 370.68,-77 626.83,-77 626.83,-46.2 370.68,-46.2"/>
<text text-anchor="start" x="377.68" y="-58.4" font-family="Arial" font-size="14.00">BIsActive </text>
<text text-anchor="start" x="439.92" y="-58.4" font-family="Arial" font-size="14.00" fill="#666666">[bit]</text>
<polygon fill="none" stroke="black" stroke-width="3" points="369.18,-44.7 369.18,-329.7 628.33,-329.7 628.33,-44.7 369.18,-44.7"/>
</g>
<!-- TBL_MacrosegmentTypology -->
<g id="node2" class="node">
<title>TBL_MacrosegmentTypology</title>
<polygon fill="#efefef" stroke="none" points="43.2,-530.6 43.2,-566.2 406.31,-566.2 406.31,-530.6 43.2,-530.6"/>
<polygon fill="none" stroke="black" points="43.2,-530.6 43.2,-566.2 406.31,-566.2 406.31,-530.6 43.2,-530.6"/>
<text text-anchor="start" x="50.2" y="-544" font-family="Arial Bold" font-size="18.00">TBL_MacrosegmentTypology</text>
<text text-anchor="start" x="270.16" y="-544" font-family="Arial" font-size="14.00">    </text>
<text text-anchor="start" x="301.27" y="-544" font-family="Arial" font-size="14.00" fill="#666666">[BASIC TABLE]</text>
<polygon fill="none" stroke="black" points="43.2,-499.8 43.2,-530.6 406.31,-530.6 406.31,-499.8 43.2,-499.8"/>
<text text-anchor="start" x="50.2" y="-512" font-family="Arial" font-size="14.00">SMacrosegmentCode </text>
<text text-anchor="start" x="189.49" y="-512" font-family="Arial" font-size="14.00" fill="#666666">[varchar(3)]</text>
<polygon fill="none" stroke="black" points="43.2,-469 43.2,-499.8 406.31,-499.8 406.31,-469 43.2,-469"/>
<text text-anchor="start" x="50.2" y="-481.2" font-family="Arial" font-size="14.00">STypologyCode </text>
<text text-anchor="start" x="153.7" y="-481.2" font-family="Arial" font-size="14.00" fill="#666666">[varchar(3)]</text>
</g>
<!-- TBL_MacrosegmentTypology&#45;&gt;TBL_Typology -->
<g id="edge1" class="edge">
<title>TBL_MacrosegmentTypology:STypologyCode&#45;&gt;TBL_Typology:SCode</title>
<path fill="none" stroke="black" d="M417.02,-481.62C427.13,-473.05 412.92,-446.33 406.31,-425.8 397.79,-399.34 379.11,-400.89 370.68,-374.4 357.58,-333.23 326.48,-277.2 369.68,-277.2"/>
<polygon fill="black" stroke="black" points="417.24,-481.56 406.39,-479.98 412.11,-483.03 407.95,-484.22 407.95,-484.22 407.95,-484.22 412.11,-483.03 408.87,-488.63 417.24,-481.56"/>
</g>
<!-- TBL_MacrosegmentTypologyCommercialCondition -->
<g id="node3" class="node">
<title>TBL_MacrosegmentTypologyCommercialCondition</title>
<polygon fill="#efefef" stroke="none" points="510.71,-546 510.71,-581.6 1034.8,-581.6 1034.8,-546 510.71,-546"/>
<polygon fill="none" stroke="black" points="510.71,-546 510.71,-581.6 1034.8,-581.6 1034.8,-546 510.71,-546"/>
<text text-anchor="start" x="517.71" y="-559.4" font-family="Arial Bold" font-size="18.00">TBL_MacrosegmentTypologyCommercialCondition</text>
<text text-anchor="start" x="898.65" y="-559.4" font-family="Arial" font-size="14.00">    </text>
<text text-anchor="start" x="929.76" y="-559.4" font-family="Arial" font-size="14.00" fill="#666666">[BASIC TABLE]</text>
<polygon fill="none" stroke="black" points="510.71,-515.2 510.71,-546 1034.8,-546 1034.8,-515.2 510.71,-515.2"/>
<text text-anchor="start" x="517.71" y="-527.4" font-family="Arial" font-size="14.00">SMacrosegmentCode </text>
<text text-anchor="start" x="657" y="-527.4" font-family="Arial" font-size="14.00" fill="#666666">[varchar(3)]</text>
<polygon fill="none" stroke="black" points="510.71,-484.4 510.71,-515.2 1034.8,-515.2 1034.8,-484.4 510.71,-484.4"/>
<text text-anchor="start" x="517.71" y="-496.6" font-family="Arial" font-size="14.00">STypologyCode </text>
<text text-anchor="start" x="621.21" y="-496.6" font-family="Arial" font-size="14.00" fill="#666666">[varchar(3)]</text>
<polygon fill="none" stroke="black" points="510.71,-453.6 510.71,-484.4 1034.8,-484.4 1034.8,-453.6 510.71,-453.6"/>
<text text-anchor="start" x="517.71" y="-465.8" font-family="Arial" font-size="14.00">SCommercialConditionCode </text>
<text text-anchor="start" x="698.23" y="-465.8" font-family="Arial" font-size="14.00" fill="#666666">[varchar(20)]</text>
</g>
<!-- TBL_MacrosegmentTypologyCommercialCondition&#45;&gt;TBL_Typology -->
<g id="edge2" class="edge">
<title>TBL_MacrosegmentTypologyCommercialCondition:STypologyCode&#45;&gt;TBL_Typology:SCode</title>
<path fill="none" stroke="black" d="M499.64,-498.23C473.36,-488.81 489.28,-439.15 510.71,-410.4 543.01,-367.08 594.55,-417.73 626.83,-374.4 652.63,-339.75 671.03,-277.2 627.83,-277.2"/>
<polygon fill="black" stroke="black" points="499.5,-498.21 508.69,-504.19 504.77,-499.03 509.05,-499.7 509.05,-499.7 509.05,-499.7 504.77,-499.03 510.07,-495.3 499.5,-498.21"/>
</g>
</g>
</svg>
