<?xml version="1.0" encoding="UTF-8" standalone="no"?>
<!DOCTYPE svg PUBLIC "-//W3C//DTD SVG 1.1//EN"
 "http://www.w3.org/Graphics/SVG/1.1/DTD/svg11.dtd">
<!-- Generated by graphviz version 12.1.2 (20240928.0832)
 -->
<!-- Title: TBL_Negotiation Pages: 1 -->
<svg width="372pt" height="413pt"
 viewBox="0.00 0.00 371.53 413.20" xmlns="http://www.w3.org/2000/svg" xmlns:xlink="http://www.w3.org/1999/xlink">
<g id="graph0" class="graph" transform="scale(1 1) rotate(0) translate(4 409.2)">
<title>TBL_Negotiation</title>
<polygon fill="white" stroke="none" points="-4,4 -4,-409.2 367.53,-409.2 367.53,4 -4,4"/>
<!-- TBL_Negotiation -->
<g id="node1" class="node">
<title>TBL_Negotiation</title>
<polygon fill="#efefef" stroke="none" points="46.2,-323.4 46.2,-359 317.33,-359 317.33,-323.4 46.2,-323.4"/>
<polygon fill="none" stroke="black" points="46.2,-323.4 46.2,-359 317.33,-359 317.33,-323.4 46.2,-323.4"/>
<text text-anchor="start" x="53.2" y="-336.8" font-family="Arial Bold" font-size="18.00">TBL_Negotiation</text>
<text text-anchor="start" x="181.18" y="-336.8" font-family="Arial" font-size="14.00">    </text>
<text text-anchor="start" x="212.29" y="-336.8" font-family="Arial" font-size="14.00" fill="#666666">[BASIC TABLE]</text>
<polygon fill="none" stroke="black" points="46.2,-292.6 46.2,-323.4 317.33,-323.4 317.33,-292.6 46.2,-292.6"/>
<text text-anchor="start" x="53.2" y="-304.8" font-family="Arial" font-size="14.00">NCode </text>
<text text-anchor="start" x="100.67" y="-304.8" font-family="Arial" font-size="14.00" fill="#666666">[int]</text>
<polygon fill="none" stroke="black" points="46.2,-261.8 46.2,-292.6 317.33,-292.6 317.33,-261.8 46.2,-261.8"/>
<text text-anchor="start" x="53.2" y="-274" font-family="Arial" font-size="14.00">NCodeCustomer </text>
<text text-anchor="start" x="161.35" y="-274" font-family="Arial" font-size="14.00" fill="#666666">[int]</text>
<polygon fill="none" stroke="black" points="46.2,-231 46.2,-261.8 317.33,-261.8 317.33,-231 46.2,-231"/>
<text text-anchor="start" x="53.2" y="-243.2" font-family="Arial" font-size="14.00">SNIT </text>
<text text-anchor="start" x="88.98" y="-243.2" font-family="Arial" font-size="14.00" fill="#666666">[varchar(30)]</text>
<polygon fill="none" stroke="black" points="46.2,-200.2 46.2,-231 317.33,-231 317.33,-200.2 46.2,-200.2"/>
<text text-anchor="start" x="53.2" y="-212.4" font-family="Arial" font-size="14.00">SCompanyName </text>
<text text-anchor="start" x="163.69" y="-212.4" font-family="Arial" font-size="14.00" fill="#666666">[varchar(50)]</text>
<polygon fill="none" stroke="black" points="46.2,-169.4 46.2,-200.2 317.33,-200.2 317.33,-169.4 46.2,-169.4"/>
<text text-anchor="start" x="53.2" y="-181.6" font-family="Arial" font-size="14.00">SBusinessName </text>
<text text-anchor="start" x="160.58" y="-181.6" font-family="Arial" font-size="14.00" fill="#666666">[varchar(50)]</text>
<polygon fill="none" stroke="black" points="46.2,-138.6 46.2,-169.4 317.33,-169.4 317.33,-138.6 46.2,-138.6"/>
<text text-anchor="start" x="53.2" y="-150.8" font-family="Arial" font-size="14.00">NRegionCode </text>
<text text-anchor="start" x="145.03" y="-150.8" font-family="Arial" font-size="14.00" fill="#666666">[int]</text>
<polygon fill="none" stroke="black" points="46.2,-107.8 46.2,-138.6 317.33,-138.6 317.33,-107.8 46.2,-107.8"/>
<text text-anchor="start" x="53.2" y="-120" font-family="Arial" font-size="14.00">NCenterCode </text>
<text text-anchor="start" x="142.69" y="-120" font-family="Arial" font-size="14.00" fill="#666666">[int]</text>
<polygon fill="none" stroke="black" points="46.2,-77 46.2,-107.8 317.33,-107.8 317.33,-77 46.2,-77"/>
<text text-anchor="start" x="53.2" y="-89.2" font-family="Arial" font-size="14.00">NLastNegotiationCode </text>
<text text-anchor="start" x="197.96" y="-89.2" font-family="Arial" font-size="14.00" fill="#666666">[int]</text>
<polygon fill="none" stroke="black" points="46.2,-46.2 46.2,-77 317.33,-77 317.33,-46.2 46.2,-46.2"/>
<text text-anchor="start" x="53.2" y="-58.4" font-family="Arial" font-size="14.00">NLastNegotiationStatus </text>
<text text-anchor="start" x="204.18" y="-58.4" font-family="Arial" font-size="14.00" fill="#666666">[int]</text>
<polygon fill="none" stroke="black" stroke-width="3" points="44.7,-44.7 44.7,-360.5 318.83,-360.5 318.83,-44.7 44.7,-44.7"/>
</g>
</g>
</svg>
