<?xml version="1.0" encoding="UTF-8" standalone="no"?>
<!DOCTYPE svg PUBLIC "-//W3C//DTD SVG 1.1//EN"
 "http://www.w3.org/Graphics/SVG/1.1/DTD/svg11.dtd">
<!-- Generated by graphviz version 12.1.2 (20240928.0832)
 -->
<!-- Title: TBL_LimitMaterialDetail Pages: 1 -->
<svg width="431pt" height="444pt"
 viewBox="0.00 0.00 431.50 444.00" xmlns="http://www.w3.org/2000/svg" xmlns:xlink="http://www.w3.org/1999/xlink">
<g id="graph0" class="graph" transform="scale(1 1) rotate(0) translate(4 440)">
<title>TBL_LimitMaterialDetail</title>
<polygon fill="white" stroke="none" points="-4,4 -4,-440 427.5,-440 427.5,4 -4,4"/>
<!-- TBL_LimitMaterialDetail -->
<g id="node1" class="node">
<title>TBL_LimitMaterialDetail</title>
<polygon fill="#efefef" stroke="none" points="46.2,-354.2 46.2,-389.8 377.3,-389.8 377.3,-354.2 46.2,-354.2"/>
<polygon fill="none" stroke="black" points="46.2,-354.2 46.2,-389.8 377.3,-389.8 377.3,-354.2 46.2,-354.2"/>
<text text-anchor="start" x="53.2" y="-367.6" font-family="Arial Bold" font-size="18.00">TBL_LimitMaterialDetail</text>
<text text-anchor="start" x="241.15" y="-367.6" font-family="Arial" font-size="14.00">    </text>
<text text-anchor="start" x="272.26" y="-367.6" font-family="Arial" font-size="14.00" fill="#666666">[BASIC TABLE]</text>
<polygon fill="none" stroke="black" points="46.2,-323.4 46.2,-354.2 377.3,-354.2 377.3,-323.4 46.2,-323.4"/>
<text text-anchor="start" x="53.2" y="-335.6" font-family="Arial" font-size="14.00">Id </text>
<text text-anchor="start" x="68.77" y="-335.6" font-family="Arial" font-size="14.00" fill="#666666">[bigint]</text>
<polygon fill="none" stroke="black" points="46.2,-292.6 46.2,-323.4 377.3,-323.4 377.3,-292.6 46.2,-292.6"/>
<text text-anchor="start" x="53.2" y="-304.8" font-family="Arial" font-size="14.00">NGroupCode </text>
<text text-anchor="start" x="139.58" y="-304.8" font-family="Arial" font-size="14.00" fill="#666666">[int]</text>
<polygon fill="none" stroke="black" points="46.2,-261.8 46.2,-292.6 377.3,-292.6 377.3,-261.8 46.2,-261.8"/>
<text text-anchor="start" x="53.2" y="-274" font-family="Arial" font-size="14.00">SSKUCode </text>
<text text-anchor="start" x="128.68" y="-274" font-family="Arial" font-size="14.00" fill="#666666">[nvarchar(100)]</text>
<polygon fill="none" stroke="black" points="46.2,-231 46.2,-261.8 377.3,-261.8 377.3,-231 46.2,-231"/>
<text text-anchor="start" x="53.2" y="-243.2" font-family="Arial" font-size="14.00">NTypeCommercialConditionCode </text>
<text text-anchor="start" x="265.62" y="-243.2" font-family="Arial" font-size="14.00" fill="#666666">[int]</text>
<polygon fill="none" stroke="black" points="46.2,-200.2 46.2,-231 377.3,-231 377.3,-200.2 46.2,-200.2"/>
<text text-anchor="start" x="53.2" y="-212.4" font-family="Arial" font-size="14.00">NValue </text>
<text text-anchor="start" x="103.01" y="-212.4" font-family="Arial" font-size="14.00" fill="#666666">[decimal]</text>
<polygon fill="none" stroke="black" points="46.2,-169.4 46.2,-200.2 377.3,-200.2 377.3,-169.4 46.2,-169.4"/>
<text text-anchor="start" x="53.2" y="-181.6" font-family="Arial" font-size="14.00">DCreationDate </text>
<text text-anchor="start" x="149.69" y="-181.6" font-family="Arial" font-size="14.00" fill="#666666">[datetime]</text>
<polygon fill="none" stroke="black" points="46.2,-138.6 46.2,-169.4 377.3,-169.4 377.3,-138.6 46.2,-138.6"/>
<text text-anchor="start" x="53.2" y="-150.8" font-family="Arial" font-size="14.00">SCreationUser </text>
<text text-anchor="start" x="148.9" y="-150.8" font-family="Arial" font-size="14.00" fill="#666666">[varchar(300)]</text>
<polygon fill="none" stroke="black" points="46.2,-107.8 46.2,-138.6 377.3,-138.6 377.3,-107.8 46.2,-107.8"/>
<text text-anchor="start" x="53.2" y="-120" font-family="Arial" font-size="14.00">DModificationDate </text>
<text text-anchor="start" x="171.48" y="-120" font-family="Arial" font-size="14.00" fill="#666666">[datetime]</text>
<polygon fill="none" stroke="black" points="46.2,-77 46.2,-107.8 377.3,-107.8 377.3,-77 46.2,-77"/>
<text text-anchor="start" x="53.2" y="-89.2" font-family="Arial" font-size="14.00">SModificationUser </text>
<text text-anchor="start" x="170.69" y="-89.2" font-family="Arial" font-size="14.00" fill="#666666">[varchar(300)]</text>
<polygon fill="none" stroke="black" points="46.2,-46.2 46.2,-77 377.3,-77 377.3,-46.2 46.2,-46.2"/>
<text text-anchor="start" x="53.2" y="-58.4" font-family="Arial" font-size="14.00">BDeleted </text>
<text text-anchor="start" x="114.68" y="-58.4" font-family="Arial" font-size="14.00" fill="#666666">[bit]</text>
<polygon fill="none" stroke="black" stroke-width="3" points="44.7,-44.7 44.7,-391.3 378.8,-391.3 378.8,-44.7 44.7,-44.7"/>
</g>
</g>
</svg>
