<?xml version="1.0" encoding="UTF-8" standalone="no"?>
<!DOCTYPE svg PUBLIC "-//W3C//DTD SVG 1.1//EN"
 "http://www.w3.org/Graphics/SVG/1.1/DTD/svg11.dtd">
<!-- Generated by graphviz version 12.1.2 (20240928.0832)
 -->
<!-- Title: TBL_MacrosegmentTypologyCommercialCondition Pages: 1 -->
<svg width="1200pt" height="633pt"
 viewBox="0.00 0.00 1199.52 632.80" xmlns="http://www.w3.org/2000/svg" xmlns:xlink="http://www.w3.org/1999/xlink">
<g id="graph0" class="graph" transform="scale(1 1) rotate(0) translate(4 628.8)">
<title>TBL_MacrosegmentTypologyCommercialCondition</title>
<polygon fill="white" stroke="none" points="-4,4 -4,-628.8 1195.52,-628.8 1195.52,4 -4,4"/>
<!-- TBL_MacrosegmentTypologyCommercialCondition -->
<g id="node1" class="node">
<title>TBL_MacrosegmentTypologyCommercialCondition</title>
<polygon fill="#efefef" stroke="none" points="306.71,-543 306.71,-578.6 830.8,-578.6 830.8,-543 306.71,-543"/>
<polygon fill="none" stroke="black" points="306.71,-543 306.71,-578.6 830.8,-578.6 830.8,-543 306.71,-543"/>
<text text-anchor="start" x="313.71" y="-556.4" font-family="Arial Bold" font-size="18.00">TBL_MacrosegmentTypologyCommercialCondition</text>
<text text-anchor="start" x="694.65" y="-556.4" font-family="Arial" font-size="14.00">    </text>
<text text-anchor="start" x="725.76" y="-556.4" font-family="Arial" font-size="14.00" fill="#666666">[BASIC TABLE]</text>
<polygon fill="none" stroke="black" points="306.71,-512.2 306.71,-543 830.8,-543 830.8,-512.2 306.71,-512.2"/>
<text text-anchor="start" x="313.71" y="-524.4" font-family="Arial" font-size="14.00">SMacrosegmentCode </text>
<text text-anchor="start" x="453" y="-524.4" font-family="Arial" font-size="14.00" fill="#666666">[varchar(3)]</text>
<polygon fill="none" stroke="black" points="306.71,-481.4 306.71,-512.2 830.8,-512.2 830.8,-481.4 306.71,-481.4"/>
<text text-anchor="start" x="313.71" y="-493.6" font-family="Arial" font-size="14.00">STypologyCode </text>
<text text-anchor="start" x="417.21" y="-493.6" font-family="Arial" font-size="14.00" fill="#666666">[varchar(3)]</text>
<polygon fill="none" stroke="black" points="306.71,-450.6 306.71,-481.4 830.8,-481.4 830.8,-450.6 306.71,-450.6"/>
<text text-anchor="start" x="313.71" y="-462.8" font-family="Arial" font-size="14.00">SCommercialConditionCode </text>
<text text-anchor="start" x="494.24" y="-462.8" font-family="Arial" font-size="14.00" fill="#666666">[varchar(20)]</text>
<polygon fill="none" stroke="black" stroke-width="3" points="305.21,-449.1 305.21,-580.1 832.3,-580.1 832.3,-449.1 305.21,-449.1"/>
</g>
<!-- TBL_Macrosegment -->
<g id="node2" class="node">
<title>TBL_Macrosegment</title>
<polygon fill="#efefef" stroke="none" points="43.2,-289.6 43.2,-325.2 336.31,-325.2 336.31,-289.6 43.2,-289.6"/>
<polygon fill="none" stroke="black" points="43.2,-289.6 43.2,-325.2 336.31,-325.2 336.31,-289.6 43.2,-289.6"/>
<text text-anchor="start" x="50.2" y="-303" font-family="Arial Bold" font-size="18.00">TBL_Macrosegment</text>
<text text-anchor="start" x="200.16" y="-303" font-family="Arial" font-size="14.00">    </text>
<text text-anchor="start" x="231.28" y="-303" font-family="Arial" font-size="14.00" fill="#666666">[BASIC TABLE]</text>
<polygon fill="none" stroke="black" points="43.2,-258.8 43.2,-289.6 336.31,-289.6 336.31,-258.8 43.2,-258.8"/>
<text text-anchor="start" x="50.2" y="-271" font-family="Arial" font-size="14.00">SCode </text>
<text text-anchor="start" x="96.9" y="-271" font-family="Arial" font-size="14.00" fill="#666666">[varchar(3)]</text>
<polygon fill="none" stroke="black" points="43.2,-228 43.2,-258.8 336.31,-258.8 336.31,-228 43.2,-228"/>
<text text-anchor="start" x="50.2" y="-240.2" font-family="Arial" font-size="14.00">SDescription </text>
<text text-anchor="start" x="133.45" y="-240.2" font-family="Arial" font-size="14.00" fill="#666666">[nvarchar(200)]</text>
<polygon fill="none" stroke="black" points="43.2,-197.2 43.2,-228 336.31,-228 336.31,-197.2 43.2,-197.2"/>
<text text-anchor="start" x="50.2" y="-209.4" font-family="Arial" font-size="14.00">DCreationDate </text>
<text text-anchor="start" x="146.69" y="-209.4" font-family="Arial" font-size="14.00" fill="#666666">[datetime]</text>
<polygon fill="none" stroke="black" points="43.2,-166.4 43.2,-197.2 336.31,-197.2 336.31,-166.4 43.2,-166.4"/>
<text text-anchor="start" x="50.2" y="-178.6" font-family="Arial" font-size="14.00">SCreationUser </text>
<text text-anchor="start" x="145.9" y="-178.6" font-family="Arial" font-size="14.00" fill="#666666">[varchar(300)]</text>
<polygon fill="none" stroke="black" points="43.2,-135.6 43.2,-166.4 336.31,-166.4 336.31,-135.6 43.2,-135.6"/>
<text text-anchor="start" x="50.2" y="-147.8" font-family="Arial" font-size="14.00">DModificationDate </text>
<text text-anchor="start" x="168.48" y="-147.8" font-family="Arial" font-size="14.00" fill="#666666">[datetime]</text>
<polygon fill="none" stroke="black" points="43.2,-104.8 43.2,-135.6 336.31,-135.6 336.31,-104.8 43.2,-104.8"/>
<text text-anchor="start" x="50.2" y="-117" font-family="Arial" font-size="14.00">SModificationUser </text>
<text text-anchor="start" x="167.69" y="-117" font-family="Arial" font-size="14.00" fill="#666666">[varchar(300)]</text>
<polygon fill="none" stroke="black" points="43.2,-74 43.2,-104.8 336.31,-104.8 336.31,-74 43.2,-74"/>
<text text-anchor="start" x="50.2" y="-86.2" font-family="Arial" font-size="14.00">BDeleted </text>
<text text-anchor="start" x="111.68" y="-86.2" font-family="Arial" font-size="14.00" fill="#666666">[bit]</text>
<polygon fill="none" stroke="black" points="43.2,-43.2 43.2,-74 336.31,-74 336.31,-43.2 43.2,-43.2"/>
<text text-anchor="start" x="50.2" y="-55.4" font-family="Arial" font-size="14.00">BIsActive </text>
<text text-anchor="start" x="112.44" y="-55.4" font-family="Arial" font-size="14.00" fill="#666666">[bit]</text>
</g>
<!-- TBL_MacrosegmentTypologyCommercialCondition&#45;&gt;TBL_Macrosegment -->
<g id="edge1" class="edge">
<title>TBL_MacrosegmentTypologyCommercialCondition:SMacrosegmentCode&#45;&gt;TBL_Macrosegment:SCode</title>
<path fill="none" stroke="black" d="M295.49,-526.57C256.08,-517.61 289.35,-452.25 306.71,-404.4 313.78,-384.93 329.22,-387.86 336.31,-368.4 350.64,-329.06 379.18,-274.2 337.31,-274.2"/>
<polygon fill="black" stroke="black" points="295.43,-526.56 304.93,-532.04 300.74,-527.1 305.05,-527.53 305.05,-527.53 305.05,-527.53 300.74,-527.1 305.83,-523.09 295.43,-526.56"/>
</g>
<!-- TBL_Typology -->
<g id="node3" class="node">
<title>TBL_Typology</title>
<polygon fill="#efefef" stroke="none" points="440.68,-289.6 440.68,-325.2 696.83,-325.2 696.83,-289.6 440.68,-289.6"/>
<polygon fill="none" stroke="black" points="440.68,-289.6 440.68,-325.2 696.83,-325.2 696.83,-289.6 440.68,-289.6"/>
<text text-anchor="start" x="447.68" y="-303" font-family="Arial Bold" font-size="18.00">TBL_Typology</text>
<text text-anchor="start" x="560.68" y="-303" font-family="Arial" font-size="14.00">    </text>
<text text-anchor="start" x="591.79" y="-303" font-family="Arial" font-size="14.00" fill="#666666">[BASIC TABLE]</text>
<polygon fill="none" stroke="black" points="440.68,-258.8 440.68,-289.6 696.83,-289.6 696.83,-258.8 440.68,-258.8"/>
<text text-anchor="start" x="447.68" y="-271" font-family="Arial" font-size="14.00">SCode </text>
<text text-anchor="start" x="494.38" y="-271" font-family="Arial" font-size="14.00" fill="#666666">[varchar(3)]</text>
<polygon fill="none" stroke="black" points="440.68,-228 440.68,-258.8 696.83,-258.8 696.83,-228 440.68,-228"/>
<text text-anchor="start" x="447.68" y="-240.2" font-family="Arial" font-size="14.00">SDescription </text>
<text text-anchor="start" x="530.94" y="-240.2" font-family="Arial" font-size="14.00" fill="#666666">[nvarchar(200)]</text>
<polygon fill="none" stroke="black" points="440.68,-197.2 440.68,-228 696.83,-228 696.83,-197.2 440.68,-197.2"/>
<text text-anchor="start" x="447.68" y="-209.4" font-family="Arial" font-size="14.00">DCreationDate </text>
<text text-anchor="start" x="544.17" y="-209.4" font-family="Arial" font-size="14.00" fill="#666666">[datetime]</text>
<polygon fill="none" stroke="black" points="440.68,-166.4 440.68,-197.2 696.83,-197.2 696.83,-166.4 440.68,-166.4"/>
<text text-anchor="start" x="447.68" y="-178.6" font-family="Arial" font-size="14.00">SCreationUser </text>
<text text-anchor="start" x="543.39" y="-178.6" font-family="Arial" font-size="14.00" fill="#666666">[varchar(300)]</text>
<polygon fill="none" stroke="black" points="440.68,-135.6 440.68,-166.4 696.83,-166.4 696.83,-135.6 440.68,-135.6"/>
<text text-anchor="start" x="447.68" y="-147.8" font-family="Arial" font-size="14.00">DModificationDate </text>
<text text-anchor="start" x="565.96" y="-147.8" font-family="Arial" font-size="14.00" fill="#666666">[datetime]</text>
<polygon fill="none" stroke="black" points="440.68,-104.8 440.68,-135.6 696.83,-135.6 696.83,-104.8 440.68,-104.8"/>
<text text-anchor="start" x="447.68" y="-117" font-family="Arial" font-size="14.00">SModificationUser </text>
<text text-anchor="start" x="565.17" y="-117" font-family="Arial" font-size="14.00" fill="#666666">[varchar(300)]</text>
<polygon fill="none" stroke="black" points="440.68,-74 440.68,-104.8 696.83,-104.8 696.83,-74 440.68,-74"/>
<text text-anchor="start" x="447.68" y="-86.2" font-family="Arial" font-size="14.00">BDeleted </text>
<text text-anchor="start" x="509.17" y="-86.2" font-family="Arial" font-size="14.00" fill="#666666">[bit]</text>
<polygon fill="none" stroke="black" points="440.68,-43.2 440.68,-74 696.83,-74 696.83,-43.2 440.68,-43.2"/>
<text text-anchor="start" x="447.68" y="-55.4" font-family="Arial" font-size="14.00">BIsActive </text>
<text text-anchor="start" x="509.92" y="-55.4" font-family="Arial" font-size="14.00" fill="#666666">[bit]</text>
</g>
<!-- TBL_MacrosegmentTypologyCommercialCondition&#45;&gt;TBL_Typology -->
<g id="edge2" class="edge">
<title>TBL_MacrosegmentTypologyCommercialCondition:STypologyCode&#45;&gt;TBL_Typology:SCode</title>
<path fill="none" stroke="black" d="M841.8,-495.33C869.2,-486.11 851.32,-435.45 830.8,-404.4 808.84,-371.18 778.04,-395.38 748.76,-368.4 713.75,-336.16 745.42,-274.2 697.83,-274.2"/>
<polygon fill="black" stroke="black" points="842.02,-495.3 831.48,-492.3 836.75,-496.08 832.46,-496.7 832.46,-496.7 832.46,-496.7 836.75,-496.08 832.78,-501.2 842.02,-495.3"/>
</g>
<!-- TBL_CommercialCondition -->
<g id="node4" class="node">
<title>TBL_CommercialCondition</title>
<polygon fill="#efefef" stroke="none" points="801.19,-274.2 801.19,-309.8 1148.32,-309.8 1148.32,-274.2 801.19,-274.2"/>
<polygon fill="none" stroke="black" points="801.19,-274.2 801.19,-309.8 1148.32,-309.8 1148.32,-274.2 801.19,-274.2"/>
<text text-anchor="start" x="808.19" y="-287.6" font-family="Arial Bold" font-size="18.00">TBL_CommercialCondition</text>
<text text-anchor="start" x="1012.17" y="-287.6" font-family="Arial" font-size="14.00">    </text>
<text text-anchor="start" x="1043.28" y="-287.6" font-family="Arial" font-size="14.00" fill="#666666">[BASIC TABLE]</text>
<polygon fill="none" stroke="black" points="801.19,-243.4 801.19,-274.2 1148.32,-274.2 1148.32,-243.4 801.19,-243.4"/>
<text text-anchor="start" x="808.19" y="-255.6" font-family="Arial" font-size="14.00">SCode </text>
<text text-anchor="start" x="854.89" y="-255.6" font-family="Arial" font-size="14.00" fill="#666666">[varchar(20)]</text>
<polygon fill="none" stroke="black" points="801.19,-212.6 801.19,-243.4 1148.32,-243.4 1148.32,-212.6 801.19,-212.6"/>
<text text-anchor="start" x="808.19" y="-224.8" font-family="Arial" font-size="14.00">SDescription </text>
<text text-anchor="start" x="891.45" y="-224.8" font-family="Arial" font-size="14.00" fill="#666666">[varchar(300)]</text>
<polygon fill="none" stroke="black" points="801.19,-181.8 801.19,-212.6 1148.32,-212.6 1148.32,-181.8 801.19,-181.8"/>
<text text-anchor="start" x="808.19" y="-194" font-family="Arial" font-size="14.00">DCreationDate </text>
<text text-anchor="start" x="904.68" y="-194" font-family="Arial" font-size="14.00" fill="#666666">[datetime]</text>
<polygon fill="none" stroke="black" points="801.19,-151 801.19,-181.8 1148.32,-181.8 1148.32,-151 801.19,-151"/>
<text text-anchor="start" x="808.19" y="-163.2" font-family="Arial" font-size="14.00">SCreationUser </text>
<text text-anchor="start" x="903.89" y="-163.2" font-family="Arial" font-size="14.00" fill="#666666">[varchar(300)]</text>
<polygon fill="none" stroke="black" points="801.19,-120.2 801.19,-151 1148.32,-151 1148.32,-120.2 801.19,-120.2"/>
<text text-anchor="start" x="808.19" y="-132.4" font-family="Arial" font-size="14.00">DModificationDate </text>
<text text-anchor="start" x="926.47" y="-132.4" font-family="Arial" font-size="14.00" fill="#666666">[datetime]</text>
<polygon fill="none" stroke="black" points="801.19,-89.4 801.19,-120.2 1148.32,-120.2 1148.32,-89.4 801.19,-89.4"/>
<text text-anchor="start" x="808.19" y="-101.6" font-family="Arial" font-size="14.00">SModificationUser </text>
<text text-anchor="start" x="925.68" y="-101.6" font-family="Arial" font-size="14.00" fill="#666666">[varchar(300)]</text>
<polygon fill="none" stroke="black" points="801.19,-58.6 801.19,-89.4 1148.32,-89.4 1148.32,-58.6 801.19,-58.6"/>
<text text-anchor="start" x="808.19" y="-70.8" font-family="Arial" font-size="14.00">BDeleted </text>
<text text-anchor="start" x="869.67" y="-70.8" font-family="Arial" font-size="14.00" fill="#666666">[bit]</text>
</g>
<!-- TBL_MacrosegmentTypologyCommercialCondition&#45;&gt;TBL_CommercialCondition -->
<g id="edge3" class="edge">
<title>TBL_MacrosegmentTypologyCommercialCondition:SCommercialConditionCode&#45;&gt;TBL_CommercialCondition:SCode</title>
<path fill="none" stroke="black" d="M841.64,-463.35C852.63,-454.69 836.89,-426.46 830.8,-404.4 823.78,-378.99 808.14,-378.43 801.19,-353 790.16,-312.61 758.32,-258.8 800.19,-258.8"/>
<polygon fill="black" stroke="black" points="841.78,-463.31 830.95,-461.57 836.63,-464.7 832.44,-465.83 832.44,-465.83 832.44,-465.83 836.63,-464.7 833.29,-470.26 841.78,-463.31"/>
</g>
</g>
</svg>
