<?xml version="1.0" encoding="UTF-8" standalone="no"?>
<!DOCTYPE svg PUBLIC "-//W3C//DTD SVG 1.1//EN"
 "http://www.w3.org/Graphics/SVG/1.1/DTD/svg11.dtd">
<!-- Generated by graphviz version 12.1.2 (20240928.0832)
 -->
<!-- Title: TBL_Level Pages: 1 -->
<svg width="458pt" height="879pt"
 viewBox="0.00 0.00 458.21 879.20" xmlns="http://www.w3.org/2000/svg" xmlns:xlink="http://www.w3.org/1999/xlink">
<g id="graph0" class="graph" transform="scale(1 1) rotate(0) translate(4 875.2)">
<title>TBL_Level</title>
<polygon fill="white" stroke="none" points="-4,4 -4,-875.2 454.21,-875.2 454.21,4 -4,4"/>
<!-- TBL_Level -->
<g id="node1" class="node">
<title>TBL_Level</title>
<polygon fill="#efefef" stroke="none" points="105.19,-261.8 105.19,-297.4 332.31,-297.4 332.31,-261.8 105.19,-261.8"/>
<polygon fill="none" stroke="black" points="105.19,-261.8 105.19,-297.4 332.31,-297.4 332.31,-261.8 105.19,-261.8"/>
<text text-anchor="start" x="112.19" y="-275.2" font-family="Arial Bold" font-size="18.00">TBL_Level</text>
<text text-anchor="start" x="196.16" y="-275.2" font-family="Arial" font-size="14.00">    </text>
<text text-anchor="start" x="227.28" y="-275.2" font-family="Arial" font-size="14.00" fill="#666666">[BASIC TABLE]</text>
<polygon fill="none" stroke="black" points="105.19,-231 105.19,-261.8 332.31,-261.8 332.31,-231 105.19,-231"/>
<text text-anchor="start" x="112.19" y="-243.2" font-family="Arial" font-size="14.00">Id </text>
<text text-anchor="start" x="127.75" y="-243.2" font-family="Arial" font-size="14.00" fill="#666666">[int]</text>
<polygon fill="none" stroke="black" points="105.19,-200.2 105.19,-231 332.31,-231 332.31,-200.2 105.19,-200.2"/>
<text text-anchor="start" x="112.19" y="-212.4" font-family="Arial" font-size="14.00">SDescription </text>
<text text-anchor="start" x="195.44" y="-212.4" font-family="Arial" font-size="14.00" fill="#666666">[nvarchar(500)]</text>
<polygon fill="none" stroke="black" points="105.19,-169.4 105.19,-200.2 332.31,-200.2 332.31,-169.4 105.19,-169.4"/>
<text text-anchor="start" x="112.19" y="-181.6" font-family="Arial" font-size="14.00">DCreationDate </text>
<text text-anchor="start" x="208.68" y="-181.6" font-family="Arial" font-size="14.00" fill="#666666">[datetime]</text>
<polygon fill="none" stroke="black" points="105.19,-138.6 105.19,-169.4 332.31,-169.4 332.31,-138.6 105.19,-138.6"/>
<text text-anchor="start" x="112.19" y="-150.8" font-family="Arial" font-size="14.00">SCreationUser </text>
<text text-anchor="start" x="207.89" y="-150.8" font-family="Arial" font-size="14.00" fill="#666666">[varchar(300)]</text>
<polygon fill="none" stroke="black" points="105.19,-107.8 105.19,-138.6 332.31,-138.6 332.31,-107.8 105.19,-107.8"/>
<text text-anchor="start" x="112.19" y="-120" font-family="Arial" font-size="14.00">DModificationDate </text>
<text text-anchor="start" x="230.46" y="-120" font-family="Arial" font-size="14.00" fill="#666666">[datetime]</text>
<polygon fill="none" stroke="black" points="105.19,-77 105.19,-107.8 332.31,-107.8 332.31,-77 105.19,-77"/>
<text text-anchor="start" x="112.19" y="-89.2" font-family="Arial" font-size="14.00">SModificationUser </text>
<text text-anchor="start" x="229.68" y="-89.2" font-family="Arial" font-size="14.00" fill="#666666">[varchar(300)]</text>
<polygon fill="none" stroke="black" points="105.19,-46.2 105.19,-77 332.31,-77 332.31,-46.2 105.19,-46.2"/>
<text text-anchor="start" x="112.19" y="-58.4" font-family="Arial" font-size="14.00">BDeleted </text>
<text text-anchor="start" x="173.67" y="-58.4" font-family="Arial" font-size="14.00" fill="#666666">[bit]</text>
<polygon fill="none" stroke="black" stroke-width="3" points="103.69,-44.7 103.69,-298.9 333.81,-298.9 333.81,-44.7 103.69,-44.7"/>
</g>
<!-- TBL_ApprovalRangeDetails -->
<g id="node2" class="node">
<title>TBL_ApprovalRangeDetails</title>
<polygon fill="#efefef" stroke="none" points="43.2,-792.4 43.2,-828 394.3,-828 394.3,-792.4 43.2,-792.4"/>
<polygon fill="none" stroke="black" points="43.2,-792.4 43.2,-828 394.3,-828 394.3,-792.4 43.2,-792.4"/>
<text text-anchor="start" x="50.2" y="-805.8" font-family="Arial Bold" font-size="18.00">TBL_ApprovalRangeDetails</text>
<text text-anchor="start" x="258.15" y="-805.8" font-family="Arial" font-size="14.00">    </text>
<text text-anchor="start" x="289.27" y="-805.8" font-family="Arial" font-size="14.00" fill="#666666">[BASIC TABLE]</text>
<polygon fill="none" stroke="black" points="43.2,-761.6 43.2,-792.4 394.3,-792.4 394.3,-761.6 43.2,-761.6"/>
<text text-anchor="start" x="50.2" y="-773.8" font-family="Arial" font-size="14.00">Id </text>
<text text-anchor="start" x="65.77" y="-773.8" font-family="Arial" font-size="14.00" fill="#666666">[int]</text>
<polygon fill="none" stroke="black" points="43.2,-730.8 43.2,-761.6 394.3,-761.6 394.3,-730.8 43.2,-730.8"/>
<text text-anchor="start" x="50.2" y="-743" font-family="Arial" font-size="14.00">NApprovalRangeCode </text>
<text text-anchor="start" x="194.18" y="-743" font-family="Arial" font-size="14.00" fill="#666666">[int]</text>
<polygon fill="none" stroke="black" points="43.2,-700 43.2,-730.8 394.3,-730.8 394.3,-700 43.2,-700"/>
<text text-anchor="start" x="50.2" y="-712.2" font-family="Arial" font-size="14.00">NLevelCode </text>
<text text-anchor="start" x="131.14" y="-712.2" font-family="Arial" font-size="14.00" fill="#666666">[int]</text>
<polygon fill="none" stroke="black" points="43.2,-669.2 43.2,-700 394.3,-700 394.3,-669.2 43.2,-669.2"/>
<text text-anchor="start" x="50.2" y="-681.4" font-family="Arial" font-size="14.00">NInitialEffectiveContributionRange </text>
<text text-anchor="start" x="267.32" y="-681.4" font-family="Arial" font-size="14.00" fill="#666666">[decimal]</text>
<polygon fill="none" stroke="black" points="43.2,-638.4 43.2,-669.2 394.3,-669.2 394.3,-638.4 43.2,-638.4"/>
<text text-anchor="start" x="50.2" y="-650.6" font-family="Arial" font-size="14.00">NFinalEffectiveContributionRange </text>
<text text-anchor="start" x="264.98" y="-650.6" font-family="Arial" font-size="14.00" fill="#666666">[decimal]</text>
<polygon fill="none" stroke="black" points="43.2,-607.6 43.2,-638.4 394.3,-638.4 394.3,-607.6 43.2,-607.6"/>
<text text-anchor="start" x="50.2" y="-619.8" font-family="Arial" font-size="14.00">NInitialRangePercentageInvestment </text>
<text text-anchor="start" x="278.22" y="-619.8" font-family="Arial" font-size="14.00" fill="#666666">[numeric]</text>
<polygon fill="none" stroke="black" points="43.2,-576.8 43.2,-607.6 394.3,-607.6 394.3,-576.8 43.2,-576.8"/>
<text text-anchor="start" x="50.2" y="-589" font-family="Arial" font-size="14.00">NFinalRangePercentageInvestment </text>
<text text-anchor="start" x="275.88" y="-589" font-family="Arial" font-size="14.00" fill="#666666">[numeric]</text>
<polygon fill="none" stroke="black" points="43.2,-546 43.2,-576.8 394.3,-576.8 394.3,-546 43.2,-546"/>
<text text-anchor="start" x="50.2" y="-558.2" font-family="Arial" font-size="14.00">DCreationDate </text>
<text text-anchor="start" x="146.69" y="-558.2" font-family="Arial" font-size="14.00" fill="#666666">[datetime]</text>
<polygon fill="none" stroke="black" points="43.2,-515.2 43.2,-546 394.3,-546 394.3,-515.2 43.2,-515.2"/>
<text text-anchor="start" x="50.2" y="-527.4" font-family="Arial" font-size="14.00">SCreationUser </text>
<text text-anchor="start" x="145.9" y="-527.4" font-family="Arial" font-size="14.00" fill="#666666">[varchar(300)]</text>
<polygon fill="none" stroke="black" points="43.2,-484.4 43.2,-515.2 394.3,-515.2 394.3,-484.4 43.2,-484.4"/>
<text text-anchor="start" x="50.2" y="-496.6" font-family="Arial" font-size="14.00">DModificationDate </text>
<text text-anchor="start" x="168.48" y="-496.6" font-family="Arial" font-size="14.00" fill="#666666">[datetime]</text>
<polygon fill="none" stroke="black" points="43.2,-453.6 43.2,-484.4 394.3,-484.4 394.3,-453.6 43.2,-453.6"/>
<text text-anchor="start" x="50.2" y="-465.8" font-family="Arial" font-size="14.00">SModificationUser </text>
<text text-anchor="start" x="167.69" y="-465.8" font-family="Arial" font-size="14.00" fill="#666666">[varchar(300)]</text>
<polygon fill="none" stroke="black" points="43.2,-422.8 43.2,-453.6 394.3,-453.6 394.3,-422.8 43.2,-422.8"/>
<text text-anchor="start" x="50.2" y="-435" font-family="Arial" font-size="14.00">BDeleted </text>
<text text-anchor="start" x="111.68" y="-435" font-family="Arial" font-size="14.00" fill="#666666">[bit]</text>
</g>
<!-- TBL_ApprovalRangeDetails&#45;&gt;TBL_Level -->
<g id="edge1" class="edge">
<title>TBL_ApprovalRangeDetails:NLevelCode&#45;&gt;TBL_Level:Id</title>
<path fill="none" stroke="black" d="M405.5,-713.79C496.14,-683.89 434.85,-246.4 333.31,-246.4"/>
<polygon fill="black" stroke="black" points="405.51,-713.79 394.93,-710.9 400.24,-714.62 395.96,-715.3 395.96,-715.3 395.96,-715.3 400.24,-714.62 396.33,-719.79 405.51,-713.79"/>
</g>
</g>
</svg>
