<?xml version="1.0" encoding="UTF-8" standalone="no"?>
<!DOCTYPE svg PUBLIC "-//W3C//DTD SVG 1.1//EN"
 "http://www.w3.org/Graphics/SVG/1.1/DTD/svg11.dtd">
<!-- Generated by graphviz version 12.1.2 (20240928.0832)
 -->
<!-- Title: TBL_NegotiationTypeApprovalRange Pages: 1 -->
<svg width="522pt" height="756pt"
 viewBox="0.00 0.00 522.48 756.00" xmlns="http://www.w3.org/2000/svg" xmlns:xlink="http://www.w3.org/1999/xlink">
<g id="graph0" class="graph" transform="scale(1 1) rotate(0) translate(4 752)">
<title>TBL_NegotiationTypeApprovalRange</title>
<polygon fill="white" stroke="none" points="-4,4 -4,-752 518.48,-752 518.48,4 -4,4"/>
<!-- TBL_NegotiationTypeApprovalRange -->
<g id="node1" class="node">
<title>TBL_NegotiationTypeApprovalRange</title>
<polygon fill="#efefef" stroke="none" points="46.2,-666.2 46.2,-701.8 468.28,-701.8 468.28,-666.2 46.2,-666.2"/>
<polygon fill="none" stroke="black" points="46.2,-666.2 46.2,-701.8 468.28,-701.8 468.28,-666.2 46.2,-666.2"/>
<text text-anchor="start" x="53.2" y="-679.6" font-family="Arial Bold" font-size="18.00">TBL_NegotiationTypeApprovalRange</text>
<text text-anchor="start" x="332.13" y="-679.6" font-family="Arial" font-size="14.00">    </text>
<text text-anchor="start" x="363.25" y="-679.6" font-family="Arial" font-size="14.00" fill="#666666">[BASIC TABLE]</text>
<polygon fill="none" stroke="black" points="46.2,-635.4 46.2,-666.2 468.28,-666.2 468.28,-635.4 46.2,-635.4"/>
<text text-anchor="start" x="53.2" y="-647.6" font-family="Arial" font-size="14.00">Id </text>
<text text-anchor="start" x="68.77" y="-647.6" font-family="Arial" font-size="14.00" fill="#666666">[int]</text>
<polygon fill="none" stroke="black" points="46.2,-604.6 46.2,-635.4 468.28,-635.4 468.28,-604.6 46.2,-604.6"/>
<text text-anchor="start" x="53.2" y="-616.8" font-family="Arial" font-size="14.00">NApprovalRangeCode </text>
<text text-anchor="start" x="197.18" y="-616.8" font-family="Arial" font-size="14.00" fill="#666666">[int]</text>
<polygon fill="none" stroke="black" points="46.2,-573.8 46.2,-604.6 468.28,-604.6 468.28,-573.8 46.2,-573.8"/>
<text text-anchor="start" x="53.2" y="-586" font-family="Arial" font-size="14.00">NNegotiationTypeCode </text>
<text text-anchor="start" x="202.62" y="-586" font-family="Arial" font-size="14.00" fill="#666666">[int]</text>
<polygon fill="none" stroke="black" points="46.2,-543 46.2,-573.8 468.28,-573.8 468.28,-543 46.2,-543"/>
<text text-anchor="start" x="53.2" y="-555.2" font-family="Arial" font-size="14.00">DCreationDate </text>
<text text-anchor="start" x="149.69" y="-555.2" font-family="Arial" font-size="14.00" fill="#666666">[datetime]</text>
<polygon fill="none" stroke="black" points="46.2,-512.2 46.2,-543 468.28,-543 468.28,-512.2 46.2,-512.2"/>
<text text-anchor="start" x="53.2" y="-524.4" font-family="Arial" font-size="14.00">SCreationUser </text>
<text text-anchor="start" x="148.9" y="-524.4" font-family="Arial" font-size="14.00" fill="#666666">[varchar(300)]</text>
<polygon fill="none" stroke="black" points="46.2,-481.4 46.2,-512.2 468.28,-512.2 468.28,-481.4 46.2,-481.4"/>
<text text-anchor="start" x="53.2" y="-493.6" font-family="Arial" font-size="14.00">DModificationDate </text>
<text text-anchor="start" x="171.48" y="-493.6" font-family="Arial" font-size="14.00" fill="#666666">[datetime]</text>
<polygon fill="none" stroke="black" points="46.2,-450.6 46.2,-481.4 468.28,-481.4 468.28,-450.6 46.2,-450.6"/>
<text text-anchor="start" x="53.2" y="-462.8" font-family="Arial" font-size="14.00">SModificationUser </text>
<text text-anchor="start" x="170.69" y="-462.8" font-family="Arial" font-size="14.00" fill="#666666">[varchar(300)]</text>
<polygon fill="none" stroke="black" points="46.2,-419.8 46.2,-450.6 468.28,-450.6 468.28,-419.8 46.2,-419.8"/>
<text text-anchor="start" x="53.2" y="-432" font-family="Arial" font-size="14.00">BDeleted </text>
<text text-anchor="start" x="114.68" y="-432" font-family="Arial" font-size="14.00" fill="#666666">[bit]</text>
<polygon fill="none" stroke="black" stroke-width="3" points="44.7,-418.3 44.7,-703.3 469.78,-703.3 469.78,-418.3 44.7,-418.3"/>
</g>
<!-- TBL_ApprovalRange -->
<g id="node2" class="node">
<title>TBL_ApprovalRange</title>
<polygon fill="#efefef" stroke="none" points="107.18,-258.8 107.18,-294.4 407.3,-294.4 407.3,-258.8 107.18,-258.8"/>
<polygon fill="none" stroke="black" points="107.18,-258.8 107.18,-294.4 407.3,-294.4 407.3,-258.8 107.18,-258.8"/>
<text text-anchor="start" x="114.18" y="-272.2" font-family="Arial Bold" font-size="18.00">TBL_ApprovalRange</text>
<text text-anchor="start" x="271.15" y="-272.2" font-family="Arial" font-size="14.00">    </text>
<text text-anchor="start" x="302.26" y="-272.2" font-family="Arial" font-size="14.00" fill="#666666">[BASIC TABLE]</text>
<polygon fill="none" stroke="black" points="107.18,-228 107.18,-258.8 407.3,-258.8 407.3,-228 107.18,-228"/>
<text text-anchor="start" x="114.18" y="-240.2" font-family="Arial" font-size="14.00">Id </text>
<text text-anchor="start" x="129.75" y="-240.2" font-family="Arial" font-size="14.00" fill="#666666">[int]</text>
<polygon fill="none" stroke="black" points="107.18,-197.2 107.18,-228 407.3,-228 407.3,-197.2 107.18,-197.2"/>
<text text-anchor="start" x="114.18" y="-209.4" font-family="Arial" font-size="14.00">NCompanyCode </text>
<text text-anchor="start" x="221.57" y="-209.4" font-family="Arial" font-size="14.00" fill="#666666">[int]</text>
<polygon fill="none" stroke="black" points="107.18,-166.4 107.18,-197.2 407.3,-197.2 407.3,-166.4 107.18,-166.4"/>
<text text-anchor="start" x="114.18" y="-178.6" font-family="Arial" font-size="14.00">DCreationDate </text>
<text text-anchor="start" x="210.67" y="-178.6" font-family="Arial" font-size="14.00" fill="#666666">[datetime]</text>
<polygon fill="none" stroke="black" points="107.18,-135.6 107.18,-166.4 407.3,-166.4 407.3,-135.6 107.18,-135.6"/>
<text text-anchor="start" x="114.18" y="-147.8" font-family="Arial" font-size="14.00">SCreationUser </text>
<text text-anchor="start" x="209.89" y="-147.8" font-family="Arial" font-size="14.00" fill="#666666">[varchar(300)]</text>
<polygon fill="none" stroke="black" points="107.18,-104.8 107.18,-135.6 407.3,-135.6 407.3,-104.8 107.18,-104.8"/>
<text text-anchor="start" x="114.18" y="-117" font-family="Arial" font-size="14.00">DModificationDate </text>
<text text-anchor="start" x="232.46" y="-117" font-family="Arial" font-size="14.00" fill="#666666">[datetime]</text>
<polygon fill="none" stroke="black" points="107.18,-74 107.18,-104.8 407.3,-104.8 407.3,-74 107.18,-74"/>
<text text-anchor="start" x="114.18" y="-86.2" font-family="Arial" font-size="14.00">SModificationUser </text>
<text text-anchor="start" x="231.67" y="-86.2" font-family="Arial" font-size="14.00" fill="#666666">[varchar(300)]</text>
<polygon fill="none" stroke="black" points="107.18,-43.2 107.18,-74 407.3,-74 407.3,-43.2 107.18,-43.2"/>
<text text-anchor="start" x="114.18" y="-55.4" font-family="Arial" font-size="14.00">BDeleted </text>
<text text-anchor="start" x="175.67" y="-55.4" font-family="Arial" font-size="14.00" fill="#666666">[bit]</text>
</g>
<!-- TBL_NegotiationTypeApprovalRange&#45;&gt;TBL_ApprovalRange -->
<g id="edge1" class="edge">
<title>TBL_NegotiationTypeApprovalRange:NApprovalRangeCode&#45;&gt;TBL_ApprovalRange:Id</title>
<path fill="none" stroke="black" d="M479.41,-617.97C548.78,-588.33 489.43,-243.4 408.3,-243.4"/>
<polygon fill="black" stroke="black" points="479.41,-617.97 468.73,-615.52 474.18,-619.02 469.94,-619.87 469.94,-619.87 469.94,-619.87 474.18,-619.02 470.49,-624.35 479.41,-617.97"/>
</g>
</g>
</svg>
