<?xml version="1.0" encoding="UTF-8" standalone="no"?>
<!DOCTYPE svg PUBLIC "-//W3C//DTD SVG 1.1//EN"
 "http://www.w3.org/Graphics/SVG/1.1/DTD/svg11.dtd">
<!-- Generated by graphviz version 12.1.2 (20240928.0832)
 -->
<!-- Title: TBL_RegisterTraceabilityLog Pages: 1 -->
<svg width="462pt" height="352pt"
 viewBox="0.00 0.00 462.48 351.60" xmlns="http://www.w3.org/2000/svg" xmlns:xlink="http://www.w3.org/1999/xlink">
<g id="graph0" class="graph" transform="scale(1 1) rotate(0) translate(4 347.6)">
<title>TBL_RegisterTraceabilityLog</title>
<polygon fill="white" stroke="none" points="-4,4 -4,-347.6 458.48,-347.6 458.48,4 -4,4"/>
<!-- TBL_RegisterTraceabilityLog -->
<g id="node1" class="node">
<title>TBL_RegisterTraceabilityLog</title>
<polygon fill="#efefef" stroke="none" points="46.2,-261.8 46.2,-297.4 408.28,-297.4 408.28,-261.8 46.2,-261.8"/>
<polygon fill="none" stroke="black" points="46.2,-261.8 46.2,-297.4 408.28,-297.4 408.28,-261.8 46.2,-261.8"/>
<text text-anchor="start" x="53.2" y="-275.2" font-family="Arial Bold" font-size="18.00">TBL_RegisterTraceabilityLog</text>
<text text-anchor="start" x="272.13" y="-275.2" font-family="Arial" font-size="14.00">    </text>
<text text-anchor="start" x="303.24" y="-275.2" font-family="Arial" font-size="14.00" fill="#666666">[BASIC TABLE]</text>
<polygon fill="none" stroke="black" points="46.2,-231 46.2,-261.8 408.28,-261.8 408.28,-231 46.2,-231"/>
<text text-anchor="start" x="53.2" y="-243.2" font-family="Arial" font-size="14.00">BCode </text>
<text text-anchor="start" x="99.9" y="-243.2" font-family="Arial" font-size="14.00" fill="#666666">[bigint]</text>
<polygon fill="none" stroke="black" points="46.2,-200.2 46.2,-231 408.28,-231 408.28,-200.2 46.2,-200.2"/>
<text text-anchor="start" x="53.2" y="-212.4" font-family="Arial" font-size="14.00">DDateHourAction </text>
<text text-anchor="start" x="166.03" y="-212.4" font-family="Arial" font-size="14.00" fill="#666666">[datetime]</text>
<polygon fill="none" stroke="black" points="46.2,-169.4 46.2,-200.2 408.28,-200.2 408.28,-169.4 46.2,-169.4"/>
<text text-anchor="start" x="53.2" y="-181.6" font-family="Arial" font-size="14.00">SNameUser </text>
<text text-anchor="start" x="133.33" y="-181.6" font-family="Arial" font-size="14.00" fill="#666666">[varchar(50)]</text>
<polygon fill="none" stroke="black" points="46.2,-138.6 46.2,-169.4 408.28,-169.4 408.28,-138.6 46.2,-138.6"/>
<text text-anchor="start" x="53.2" y="-150.8" font-family="Arial" font-size="14.00">SActionTaken </text>
<text text-anchor="start" x="144.25" y="-150.8" font-family="Arial" font-size="14.00" fill="#666666">[varchar(50)]</text>
<polygon fill="none" stroke="black" points="46.2,-107.8 46.2,-138.6 408.28,-138.6 408.28,-107.8 46.2,-107.8"/>
<text text-anchor="start" x="53.2" y="-120" font-family="Arial" font-size="14.00">SFunctionality </text>
<text text-anchor="start" x="145.02" y="-120" font-family="Arial" font-size="14.00" fill="#666666">[varchar(50)]</text>
<polygon fill="none" stroke="black" points="46.2,-77 46.2,-107.8 408.28,-107.8 408.28,-77 46.2,-77"/>
<text text-anchor="start" x="53.2" y="-89.2" font-family="Arial" font-size="14.00">STable </text>
<text text-anchor="start" x="101.45" y="-89.2" font-family="Arial" font-size="14.00" fill="#666666">[varchar(50)]</text>
<polygon fill="none" stroke="black" points="46.2,-46.2 46.2,-77 408.28,-77 408.28,-46.2 46.2,-46.2"/>
<text text-anchor="start" x="53.2" y="-58.4" font-family="Arial" font-size="14.00">SDetail </text>
<text text-anchor="start" x="102.22" y="-58.4" font-family="Arial" font-size="14.00" fill="#666666">[varchar(300)]</text>
<polygon fill="none" stroke="black" stroke-width="3" points="44.7,-44.7 44.7,-298.9 409.78,-298.9 409.78,-44.7 44.7,-44.7"/>
</g>
</g>
</svg>
