<?xml version="1.0" encoding="UTF-8" standalone="no"?>
<!DOCTYPE svg PUBLIC "-//W3C//DTD SVG 1.1//EN"
 "http://www.w3.org/Graphics/SVG/1.1/DTD/svg11.dtd">
<!-- Generated by graphviz version 12.1.2 (20240928.0832)
 -->
<!-- Title: TBL_LogException Pages: 1 -->
<svg width="389pt" height="567pt"
 viewBox="0.00 0.00 388.52 567.20" xmlns="http://www.w3.org/2000/svg" xmlns:xlink="http://www.w3.org/1999/xlink">
<g id="graph0" class="graph" transform="scale(1 1) rotate(0) translate(4 563.2)">
<title>TBL_LogException</title>
<polygon fill="white" stroke="none" points="-4,4 -4,-563.2 384.52,-563.2 384.52,4 -4,4"/>
<!-- TBL_LogException -->
<g id="node1" class="node">
<title>TBL_LogException</title>
<polygon fill="#efefef" stroke="none" points="46.2,-477.4 46.2,-513 334.32,-513 334.32,-477.4 46.2,-477.4"/>
<polygon fill="none" stroke="black" points="46.2,-477.4 46.2,-513 334.32,-513 334.32,-477.4 46.2,-477.4"/>
<text text-anchor="start" x="53.2" y="-490.8" font-family="Arial Bold" font-size="18.00">TBL_LogException</text>
<text text-anchor="start" x="198.17" y="-490.8" font-family="Arial" font-size="14.00">    </text>
<text text-anchor="start" x="229.28" y="-490.8" font-family="Arial" font-size="14.00" fill="#666666">[BASIC TABLE]</text>
<polygon fill="none" stroke="black" points="46.2,-446.6 46.2,-477.4 334.32,-477.4 334.32,-446.6 46.2,-446.6"/>
<text text-anchor="start" x="53.2" y="-458.8" font-family="Arial" font-size="14.00">Id </text>
<text text-anchor="start" x="68.77" y="-458.8" font-family="Arial" font-size="14.00" fill="#666666">[uniqueidentifier]</text>
<polygon fill="none" stroke="black" points="46.2,-415.8 46.2,-446.6 334.32,-446.6 334.32,-415.8 46.2,-415.8"/>
<text text-anchor="start" x="53.2" y="-428" font-family="Arial" font-size="14.00">Type </text>
<text text-anchor="start" x="88.21" y="-428" font-family="Arial" font-size="14.00" fill="#666666">[varchar(50)]</text>
<polygon fill="none" stroke="black" points="46.2,-385 46.2,-415.8 334.32,-415.8 334.32,-385 46.2,-385"/>
<text text-anchor="start" x="53.2" y="-397.2" font-family="Arial" font-size="14.00">Class </text>
<text text-anchor="start" x="92.1" y="-397.2" font-family="Arial" font-size="14.00" fill="#666666">[varchar(50)]</text>
<polygon fill="none" stroke="black" points="46.2,-354.2 46.2,-385 334.32,-385 334.32,-354.2 46.2,-354.2"/>
<text text-anchor="start" x="53.2" y="-366.4" font-family="Arial" font-size="14.00">Method </text>
<text text-anchor="start" x="103.79" y="-366.4" font-family="Arial" font-size="14.00" fill="#666666">[varchar(100)]</text>
<polygon fill="none" stroke="black" points="46.2,-323.4 46.2,-354.2 334.32,-354.2 334.32,-323.4 46.2,-323.4"/>
<text text-anchor="start" x="53.2" y="-335.6" font-family="Arial" font-size="14.00">Message </text>
<text text-anchor="start" x="113.9" y="-335.6" font-family="Arial" font-size="14.00" fill="#666666">[varchar(2000)]</text>
<polygon fill="none" stroke="black" points="46.2,-292.6 46.2,-323.4 334.32,-323.4 334.32,-292.6 46.2,-292.6"/>
<text text-anchor="start" x="53.2" y="-304.8" font-family="Arial" font-size="14.00">Source </text>
<text text-anchor="start" x="101.45" y="-304.8" font-family="Arial" font-size="14.00" fill="#666666">[varchar(2000)]</text>
<polygon fill="none" stroke="black" points="46.2,-261.8 46.2,-292.6 334.32,-292.6 334.32,-261.8 46.2,-261.8"/>
<text text-anchor="start" x="53.2" y="-274" font-family="Arial" font-size="14.00">Stack </text>
<text text-anchor="start" x="92.1" y="-274" font-family="Arial" font-size="14.00" fill="#666666">[nvarchar(MAX)]</text>
<polygon fill="none" stroke="black" points="46.2,-231 46.2,-261.8 334.32,-261.8 334.32,-231 46.2,-231"/>
<text text-anchor="start" x="53.2" y="-243.2" font-family="Arial" font-size="14.00">Name </text>
<text text-anchor="start" x="94.43" y="-243.2" font-family="Arial" font-size="14.00" fill="#666666">[nvarchar(100)]</text>
<polygon fill="none" stroke="black" points="46.2,-200.2 46.2,-231 334.32,-231 334.32,-200.2 46.2,-200.2"/>
<text text-anchor="start" x="53.2" y="-212.4" font-family="Arial" font-size="14.00">Description </text>
<text text-anchor="start" x="127.12" y="-212.4" font-family="Arial" font-size="14.00" fill="#666666">[nvarchar(MAX)]</text>
<polygon fill="none" stroke="black" points="46.2,-169.4 46.2,-200.2 334.32,-200.2 334.32,-169.4 46.2,-169.4"/>
<text text-anchor="start" x="53.2" y="-181.6" font-family="Arial" font-size="14.00">DCreationDate </text>
<text text-anchor="start" x="149.69" y="-181.6" font-family="Arial" font-size="14.00" fill="#666666">[datetime]</text>
<polygon fill="none" stroke="black" points="46.2,-138.6 46.2,-169.4 334.32,-169.4 334.32,-138.6 46.2,-138.6"/>
<text text-anchor="start" x="53.2" y="-150.8" font-family="Arial" font-size="14.00">SCreationUser </text>
<text text-anchor="start" x="148.9" y="-150.8" font-family="Arial" font-size="14.00" fill="#666666">[varchar(300)]</text>
<polygon fill="none" stroke="black" points="46.2,-107.8 46.2,-138.6 334.32,-138.6 334.32,-107.8 46.2,-107.8"/>
<text text-anchor="start" x="53.2" y="-120" font-family="Arial" font-size="14.00">DModificationDate </text>
<text text-anchor="start" x="171.48" y="-120" font-family="Arial" font-size="14.00" fill="#666666">[datetime]</text>
<polygon fill="none" stroke="black" points="46.2,-77 46.2,-107.8 334.32,-107.8 334.32,-77 46.2,-77"/>
<text text-anchor="start" x="53.2" y="-89.2" font-family="Arial" font-size="14.00">SModificationUser </text>
<text text-anchor="start" x="170.69" y="-89.2" font-family="Arial" font-size="14.00" fill="#666666">[varchar(300)]</text>
<polygon fill="none" stroke="black" points="46.2,-46.2 46.2,-77 334.32,-77 334.32,-46.2 46.2,-46.2"/>
<text text-anchor="start" x="53.2" y="-58.4" font-family="Arial" font-size="14.00">BDeleted </text>
<text text-anchor="start" x="114.68" y="-58.4" font-family="Arial" font-size="14.00" fill="#666666">[bit]</text>
<polygon fill="none" stroke="black" stroke-width="3" points="44.7,-44.7 44.7,-514.5 335.82,-514.5 335.82,-44.7 44.7,-44.7"/>
</g>
</g>
</svg>
