<?xml version="1.0" encoding="UTF-8" standalone="no"?>
<!DOCTYPE svg PUBLIC "-//W3C//DTD SVG 1.1//EN"
 "http://www.w3.org/Graphics/SVG/1.1/DTD/svg11.dtd">
<!-- Generated by graphviz version 12.1.2 (20240928.0832)
 -->
<!-- Title: TBL_Notification Pages: 1 -->
<svg width="402pt" height="506pt"
 viewBox="0.00 0.00 402.33 505.60" xmlns="http://www.w3.org/2000/svg" xmlns:xlink="http://www.w3.org/1999/xlink">
<g id="graph0" class="graph" transform="scale(1 1) rotate(0) translate(4 501.6)">
<title>TBL_Notification</title>
<polygon fill="white" stroke="none" points="-4,4 -4,-501.6 398.33,-501.6 398.33,4 -4,4"/>
<!-- TBL_Notification -->
<g id="node1" class="node">
<title>TBL_Notification</title>
<polygon fill="#efefef" stroke="none" points="46.2,-415.8 46.2,-451.4 348.13,-451.4 348.13,-415.8 46.2,-415.8"/>
<polygon fill="none" stroke="black" points="46.2,-415.8 46.2,-451.4 348.13,-451.4 348.13,-415.8 46.2,-415.8"/>
<text text-anchor="start" x="67.6" y="-429.2" font-family="Arial Bold" font-size="18.00">TBL_Notification</text>
<text text-anchor="start" x="197.58" y="-429.2" font-family="Arial" font-size="14.00">    </text>
<text text-anchor="start" x="228.69" y="-429.2" font-family="Arial" font-size="14.00" fill="#666666">[BASIC TABLE]</text>
<polygon fill="none" stroke="black" points="46.2,-385 46.2,-415.8 348.13,-415.8 348.13,-385 46.2,-385"/>
<text text-anchor="start" x="53.2" y="-397.2" font-family="Arial" font-size="14.00">SCode </text>
<text text-anchor="start" x="99.9" y="-397.2" font-family="Arial" font-size="14.00" fill="#666666">[varchar(10)]</text>
<polygon fill="none" stroke="black" points="46.2,-354.2 46.2,-385 348.13,-385 348.13,-354.2 46.2,-354.2"/>
<text text-anchor="start" x="53.2" y="-366.4" font-family="Arial" font-size="14.00">SName </text>
<text text-anchor="start" x="103.77" y="-366.4" font-family="Arial" font-size="14.00" fill="#666666">[varchar(20)]</text>
<polygon fill="none" stroke="black" points="46.2,-323.4 46.2,-354.2 348.13,-354.2 348.13,-323.4 46.2,-323.4"/>
<text text-anchor="start" x="53.2" y="-335.6" font-family="Arial" font-size="14.00">BTypeNotificationAutomate </text>
<text text-anchor="start" x="226.73" y="-335.6" font-family="Arial" font-size="14.00" fill="#666666">[bit]</text>
<polygon fill="none" stroke="black" points="46.2,-292.6 46.2,-323.4 348.13,-323.4 348.13,-292.6 46.2,-292.6"/>
<text text-anchor="start" x="53.2" y="-304.8" font-family="Arial" font-size="14.00">IDaysAmount </text>
<text text-anchor="start" x="141.12" y="-304.8" font-family="Arial" font-size="14.00" fill="#666666">[int]</text>
<polygon fill="none" stroke="black" points="46.2,-261.8 46.2,-292.6 348.13,-292.6 348.13,-261.8 46.2,-261.8"/>
<text text-anchor="start" x="53.2" y="-274" font-family="Arial" font-size="14.00">NNegotiationCompliancePercentage </text>
<text text-anchor="start" x="283.56" y="-274" font-family="Arial" font-size="14.00" fill="#666666">[numeric]</text>
<polygon fill="none" stroke="black" points="46.2,-231 46.2,-261.8 348.13,-261.8 348.13,-231 46.2,-231"/>
<text text-anchor="start" x="53.2" y="-243.2" font-family="Arial" font-size="14.00">SNegotationState </text>
<text text-anchor="start" x="166.83" y="-243.2" font-family="Arial" font-size="14.00" fill="#666666">[varchar(3)]</text>
<polygon fill="none" stroke="black" points="46.2,-200.2 46.2,-231 348.13,-231 348.13,-200.2 46.2,-200.2"/>
<text text-anchor="start" x="53.2" y="-212.4" font-family="Arial" font-size="14.00">BIsActive </text>
<text text-anchor="start" x="115.44" y="-212.4" font-family="Arial" font-size="14.00" fill="#666666">[bit]</text>
<polygon fill="none" stroke="black" points="46.2,-169.4 46.2,-200.2 348.13,-200.2 348.13,-169.4 46.2,-169.4"/>
<text text-anchor="start" x="53.2" y="-181.6" font-family="Arial" font-size="14.00">BDelete </text>
<text text-anchor="start" x="106.9" y="-181.6" font-family="Arial" font-size="14.00" fill="#666666">[bit]</text>
<polygon fill="none" stroke="black" points="46.2,-138.6 46.2,-169.4 348.13,-169.4 348.13,-138.6 46.2,-138.6"/>
<text text-anchor="start" x="53.2" y="-150.8" font-family="Arial" font-size="14.00">DCreationDate </text>
<text text-anchor="start" x="149.69" y="-150.8" font-family="Arial" font-size="14.00" fill="#666666">[datetime]</text>
<polygon fill="none" stroke="black" points="46.2,-107.8 46.2,-138.6 348.13,-138.6 348.13,-107.8 46.2,-107.8"/>
<text text-anchor="start" x="53.2" y="-120" font-family="Arial" font-size="14.00">SCreationUser </text>
<text text-anchor="start" x="148.9" y="-120" font-family="Arial" font-size="14.00" fill="#666666">[varchar(300)]</text>
<polygon fill="none" stroke="black" points="46.2,-77 46.2,-107.8 348.13,-107.8 348.13,-77 46.2,-77"/>
<text text-anchor="start" x="53.2" y="-89.2" font-family="Arial" font-size="14.00">DModificationDate </text>
<text text-anchor="start" x="171.48" y="-89.2" font-family="Arial" font-size="14.00" fill="#666666">[datetime]</text>
<polygon fill="none" stroke="black" points="46.2,-46.2 46.2,-77 348.13,-77 348.13,-46.2 46.2,-46.2"/>
<text text-anchor="start" x="53.2" y="-58.4" font-family="Arial" font-size="14.00">SModificationUser </text>
<text text-anchor="start" x="170.69" y="-58.4" font-family="Arial" font-size="14.00" fill="#666666">[varchar(300)]</text>
<polygon fill="none" stroke="black" stroke-width="3" points="44.7,-44.7 44.7,-452.9 349.63,-452.9 349.63,-44.7 44.7,-44.7"/>
</g>
</g>
</svg>
