<?xml version="1.0" encoding="UTF-8" standalone="no"?>
<!DOCTYPE svg PUBLIC "-//W3C//DTD SVG 1.1//EN"
 "http://www.w3.org/Graphics/SVG/1.1/DTD/svg11.dtd">
<!-- Generated by graphviz version 12.1.2 (20240928.0832)
 -->
<!-- Title: TBL_MacrosegmentTypology Pages: 1 -->
<svg width="748pt" height="1160pt"
 viewBox="0.00 0.00 748.03 1160.40" xmlns="http://www.w3.org/2000/svg" xmlns:xlink="http://www.w3.org/1999/xlink">
<g id="graph0" class="graph" transform="scale(1 1) rotate(0) translate(4 1156.4)">
<title>TBL_MacrosegmentTypology</title>
<polygon fill="white" stroke="none" points="-4,4 -4,-1156.4 744.03,-1156.4 744.03,4 -4,4"/>
<!-- TBL_MacrosegmentTypology -->
<g id="node1" class="node">
<title>TBL_MacrosegmentTypology</title>
<polygon fill="#efefef" stroke="none" points="197.2,-512.2 197.2,-547.8 560.31,-547.8 560.31,-512.2 197.2,-512.2"/>
<polygon fill="none" stroke="black" points="197.2,-512.2 197.2,-547.8 560.31,-547.8 560.31,-512.2 197.2,-512.2"/>
<text text-anchor="start" x="204.2" y="-525.6" font-family="Arial Bold" font-size="18.00">TBL_MacrosegmentTypology</text>
<text text-anchor="start" x="424.16" y="-525.6" font-family="Arial" font-size="14.00">    </text>
<text text-anchor="start" x="455.27" y="-525.6" font-family="Arial" font-size="14.00" fill="#666666">[BASIC TABLE]</text>
<polygon fill="none" stroke="black" points="197.2,-481.4 197.2,-512.2 560.31,-512.2 560.31,-481.4 197.2,-481.4"/>
<text text-anchor="start" x="204.2" y="-493.6" font-family="Arial" font-size="14.00">SMacrosegmentCode </text>
<text text-anchor="start" x="343.49" y="-493.6" font-family="Arial" font-size="14.00" fill="#666666">[varchar(3)]</text>
<polygon fill="none" stroke="black" points="197.2,-450.6 197.2,-481.4 560.31,-481.4 560.31,-450.6 197.2,-450.6"/>
<text text-anchor="start" x="204.2" y="-462.8" font-family="Arial" font-size="14.00">STypologyCode </text>
<text text-anchor="start" x="307.7" y="-462.8" font-family="Arial" font-size="14.00" fill="#666666">[varchar(3)]</text>
<polygon fill="none" stroke="black" stroke-width="3" points="195.7,-449.1 195.7,-549.3 561.81,-549.3 561.81,-449.1 195.7,-449.1"/>
</g>
<!-- TBL_Macrosegment -->
<g id="node2" class="node">
<title>TBL_Macrosegment</title>
<polygon fill="#efefef" stroke="none" points="43.2,-289.6 43.2,-325.2 336.31,-325.2 336.31,-289.6 43.2,-289.6"/>
<polygon fill="none" stroke="black" points="43.2,-289.6 43.2,-325.2 336.31,-325.2 336.31,-289.6 43.2,-289.6"/>
<text text-anchor="start" x="50.2" y="-303" font-family="Arial Bold" font-size="18.00">TBL_Macrosegment</text>
<text text-anchor="start" x="200.16" y="-303" font-family="Arial" font-size="14.00">    </text>
<text text-anchor="start" x="231.28" y="-303" font-family="Arial" font-size="14.00" fill="#666666">[BASIC TABLE]</text>
<polygon fill="none" stroke="black" points="43.2,-258.8 43.2,-289.6 336.31,-289.6 336.31,-258.8 43.2,-258.8"/>
<text text-anchor="start" x="50.2" y="-271" font-family="Arial" font-size="14.00">SCode </text>
<text text-anchor="start" x="96.9" y="-271" font-family="Arial" font-size="14.00" fill="#666666">[varchar(3)]</text>
<polygon fill="none" stroke="black" points="43.2,-228 43.2,-258.8 336.31,-258.8 336.31,-228 43.2,-228"/>
<text text-anchor="start" x="50.2" y="-240.2" font-family="Arial" font-size="14.00">SDescription </text>
<text text-anchor="start" x="133.45" y="-240.2" font-family="Arial" font-size="14.00" fill="#666666">[nvarchar(200)]</text>
<polygon fill="none" stroke="black" points="43.2,-197.2 43.2,-228 336.31,-228 336.31,-197.2 43.2,-197.2"/>
<text text-anchor="start" x="50.2" y="-209.4" font-family="Arial" font-size="14.00">DCreationDate </text>
<text text-anchor="start" x="146.69" y="-209.4" font-family="Arial" font-size="14.00" fill="#666666">[datetime]</text>
<polygon fill="none" stroke="black" points="43.2,-166.4 43.2,-197.2 336.31,-197.2 336.31,-166.4 43.2,-166.4"/>
<text text-anchor="start" x="50.2" y="-178.6" font-family="Arial" font-size="14.00">SCreationUser </text>
<text text-anchor="start" x="145.9" y="-178.6" font-family="Arial" font-size="14.00" fill="#666666">[varchar(300)]</text>
<polygon fill="none" stroke="black" points="43.2,-135.6 43.2,-166.4 336.31,-166.4 336.31,-135.6 43.2,-135.6"/>
<text text-anchor="start" x="50.2" y="-147.8" font-family="Arial" font-size="14.00">DModificationDate </text>
<text text-anchor="start" x="168.48" y="-147.8" font-family="Arial" font-size="14.00" fill="#666666">[datetime]</text>
<polygon fill="none" stroke="black" points="43.2,-104.8 43.2,-135.6 336.31,-135.6 336.31,-104.8 43.2,-104.8"/>
<text text-anchor="start" x="50.2" y="-117" font-family="Arial" font-size="14.00">SModificationUser </text>
<text text-anchor="start" x="167.69" y="-117" font-family="Arial" font-size="14.00" fill="#666666">[varchar(300)]</text>
<polygon fill="none" stroke="black" points="43.2,-74 43.2,-104.8 336.31,-104.8 336.31,-74 43.2,-74"/>
<text text-anchor="start" x="50.2" y="-86.2" font-family="Arial" font-size="14.00">BDeleted </text>
<text text-anchor="start" x="111.68" y="-86.2" font-family="Arial" font-size="14.00" fill="#666666">[bit]</text>
<polygon fill="none" stroke="black" points="43.2,-43.2 43.2,-74 336.31,-74 336.31,-43.2 43.2,-43.2"/>
<text text-anchor="start" x="50.2" y="-55.4" font-family="Arial" font-size="14.00">BIsActive </text>
<text text-anchor="start" x="112.44" y="-55.4" font-family="Arial" font-size="14.00" fill="#666666">[bit]</text>
</g>
<!-- TBL_MacrosegmentTypology&#45;&gt;TBL_Macrosegment -->
<g id="edge1" class="edge">
<title>TBL_MacrosegmentTypology:SMacrosegmentCode&#45;&gt;TBL_Macrosegment:SCode</title>
<path fill="none" stroke="black" d="M186.14,-495.29C158.35,-485.78 174.26,-433.71 197.2,-404.4 236.57,-354.11 296.95,-418.69 336.31,-368.4 362.12,-335.43 379.18,-274.2 337.31,-274.2"/>
<polygon fill="black" stroke="black" points="185.98,-495.27 195.2,-501.2 191.26,-496.06 195.54,-496.7 195.54,-496.7 195.54,-496.7 191.26,-496.06 196.54,-492.3 185.98,-495.27"/>
</g>
<!-- TBL_Typology -->
<g id="node4" class="node">
<title>TBL_Typology</title>
<polygon fill="#efefef" stroke="none" points="440.68,-289.6 440.68,-325.2 696.83,-325.2 696.83,-289.6 440.68,-289.6"/>
<polygon fill="none" stroke="black" points="440.68,-289.6 440.68,-325.2 696.83,-325.2 696.83,-289.6 440.68,-289.6"/>
<text text-anchor="start" x="447.68" y="-303" font-family="Arial Bold" font-size="18.00">TBL_Typology</text>
<text text-anchor="start" x="560.68" y="-303" font-family="Arial" font-size="14.00">    </text>
<text text-anchor="start" x="591.79" y="-303" font-family="Arial" font-size="14.00" fill="#666666">[BASIC TABLE]</text>
<polygon fill="none" stroke="black" points="440.68,-258.8 440.68,-289.6 696.83,-289.6 696.83,-258.8 440.68,-258.8"/>
<text text-anchor="start" x="447.68" y="-271" font-family="Arial" font-size="14.00">SCode </text>
<text text-anchor="start" x="494.38" y="-271" font-family="Arial" font-size="14.00" fill="#666666">[varchar(3)]</text>
<polygon fill="none" stroke="black" points="440.68,-228 440.68,-258.8 696.83,-258.8 696.83,-228 440.68,-228"/>
<text text-anchor="start" x="447.68" y="-240.2" font-family="Arial" font-size="14.00">SDescription </text>
<text text-anchor="start" x="530.94" y="-240.2" font-family="Arial" font-size="14.00" fill="#666666">[nvarchar(200)]</text>
<polygon fill="none" stroke="black" points="440.68,-197.2 440.68,-228 696.83,-228 696.83,-197.2 440.68,-197.2"/>
<text text-anchor="start" x="447.68" y="-209.4" font-family="Arial" font-size="14.00">DCreationDate </text>
<text text-anchor="start" x="544.17" y="-209.4" font-family="Arial" font-size="14.00" fill="#666666">[datetime]</text>
<polygon fill="none" stroke="black" points="440.68,-166.4 440.68,-197.2 696.83,-197.2 696.83,-166.4 440.68,-166.4"/>
<text text-anchor="start" x="447.68" y="-178.6" font-family="Arial" font-size="14.00">SCreationUser </text>
<text text-anchor="start" x="543.39" y="-178.6" font-family="Arial" font-size="14.00" fill="#666666">[varchar(300)]</text>
<polygon fill="none" stroke="black" points="440.68,-135.6 440.68,-166.4 696.83,-166.4 696.83,-135.6 440.68,-135.6"/>
<text text-anchor="start" x="447.68" y="-147.8" font-family="Arial" font-size="14.00">DModificationDate </text>
<text text-anchor="start" x="565.96" y="-147.8" font-family="Arial" font-size="14.00" fill="#666666">[datetime]</text>
<polygon fill="none" stroke="black" points="440.68,-104.8 440.68,-135.6 696.83,-135.6 696.83,-104.8 440.68,-104.8"/>
<text text-anchor="start" x="447.68" y="-117" font-family="Arial" font-size="14.00">SModificationUser </text>
<text text-anchor="start" x="565.17" y="-117" font-family="Arial" font-size="14.00" fill="#666666">[varchar(300)]</text>
<polygon fill="none" stroke="black" points="440.68,-74 440.68,-104.8 696.83,-104.8 696.83,-74 440.68,-74"/>
<text text-anchor="start" x="447.68" y="-86.2" font-family="Arial" font-size="14.00">BDeleted </text>
<text text-anchor="start" x="509.17" y="-86.2" font-family="Arial" font-size="14.00" fill="#666666">[bit]</text>
<polygon fill="none" stroke="black" points="440.68,-43.2 440.68,-74 696.83,-74 696.83,-43.2 440.68,-43.2"/>
<text text-anchor="start" x="447.68" y="-55.4" font-family="Arial" font-size="14.00">BIsActive </text>
<text text-anchor="start" x="509.92" y="-55.4" font-family="Arial" font-size="14.00" fill="#666666">[bit]</text>
</g>
<!-- TBL_MacrosegmentTypology&#45;&gt;TBL_Typology -->
<g id="edge3" class="edge">
<title>TBL_MacrosegmentTypology:STypologyCode&#45;&gt;TBL_Typology:SCode</title>
<path fill="none" stroke="black" d="M571.02,-463.56C585.06,-454.59 574.37,-423 560.31,-404.4 526.82,-360.11 474.04,-412.78 440.68,-368.4 415.53,-334.93 397.81,-274.2 439.68,-274.2"/>
<polygon fill="black" stroke="black" points="571.33,-463.48 560.54,-461.55 566.16,-464.78 561.96,-465.84 561.96,-465.84 561.96,-465.84 566.16,-464.78 562.73,-470.28 571.33,-463.48"/>
</g>
<!-- TBL_HierarchyGroup -->
<g id="node3" class="node">
<title>TBL_HierarchyGroup</title>
<polygon fill="#efefef" stroke="none" points="226.71,-1073.6 226.71,-1109.2 530.8,-1109.2 530.8,-1073.6 226.71,-1073.6"/>
<polygon fill="none" stroke="black" points="226.71,-1073.6 226.71,-1109.2 530.8,-1109.2 530.8,-1073.6 226.71,-1073.6"/>
<text text-anchor="start" x="233.71" y="-1087" font-family="Arial Bold" font-size="18.00">TBL_HierarchyGroup</text>
<text text-anchor="start" x="394.65" y="-1087" font-family="Arial" font-size="14.00">    </text>
<text text-anchor="start" x="425.77" y="-1087" font-family="Arial" font-size="14.00" fill="#666666">[BASIC TABLE]</text>
<polygon fill="none" stroke="black" points="226.71,-1042.8 226.71,-1073.6 530.8,-1073.6 530.8,-1042.8 226.71,-1042.8"/>
<text text-anchor="start" x="233.71" y="-1055" font-family="Arial" font-size="14.00">Id </text>
<text text-anchor="start" x="249.27" y="-1055" font-family="Arial" font-size="14.00" fill="#666666">[int]</text>
<polygon fill="none" stroke="black" points="226.71,-1012 226.71,-1042.8 530.8,-1042.8 530.8,-1012 226.71,-1012"/>
<text text-anchor="start" x="233.71" y="-1024.2" font-family="Arial" font-size="14.00">NHierarchyCode </text>
<text text-anchor="start" x="341.08" y="-1024.2" font-family="Arial" font-size="14.00" fill="#666666">[int]</text>
<polygon fill="none" stroke="black" points="226.71,-981.2 226.71,-1012 530.8,-1012 530.8,-981.2 226.71,-981.2"/>
<text text-anchor="start" x="233.71" y="-993.4" font-family="Arial" font-size="14.00">SSectorCode </text>
<text text-anchor="start" x="320.87" y="-993.4" font-family="Arial" font-size="14.00" fill="#666666">[varchar(2)]</text>
<polygon fill="none" stroke="black" points="226.71,-950.4 226.71,-981.2 530.8,-981.2 530.8,-950.4 226.71,-950.4"/>
<text text-anchor="start" x="233.71" y="-962.6" font-family="Arial" font-size="14.00">NTypeCommercialActivityDomainCode </text>
<text text-anchor="start" x="479.55" y="-962.6" font-family="Arial" font-size="14.00" fill="#666666">[int]</text>
<polygon fill="none" stroke="black" points="226.71,-919.6 226.71,-950.4 530.8,-950.4 530.8,-919.6 226.71,-919.6"/>
<text text-anchor="start" x="233.71" y="-931.8" font-family="Arial" font-size="14.00">SChannelCode </text>
<text text-anchor="start" x="332.55" y="-931.8" font-family="Arial" font-size="14.00" fill="#666666">[varchar(4)]</text>
<polygon fill="none" stroke="black" points="226.71,-888.8 226.71,-919.6 530.8,-919.6 530.8,-888.8 226.71,-888.8"/>
<text text-anchor="start" x="233.71" y="-901" font-family="Arial" font-size="14.00">SMacrosegmentCode </text>
<text text-anchor="start" x="373" y="-901" font-family="Arial" font-size="14.00" fill="#666666">[varchar(3)]</text>
<polygon fill="none" stroke="black" points="226.71,-858 226.71,-888.8 530.8,-888.8 530.8,-858 226.71,-858"/>
<text text-anchor="start" x="233.71" y="-870.2" font-family="Arial" font-size="14.00">STypologyCode </text>
<text text-anchor="start" x="337.21" y="-870.2" font-family="Arial" font-size="14.00" fill="#666666">[varchar(3)]</text>
<polygon fill="none" stroke="black" points="226.71,-827.2 226.71,-858 530.8,-858 530.8,-827.2 226.71,-827.2"/>
<text text-anchor="start" x="233.71" y="-839.4" font-family="Arial" font-size="14.00">DCreationDate </text>
<text text-anchor="start" x="330.2" y="-839.4" font-family="Arial" font-size="14.00" fill="#666666">[datetime]</text>
<polygon fill="none" stroke="black" points="226.71,-796.4 226.71,-827.2 530.8,-827.2 530.8,-796.4 226.71,-796.4"/>
<text text-anchor="start" x="233.71" y="-808.6" font-family="Arial" font-size="14.00">SCreationUser </text>
<text text-anchor="start" x="329.41" y="-808.6" font-family="Arial" font-size="14.00" fill="#666666">[varchar(300)]</text>
<polygon fill="none" stroke="black" points="226.71,-765.6 226.71,-796.4 530.8,-796.4 530.8,-765.6 226.71,-765.6"/>
<text text-anchor="start" x="233.71" y="-777.8" font-family="Arial" font-size="14.00">DModificationDate </text>
<text text-anchor="start" x="351.98" y="-777.8" font-family="Arial" font-size="14.00" fill="#666666">[datetime]</text>
<polygon fill="none" stroke="black" points="226.71,-734.8 226.71,-765.6 530.8,-765.6 530.8,-734.8 226.71,-734.8"/>
<text text-anchor="start" x="233.71" y="-747" font-family="Arial" font-size="14.00">SModificationUser </text>
<text text-anchor="start" x="351.2" y="-747" font-family="Arial" font-size="14.00" fill="#666666">[varchar(300)]</text>
<polygon fill="none" stroke="black" points="226.71,-704 226.71,-734.8 530.8,-734.8 530.8,-704 226.71,-704"/>
<text text-anchor="start" x="233.71" y="-716.2" font-family="Arial" font-size="14.00">BDeleted </text>
<text text-anchor="start" x="295.19" y="-716.2" font-family="Arial" font-size="14.00" fill="#666666">[bit]</text>
<polygon fill="none" stroke="black" points="226.71,-673.2 226.71,-704 530.8,-704 530.8,-673.2 226.71,-673.2"/>
<text text-anchor="start" x="233.71" y="-685.4" font-family="Arial" font-size="14.00">SCediCode </text>
<text text-anchor="start" x="309.2" y="-685.4" font-family="Arial" font-size="14.00" fill="#666666">[varchar(4)]</text>
</g>
<!-- TBL_HierarchyGroup&#45;&gt;TBL_MacrosegmentTypology -->
<g id="edge2" class="edge">
<title>TBL_HierarchyGroup:SMacrosegmentCode&#45;&gt;TBL_MacrosegmentTypology:SMacrosegmentCode</title>
<path fill="none" stroke="black" d="M542.01,-903.76C714.39,-888.83 739.39,-496.8 561.31,-496.8"/>
<polygon fill="black" stroke="black" points="542.13,-903.76 531.94,-899.69 536.8,-903.99 532.47,-904.17 532.47,-904.17 532.47,-904.17 536.8,-903.99 532.33,-908.68 542.13,-903.76"/>
</g>
</g>
</svg>
