<?xml version="1.0" encoding="UTF-8" standalone="no"?>
<!DOCTYPE svg PUBLIC "-//W3C//DTD SVG 1.1//EN"
 "http://www.w3.org/Graphics/SVG/1.1/DTD/svg11.dtd">
<!-- Generated by graphviz version 12.1.2 (20240928.0832)
 -->
<!-- Title: TBL_ApprovalRange Pages: 1 -->
<svg width="972pt" height="879pt"
 viewBox="0.00 0.00 971.99 879.20" xmlns="http://www.w3.org/2000/svg" xmlns:xlink="http://www.w3.org/1999/xlink">
<g id="graph0" class="graph" transform="scale(1 1) rotate(0) translate(4 875.2)">
<title>TBL_ApprovalRange</title>
<polygon fill="white" stroke="none" points="-4,4 -4,-875.2 967.99,-875.2 967.99,4 -4,4"/>
<!-- TBL_ApprovalRange -->
<g id="node1" class="node">
<title>TBL_ApprovalRange</title>
<polygon fill="#efefef" stroke="none" points="313.69,-261.8 313.69,-297.4 613.81,-297.4 613.81,-261.8 313.69,-261.8"/>
<polygon fill="none" stroke="black" points="313.69,-261.8 313.69,-297.4 613.81,-297.4 613.81,-261.8 313.69,-261.8"/>
<text text-anchor="start" x="320.69" y="-275.2" font-family="Arial Bold" font-size="18.00">TBL_ApprovalRange</text>
<text text-anchor="start" x="477.66" y="-275.2" font-family="Arial" font-size="14.00">    </text>
<text text-anchor="start" x="508.77" y="-275.2" font-family="Arial" font-size="14.00" fill="#666666">[BASIC TABLE]</text>
<polygon fill="none" stroke="black" points="313.69,-231 313.69,-261.8 613.81,-261.8 613.81,-231 313.69,-231"/>
<text text-anchor="start" x="320.69" y="-243.2" font-family="Arial" font-size="14.00">Id </text>
<text text-anchor="start" x="336.26" y="-243.2" font-family="Arial" font-size="14.00" fill="#666666">[int]</text>
<polygon fill="none" stroke="black" points="313.69,-200.2 313.69,-231 613.81,-231 613.81,-200.2 313.69,-200.2"/>
<text text-anchor="start" x="320.69" y="-212.4" font-family="Arial" font-size="14.00">NCompanyCode </text>
<text text-anchor="start" x="428.08" y="-212.4" font-family="Arial" font-size="14.00" fill="#666666">[int]</text>
<polygon fill="none" stroke="black" points="313.69,-169.4 313.69,-200.2 613.81,-200.2 613.81,-169.4 313.69,-169.4"/>
<text text-anchor="start" x="320.69" y="-181.6" font-family="Arial" font-size="14.00">DCreationDate </text>
<text text-anchor="start" x="417.18" y="-181.6" font-family="Arial" font-size="14.00" fill="#666666">[datetime]</text>
<polygon fill="none" stroke="black" points="313.69,-138.6 313.69,-169.4 613.81,-169.4 613.81,-138.6 313.69,-138.6"/>
<text text-anchor="start" x="320.69" y="-150.8" font-family="Arial" font-size="14.00">SCreationUser </text>
<text text-anchor="start" x="416.4" y="-150.8" font-family="Arial" font-size="14.00" fill="#666666">[varchar(300)]</text>
<polygon fill="none" stroke="black" points="313.69,-107.8 313.69,-138.6 613.81,-138.6 613.81,-107.8 313.69,-107.8"/>
<text text-anchor="start" x="320.69" y="-120" font-family="Arial" font-size="14.00">DModificationDate </text>
<text text-anchor="start" x="438.97" y="-120" font-family="Arial" font-size="14.00" fill="#666666">[datetime]</text>
<polygon fill="none" stroke="black" points="313.69,-77 313.69,-107.8 613.81,-107.8 613.81,-77 313.69,-77"/>
<text text-anchor="start" x="320.69" y="-89.2" font-family="Arial" font-size="14.00">SModificationUser </text>
<text text-anchor="start" x="438.18" y="-89.2" font-family="Arial" font-size="14.00" fill="#666666">[varchar(300)]</text>
<polygon fill="none" stroke="black" points="313.69,-46.2 313.69,-77 613.81,-77 613.81,-46.2 313.69,-46.2"/>
<text text-anchor="start" x="320.69" y="-58.4" font-family="Arial" font-size="14.00">BDeleted </text>
<text text-anchor="start" x="382.18" y="-58.4" font-family="Arial" font-size="14.00" fill="#666666">[bit]</text>
<polygon fill="none" stroke="black" stroke-width="3" points="312.19,-44.7 312.19,-298.9 615.31,-298.9 615.31,-44.7 312.19,-44.7"/>
</g>
<!-- TBL_ApprovalRangeDetails -->
<g id="node2" class="node">
<title>TBL_ApprovalRangeDetails</title>
<polygon fill="#efefef" stroke="none" points="43.2,-792.4 43.2,-828 394.3,-828 394.3,-792.4 43.2,-792.4"/>
<polygon fill="none" stroke="black" points="43.2,-792.4 43.2,-828 394.3,-828 394.3,-792.4 43.2,-792.4"/>
<text text-anchor="start" x="50.2" y="-805.8" font-family="Arial Bold" font-size="18.00">TBL_ApprovalRangeDetails</text>
<text text-anchor="start" x="258.15" y="-805.8" font-family="Arial" font-size="14.00">    </text>
<text text-anchor="start" x="289.27" y="-805.8" font-family="Arial" font-size="14.00" fill="#666666">[BASIC TABLE]</text>
<polygon fill="none" stroke="black" points="43.2,-761.6 43.2,-792.4 394.3,-792.4 394.3,-761.6 43.2,-761.6"/>
<text text-anchor="start" x="50.2" y="-773.8" font-family="Arial" font-size="14.00">Id </text>
<text text-anchor="start" x="65.77" y="-773.8" font-family="Arial" font-size="14.00" fill="#666666">[int]</text>
<polygon fill="none" stroke="black" points="43.2,-730.8 43.2,-761.6 394.3,-761.6 394.3,-730.8 43.2,-730.8"/>
<text text-anchor="start" x="50.2" y="-743" font-family="Arial" font-size="14.00">NApprovalRangeCode </text>
<text text-anchor="start" x="194.18" y="-743" font-family="Arial" font-size="14.00" fill="#666666">[int]</text>
<polygon fill="none" stroke="black" points="43.2,-700 43.2,-730.8 394.3,-730.8 394.3,-700 43.2,-700"/>
<text text-anchor="start" x="50.2" y="-712.2" font-family="Arial" font-size="14.00">NLevelCode </text>
<text text-anchor="start" x="131.14" y="-712.2" font-family="Arial" font-size="14.00" fill="#666666">[int]</text>
<polygon fill="none" stroke="black" points="43.2,-669.2 43.2,-700 394.3,-700 394.3,-669.2 43.2,-669.2"/>
<text text-anchor="start" x="50.2" y="-681.4" font-family="Arial" font-size="14.00">NInitialEffectiveContributionRange </text>
<text text-anchor="start" x="267.32" y="-681.4" font-family="Arial" font-size="14.00" fill="#666666">[decimal]</text>
<polygon fill="none" stroke="black" points="43.2,-638.4 43.2,-669.2 394.3,-669.2 394.3,-638.4 43.2,-638.4"/>
<text text-anchor="start" x="50.2" y="-650.6" font-family="Arial" font-size="14.00">NFinalEffectiveContributionRange </text>
<text text-anchor="start" x="264.98" y="-650.6" font-family="Arial" font-size="14.00" fill="#666666">[decimal]</text>
<polygon fill="none" stroke="black" points="43.2,-607.6 43.2,-638.4 394.3,-638.4 394.3,-607.6 43.2,-607.6"/>
<text text-anchor="start" x="50.2" y="-619.8" font-family="Arial" font-size="14.00">NInitialRangePercentageInvestment </text>
<text text-anchor="start" x="278.22" y="-619.8" font-family="Arial" font-size="14.00" fill="#666666">[numeric]</text>
<polygon fill="none" stroke="black" points="43.2,-576.8 43.2,-607.6 394.3,-607.6 394.3,-576.8 43.2,-576.8"/>
<text text-anchor="start" x="50.2" y="-589" font-family="Arial" font-size="14.00">NFinalRangePercentageInvestment </text>
<text text-anchor="start" x="275.88" y="-589" font-family="Arial" font-size="14.00" fill="#666666">[numeric]</text>
<polygon fill="none" stroke="black" points="43.2,-546 43.2,-576.8 394.3,-576.8 394.3,-546 43.2,-546"/>
<text text-anchor="start" x="50.2" y="-558.2" font-family="Arial" font-size="14.00">DCreationDate </text>
<text text-anchor="start" x="146.69" y="-558.2" font-family="Arial" font-size="14.00" fill="#666666">[datetime]</text>
<polygon fill="none" stroke="black" points="43.2,-515.2 43.2,-546 394.3,-546 394.3,-515.2 43.2,-515.2"/>
<text text-anchor="start" x="50.2" y="-527.4" font-family="Arial" font-size="14.00">SCreationUser </text>
<text text-anchor="start" x="145.9" y="-527.4" font-family="Arial" font-size="14.00" fill="#666666">[varchar(300)]</text>
<polygon fill="none" stroke="black" points="43.2,-484.4 43.2,-515.2 394.3,-515.2 394.3,-484.4 43.2,-484.4"/>
<text text-anchor="start" x="50.2" y="-496.6" font-family="Arial" font-size="14.00">DModificationDate </text>
<text text-anchor="start" x="168.48" y="-496.6" font-family="Arial" font-size="14.00" fill="#666666">[datetime]</text>
<polygon fill="none" stroke="black" points="43.2,-453.6 43.2,-484.4 394.3,-484.4 394.3,-453.6 43.2,-453.6"/>
<text text-anchor="start" x="50.2" y="-465.8" font-family="Arial" font-size="14.00">SModificationUser </text>
<text text-anchor="start" x="167.69" y="-465.8" font-family="Arial" font-size="14.00" fill="#666666">[varchar(300)]</text>
<polygon fill="none" stroke="black" points="43.2,-422.8 43.2,-453.6 394.3,-453.6 394.3,-422.8 43.2,-422.8"/>
<text text-anchor="start" x="50.2" y="-435" font-family="Arial" font-size="14.00">BDeleted </text>
<text text-anchor="start" x="111.68" y="-435" font-family="Arial" font-size="14.00" fill="#666666">[bit]</text>
</g>
<!-- TBL_ApprovalRangeDetails&#45;&gt;TBL_ApprovalRange -->
<g id="edge1" class="edge">
<title>TBL_ApprovalRangeDetails:NApprovalRangeCode&#45;&gt;TBL_ApprovalRange:Id</title>
<path fill="none" stroke="black" d="M405.57,-744.44C473.34,-719.86 436.73,-444.82 394.3,-379.6 372.91,-346.71 335.21,-376.41 313.69,-343.6 290,-307.48 269.49,-246.4 312.69,-246.4"/>
<polygon fill="black" stroke="black" points="405.49,-744.46 394.87,-741.71 400.23,-745.36 395.96,-746.09 395.96,-746.09 395.96,-746.09 400.23,-745.36 396.39,-750.58 405.49,-744.46"/>
</g>
<!-- TBL_NegotiationTypeApprovalRange -->
<g id="node3" class="node">
<title>TBL_NegotiationTypeApprovalRange</title>
<polygon fill="#efefef" stroke="none" points="498.71,-730.8 498.71,-766.4 920.79,-766.4 920.79,-730.8 498.71,-730.8"/>
<polygon fill="none" stroke="black" points="498.71,-730.8 498.71,-766.4 920.79,-766.4 920.79,-730.8 498.71,-730.8"/>
<text text-anchor="start" x="505.71" y="-744.2" font-family="Arial Bold" font-size="18.00">TBL_NegotiationTypeApprovalRange</text>
<text text-anchor="start" x="784.64" y="-744.2" font-family="Arial" font-size="14.00">    </text>
<text text-anchor="start" x="815.76" y="-744.2" font-family="Arial" font-size="14.00" fill="#666666">[BASIC TABLE]</text>
<polygon fill="none" stroke="black" points="498.71,-700 498.71,-730.8 920.79,-730.8 920.79,-700 498.71,-700"/>
<text text-anchor="start" x="505.71" y="-712.2" font-family="Arial" font-size="14.00">Id </text>
<text text-anchor="start" x="521.28" y="-712.2" font-family="Arial" font-size="14.00" fill="#666666">[int]</text>
<polygon fill="none" stroke="black" points="498.71,-669.2 498.71,-700 920.79,-700 920.79,-669.2 498.71,-669.2"/>
<text text-anchor="start" x="505.71" y="-681.4" font-family="Arial" font-size="14.00">NApprovalRangeCode </text>
<text text-anchor="start" x="649.69" y="-681.4" font-family="Arial" font-size="14.00" fill="#666666">[int]</text>
<polygon fill="none" stroke="black" points="498.71,-638.4 498.71,-669.2 920.79,-669.2 920.79,-638.4 498.71,-638.4"/>
<text text-anchor="start" x="505.71" y="-650.6" font-family="Arial" font-size="14.00">NNegotiationTypeCode </text>
<text text-anchor="start" x="655.13" y="-650.6" font-family="Arial" font-size="14.00" fill="#666666">[int]</text>
<polygon fill="none" stroke="black" points="498.71,-607.6 498.71,-638.4 920.79,-638.4 920.79,-607.6 498.71,-607.6"/>
<text text-anchor="start" x="505.71" y="-619.8" font-family="Arial" font-size="14.00">DCreationDate </text>
<text text-anchor="start" x="602.2" y="-619.8" font-family="Arial" font-size="14.00" fill="#666666">[datetime]</text>
<polygon fill="none" stroke="black" points="498.71,-576.8 498.71,-607.6 920.79,-607.6 920.79,-576.8 498.71,-576.8"/>
<text text-anchor="start" x="505.71" y="-589" font-family="Arial" font-size="14.00">SCreationUser </text>
<text text-anchor="start" x="601.41" y="-589" font-family="Arial" font-size="14.00" fill="#666666">[varchar(300)]</text>
<polygon fill="none" stroke="black" points="498.71,-546 498.71,-576.8 920.79,-576.8 920.79,-546 498.71,-546"/>
<text text-anchor="start" x="505.71" y="-558.2" font-family="Arial" font-size="14.00">DModificationDate </text>
<text text-anchor="start" x="623.99" y="-558.2" font-family="Arial" font-size="14.00" fill="#666666">[datetime]</text>
<polygon fill="none" stroke="black" points="498.71,-515.2 498.71,-546 920.79,-546 920.79,-515.2 498.71,-515.2"/>
<text text-anchor="start" x="505.71" y="-527.4" font-family="Arial" font-size="14.00">SModificationUser </text>
<text text-anchor="start" x="623.2" y="-527.4" font-family="Arial" font-size="14.00" fill="#666666">[varchar(300)]</text>
<polygon fill="none" stroke="black" points="498.71,-484.4 498.71,-515.2 920.79,-515.2 920.79,-484.4 498.71,-484.4"/>
<text text-anchor="start" x="505.71" y="-496.6" font-family="Arial" font-size="14.00">BDeleted </text>
<text text-anchor="start" x="567.19" y="-496.6" font-family="Arial" font-size="14.00" fill="#666666">[bit]</text>
</g>
<!-- TBL_NegotiationTypeApprovalRange&#45;&gt;TBL_ApprovalRange -->
<g id="edge2" class="edge">
<title>TBL_NegotiationTypeApprovalRange:NApprovalRangeCode&#45;&gt;TBL_ApprovalRange:Id</title>
<path fill="none" stroke="black" d="M487.8,-681.98C447.99,-658.71 477.44,-486.88 498.71,-441.2 527.02,-380.4 585.31,-404.31 613.81,-343.6 632.17,-304.49 658.01,-246.4 614.81,-246.4"/>
<polygon fill="black" stroke="black" points="487.72,-681.96 496.24,-688.87 492.88,-683.32 497.06,-684.43 497.06,-684.43 497.06,-684.43 492.88,-683.32 498.53,-680.16 487.72,-681.96"/>
</g>
</g>
</svg>
