<?xml version="1.0" encoding="UTF-8" standalone="no"?>
<!DOCTYPE svg PUBLIC "-//W3C//DTD SVG 1.1//EN"
 "http://www.w3.org/Graphics/SVG/1.1/DTD/svg11.dtd">
<!-- Generated by graphviz version 12.1.2 (20240928.0832)
 -->
<!-- Title: TBL_ApprovalRangeDetails Pages: 1 -->
<svg width="726pt" height="879pt"
 viewBox="0.00 0.00 726.02 879.20" xmlns="http://www.w3.org/2000/svg" xmlns:xlink="http://www.w3.org/1999/xlink">
<g id="graph0" class="graph" transform="scale(1 1) rotate(0) translate(4 875.2)">
<title>TBL_ApprovalRangeDetails</title>
<polygon fill="white" stroke="none" points="-4,4 -4,-875.2 722.02,-875.2 722.02,4 -4,4"/>
<!-- TBL_ApprovalRangeDetails -->
<g id="node1" class="node">
<title>TBL_ApprovalRangeDetails</title>
<polygon fill="#efefef" stroke="none" points="201.71,-789.4 201.71,-825 552.81,-825 552.81,-789.4 201.71,-789.4"/>
<polygon fill="none" stroke="black" points="201.71,-789.4 201.71,-825 552.81,-825 552.81,-789.4 201.71,-789.4"/>
<text text-anchor="start" x="208.71" y="-802.8" font-family="Arial Bold" font-size="18.00">TBL_ApprovalRangeDetails</text>
<text text-anchor="start" x="416.66" y="-802.8" font-family="Arial" font-size="14.00">    </text>
<text text-anchor="start" x="447.77" y="-802.8" font-family="Arial" font-size="14.00" fill="#666666">[BASIC TABLE]</text>
<polygon fill="none" stroke="black" points="201.71,-758.6 201.71,-789.4 552.81,-789.4 552.81,-758.6 201.71,-758.6"/>
<text text-anchor="start" x="208.71" y="-770.8" font-family="Arial" font-size="14.00">Id </text>
<text text-anchor="start" x="224.27" y="-770.8" font-family="Arial" font-size="14.00" fill="#666666">[int]</text>
<polygon fill="none" stroke="black" points="201.71,-727.8 201.71,-758.6 552.81,-758.6 552.81,-727.8 201.71,-727.8"/>
<text text-anchor="start" x="208.71" y="-740" font-family="Arial" font-size="14.00">NApprovalRangeCode </text>
<text text-anchor="start" x="352.69" y="-740" font-family="Arial" font-size="14.00" fill="#666666">[int]</text>
<polygon fill="none" stroke="black" points="201.71,-697 201.71,-727.8 552.81,-727.8 552.81,-697 201.71,-697"/>
<text text-anchor="start" x="208.71" y="-709.2" font-family="Arial" font-size="14.00">NLevelCode </text>
<text text-anchor="start" x="289.64" y="-709.2" font-family="Arial" font-size="14.00" fill="#666666">[int]</text>
<polygon fill="none" stroke="black" points="201.71,-666.2 201.71,-697 552.81,-697 552.81,-666.2 201.71,-666.2"/>
<text text-anchor="start" x="208.71" y="-678.4" font-family="Arial" font-size="14.00">NInitialEffectiveContributionRange </text>
<text text-anchor="start" x="425.82" y="-678.4" font-family="Arial" font-size="14.00" fill="#666666">[decimal]</text>
<polygon fill="none" stroke="black" points="201.71,-635.4 201.71,-666.2 552.81,-666.2 552.81,-635.4 201.71,-635.4"/>
<text text-anchor="start" x="208.71" y="-647.6" font-family="Arial" font-size="14.00">NFinalEffectiveContributionRange </text>
<text text-anchor="start" x="423.49" y="-647.6" font-family="Arial" font-size="14.00" fill="#666666">[decimal]</text>
<polygon fill="none" stroke="black" points="201.71,-604.6 201.71,-635.4 552.81,-635.4 552.81,-604.6 201.71,-604.6"/>
<text text-anchor="start" x="208.71" y="-616.8" font-family="Arial" font-size="14.00">NInitialRangePercentageInvestment </text>
<text text-anchor="start" x="436.73" y="-616.8" font-family="Arial" font-size="14.00" fill="#666666">[numeric]</text>
<polygon fill="none" stroke="black" points="201.71,-573.8 201.71,-604.6 552.81,-604.6 552.81,-573.8 201.71,-573.8"/>
<text text-anchor="start" x="208.71" y="-586" font-family="Arial" font-size="14.00">NFinalRangePercentageInvestment </text>
<text text-anchor="start" x="434.39" y="-586" font-family="Arial" font-size="14.00" fill="#666666">[numeric]</text>
<polygon fill="none" stroke="black" points="201.71,-543 201.71,-573.8 552.81,-573.8 552.81,-543 201.71,-543"/>
<text text-anchor="start" x="208.71" y="-555.2" font-family="Arial" font-size="14.00">DCreationDate </text>
<text text-anchor="start" x="305.2" y="-555.2" font-family="Arial" font-size="14.00" fill="#666666">[datetime]</text>
<polygon fill="none" stroke="black" points="201.71,-512.2 201.71,-543 552.81,-543 552.81,-512.2 201.71,-512.2"/>
<text text-anchor="start" x="208.71" y="-524.4" font-family="Arial" font-size="14.00">SCreationUser </text>
<text text-anchor="start" x="304.41" y="-524.4" font-family="Arial" font-size="14.00" fill="#666666">[varchar(300)]</text>
<polygon fill="none" stroke="black" points="201.71,-481.4 201.71,-512.2 552.81,-512.2 552.81,-481.4 201.71,-481.4"/>
<text text-anchor="start" x="208.71" y="-493.6" font-family="Arial" font-size="14.00">DModificationDate </text>
<text text-anchor="start" x="326.98" y="-493.6" font-family="Arial" font-size="14.00" fill="#666666">[datetime]</text>
<polygon fill="none" stroke="black" points="201.71,-450.6 201.71,-481.4 552.81,-481.4 552.81,-450.6 201.71,-450.6"/>
<text text-anchor="start" x="208.71" y="-462.8" font-family="Arial" font-size="14.00">SModificationUser </text>
<text text-anchor="start" x="326.2" y="-462.8" font-family="Arial" font-size="14.00" fill="#666666">[varchar(300)]</text>
<polygon fill="none" stroke="black" points="201.71,-419.8 201.71,-450.6 552.81,-450.6 552.81,-419.8 201.71,-419.8"/>
<text text-anchor="start" x="208.71" y="-432" font-family="Arial" font-size="14.00">BDeleted </text>
<text text-anchor="start" x="270.19" y="-432" font-family="Arial" font-size="14.00" fill="#666666">[bit]</text>
<polygon fill="none" stroke="black" stroke-width="3" points="200.21,-418.3 200.21,-826.5 554.31,-826.5 554.31,-418.3 200.21,-418.3"/>
</g>
<!-- TBL_ApprovalRange -->
<g id="node2" class="node">
<title>TBL_ApprovalRange</title>
<polygon fill="#efefef" stroke="none" points="43.2,-258.8 43.2,-294.4 343.32,-294.4 343.32,-258.8 43.2,-258.8"/>
<polygon fill="none" stroke="black" points="43.2,-258.8 43.2,-294.4 343.32,-294.4 343.32,-258.8 43.2,-258.8"/>
<text text-anchor="start" x="50.2" y="-272.2" font-family="Arial Bold" font-size="18.00">TBL_ApprovalRange</text>
<text text-anchor="start" x="207.16" y="-272.2" font-family="Arial" font-size="14.00">    </text>
<text text-anchor="start" x="238.28" y="-272.2" font-family="Arial" font-size="14.00" fill="#666666">[BASIC TABLE]</text>
<polygon fill="none" stroke="black" points="43.2,-228 43.2,-258.8 343.32,-258.8 343.32,-228 43.2,-228"/>
<text text-anchor="start" x="50.2" y="-240.2" font-family="Arial" font-size="14.00">Id </text>
<text text-anchor="start" x="65.77" y="-240.2" font-family="Arial" font-size="14.00" fill="#666666">[int]</text>
<polygon fill="none" stroke="black" points="43.2,-197.2 43.2,-228 343.32,-228 343.32,-197.2 43.2,-197.2"/>
<text text-anchor="start" x="50.2" y="-209.4" font-family="Arial" font-size="14.00">NCompanyCode </text>
<text text-anchor="start" x="157.59" y="-209.4" font-family="Arial" font-size="14.00" fill="#666666">[int]</text>
<polygon fill="none" stroke="black" points="43.2,-166.4 43.2,-197.2 343.32,-197.2 343.32,-166.4 43.2,-166.4"/>
<text text-anchor="start" x="50.2" y="-178.6" font-family="Arial" font-size="14.00">DCreationDate </text>
<text text-anchor="start" x="146.69" y="-178.6" font-family="Arial" font-size="14.00" fill="#666666">[datetime]</text>
<polygon fill="none" stroke="black" points="43.2,-135.6 43.2,-166.4 343.32,-166.4 343.32,-135.6 43.2,-135.6"/>
<text text-anchor="start" x="50.2" y="-147.8" font-family="Arial" font-size="14.00">SCreationUser </text>
<text text-anchor="start" x="145.9" y="-147.8" font-family="Arial" font-size="14.00" fill="#666666">[varchar(300)]</text>
<polygon fill="none" stroke="black" points="43.2,-104.8 43.2,-135.6 343.32,-135.6 343.32,-104.8 43.2,-104.8"/>
<text text-anchor="start" x="50.2" y="-117" font-family="Arial" font-size="14.00">DModificationDate </text>
<text text-anchor="start" x="168.48" y="-117" font-family="Arial" font-size="14.00" fill="#666666">[datetime]</text>
<polygon fill="none" stroke="black" points="43.2,-74 43.2,-104.8 343.32,-104.8 343.32,-74 43.2,-74"/>
<text text-anchor="start" x="50.2" y="-86.2" font-family="Arial" font-size="14.00">SModificationUser </text>
<text text-anchor="start" x="167.69" y="-86.2" font-family="Arial" font-size="14.00" fill="#666666">[varchar(300)]</text>
<polygon fill="none" stroke="black" points="43.2,-43.2 43.2,-74 343.32,-74 343.32,-43.2 43.2,-43.2"/>
<text text-anchor="start" x="50.2" y="-55.4" font-family="Arial" font-size="14.00">BDeleted </text>
<text text-anchor="start" x="111.68" y="-55.4" font-family="Arial" font-size="14.00" fill="#666666">[bit]</text>
</g>
<!-- TBL_ApprovalRangeDetails&#45;&gt;TBL_ApprovalRange -->
<g id="edge1" class="edge">
<title>TBL_ApprovalRangeDetails:NApprovalRangeCode&#45;&gt;TBL_ApprovalRange:Id</title>
<path fill="none" stroke="black" d="M190.43,-742.87C39.22,-732.94 102.87,-500.36 201.71,-373.6 241.64,-322.39 303.18,-388.65 343.32,-337.6 369.19,-304.68 386.18,-243.4 344.32,-243.4"/>
<polygon fill="black" stroke="black" points="190.38,-742.87 200.23,-747.69 195.71,-743.04 200.04,-743.18 200.04,-743.18 200.04,-743.18 195.71,-743.04 200.52,-738.69 190.38,-742.87"/>
</g>
<!-- TBL_Level -->
<g id="node3" class="node">
<title>TBL_Level</title>
<polygon fill="#efefef" stroke="none" points="447.7,-258.8 447.7,-294.4 674.82,-294.4 674.82,-258.8 447.7,-258.8"/>
<polygon fill="none" stroke="black" points="447.7,-258.8 447.7,-294.4 674.82,-294.4 674.82,-258.8 447.7,-258.8"/>
<text text-anchor="start" x="454.7" y="-272.2" font-family="Arial Bold" font-size="18.00">TBL_Level</text>
<text text-anchor="start" x="538.67" y="-272.2" font-family="Arial" font-size="14.00">    </text>
<text text-anchor="start" x="569.78" y="-272.2" font-family="Arial" font-size="14.00" fill="#666666">[BASIC TABLE]</text>
<polygon fill="none" stroke="black" points="447.7,-228 447.7,-258.8 674.82,-258.8 674.82,-228 447.7,-228"/>
<text text-anchor="start" x="454.7" y="-240.2" font-family="Arial" font-size="14.00">Id </text>
<text text-anchor="start" x="470.26" y="-240.2" font-family="Arial" font-size="14.00" fill="#666666">[int]</text>
<polygon fill="none" stroke="black" points="447.7,-197.2 447.7,-228 674.82,-228 674.82,-197.2 447.7,-197.2"/>
<text text-anchor="start" x="454.7" y="-209.4" font-family="Arial" font-size="14.00">SDescription </text>
<text text-anchor="start" x="537.95" y="-209.4" font-family="Arial" font-size="14.00" fill="#666666">[nvarchar(500)]</text>
<polygon fill="none" stroke="black" points="447.7,-166.4 447.7,-197.2 674.82,-197.2 674.82,-166.4 447.7,-166.4"/>
<text text-anchor="start" x="454.7" y="-178.6" font-family="Arial" font-size="14.00">DCreationDate </text>
<text text-anchor="start" x="551.19" y="-178.6" font-family="Arial" font-size="14.00" fill="#666666">[datetime]</text>
<polygon fill="none" stroke="black" points="447.7,-135.6 447.7,-166.4 674.82,-166.4 674.82,-135.6 447.7,-135.6"/>
<text text-anchor="start" x="454.7" y="-147.8" font-family="Arial" font-size="14.00">SCreationUser </text>
<text text-anchor="start" x="550.4" y="-147.8" font-family="Arial" font-size="14.00" fill="#666666">[varchar(300)]</text>
<polygon fill="none" stroke="black" points="447.7,-104.8 447.7,-135.6 674.82,-135.6 674.82,-104.8 447.7,-104.8"/>
<text text-anchor="start" x="454.7" y="-117" font-family="Arial" font-size="14.00">DModificationDate </text>
<text text-anchor="start" x="572.97" y="-117" font-family="Arial" font-size="14.00" fill="#666666">[datetime]</text>
<polygon fill="none" stroke="black" points="447.7,-74 447.7,-104.8 674.82,-104.8 674.82,-74 447.7,-74"/>
<text text-anchor="start" x="454.7" y="-86.2" font-family="Arial" font-size="14.00">SModificationUser </text>
<text text-anchor="start" x="572.19" y="-86.2" font-family="Arial" font-size="14.00" fill="#666666">[varchar(300)]</text>
<polygon fill="none" stroke="black" points="447.7,-43.2 447.7,-74 674.82,-74 674.82,-43.2 447.7,-43.2"/>
<text text-anchor="start" x="454.7" y="-55.4" font-family="Arial" font-size="14.00">BDeleted </text>
<text text-anchor="start" x="516.18" y="-55.4" font-family="Arial" font-size="14.00" fill="#666666">[bit]</text>
</g>
<!-- TBL_ApprovalRangeDetails&#45;&gt;TBL_Level -->
<g id="edge2" class="edge">
<title>TBL_ApprovalRangeDetails:NLevelCode&#45;&gt;TBL_Level:Id</title>
<path fill="none" stroke="black" d="M564.04,-712.05C701.38,-702.31 638.47,-493.12 552.81,-373.6 524.04,-333.46 476.62,-377.62 447.7,-337.6 423.17,-303.66 404.83,-243.4 446.7,-243.4"/>
<polygon fill="black" stroke="black" points="564.14,-712.04 553.99,-707.89 558.8,-712.23 554.48,-712.38 554.48,-712.38 554.48,-712.38 558.8,-712.23 554.3,-716.89 564.14,-712.04"/>
</g>
</g>
</svg>
