<?xml version="1.0" encoding="UTF-8" standalone="no"?>
<!DOCTYPE svg PUBLIC "-//W3C//DTD SVG 1.1//EN"
 "http://www.w3.org/Graphics/SVG/1.1/DTD/svg11.dtd">
<!-- Generated by graphviz version 12.1.2 (20240928.0832)
 -->
<!-- Title: TBL_HierarchyNode Pages: 1 -->
<svg width="422pt" height="848pt"
 viewBox="0.00 0.00 421.89 848.40" xmlns="http://www.w3.org/2000/svg" xmlns:xlink="http://www.w3.org/1999/xlink">
<g id="graph0" class="graph" transform="scale(1 1) rotate(0) translate(4 844.4)">
<title>TBL_HierarchyNode</title>
<polygon fill="white" stroke="none" points="-4,4 -4,-844.4 417.89,-844.4 417.89,4 -4,4"/>
<!-- TBL_HierarchyNode -->
<g id="node1" class="node">
<title>TBL_HierarchyNode</title>
<polygon fill="#efefef" stroke="none" points="46.2,-758.6 46.2,-794.2 343.29,-794.2 343.29,-758.6 46.2,-758.6"/>
<polygon fill="none" stroke="black" points="46.2,-758.6 46.2,-794.2 343.29,-794.2 343.29,-758.6 46.2,-758.6"/>
<text text-anchor="start" x="53.2" y="-772" font-family="Arial Bold" font-size="18.00">TBL_HierarchyNode</text>
<text text-anchor="start" x="207.14" y="-772" font-family="Arial" font-size="14.00">    </text>
<text text-anchor="start" x="238.26" y="-772" font-family="Arial" font-size="14.00" fill="#666666">[BASIC TABLE]</text>
<polygon fill="none" stroke="black" points="46.2,-727.8 46.2,-758.6 343.29,-758.6 343.29,-727.8 46.2,-727.8"/>
<text text-anchor="start" x="53.2" y="-740" font-family="Arial" font-size="14.00">Id </text>
<text text-anchor="start" x="68.77" y="-740" font-family="Arial" font-size="14.00" fill="#666666">[int]</text>
<polygon fill="none" stroke="black" points="46.2,-697 46.2,-727.8 343.29,-727.8 343.29,-697 46.2,-697"/>
<text text-anchor="start" x="53.2" y="-709.2" font-family="Arial" font-size="14.00">NHierarchyCode </text>
<text text-anchor="start" x="160.57" y="-709.2" font-family="Arial" font-size="14.00" fill="#666666">[int]</text>
<polygon fill="none" stroke="black" points="46.2,-666.2 46.2,-697 343.29,-697 343.29,-666.2 46.2,-666.2"/>
<text text-anchor="start" x="53.2" y="-678.4" font-family="Arial" font-size="14.00">NHierarchyApprovalLevelCode </text>
<text text-anchor="start" x="249.3" y="-678.4" font-family="Arial" font-size="14.00" fill="#666666">[int]</text>
<polygon fill="none" stroke="black" points="46.2,-635.4 46.2,-666.2 343.29,-666.2 343.29,-635.4 46.2,-635.4"/>
<text text-anchor="start" x="53.2" y="-647.6" font-family="Arial" font-size="14.00">SEmailUser </text>
<text text-anchor="start" x="130.99" y="-647.6" font-family="Arial" font-size="14.00" fill="#666666">[varchar(100)]</text>
<polygon fill="none" stroke="black" points="46.2,-604.6 46.2,-635.4 343.29,-635.4 343.29,-604.6 46.2,-604.6"/>
<text text-anchor="start" x="53.2" y="-616.8" font-family="Arial" font-size="14.00">SInfoNodeJson </text>
<text text-anchor="start" x="152.82" y="-616.8" font-family="Arial" font-size="14.00" fill="#666666">[nvarchar(MAX)]</text>
<polygon fill="none" stroke="black" points="46.2,-573.8 46.2,-604.6 343.29,-604.6 343.29,-573.8 46.2,-573.8"/>
<text text-anchor="start" x="53.2" y="-586" font-family="Arial" font-size="14.00">NParentNodeCode </text>
<text text-anchor="start" x="175.39" y="-586" font-family="Arial" font-size="14.00" fill="#666666">[int]</text>
<polygon fill="none" stroke="black" points="46.2,-543 46.2,-573.8 343.29,-573.8 343.29,-543 46.2,-543"/>
<text text-anchor="start" x="53.2" y="-555.2" font-family="Arial" font-size="14.00">DCreationDate </text>
<text text-anchor="start" x="149.69" y="-555.2" font-family="Arial" font-size="14.00" fill="#666666">[datetime]</text>
<polygon fill="none" stroke="black" points="46.2,-512.2 46.2,-543 343.29,-543 343.29,-512.2 46.2,-512.2"/>
<text text-anchor="start" x="53.2" y="-524.4" font-family="Arial" font-size="14.00">SCreationUser </text>
<text text-anchor="start" x="148.9" y="-524.4" font-family="Arial" font-size="14.00" fill="#666666">[varchar(300)]</text>
<polygon fill="none" stroke="black" points="46.2,-481.4 46.2,-512.2 343.29,-512.2 343.29,-481.4 46.2,-481.4"/>
<text text-anchor="start" x="53.2" y="-493.6" font-family="Arial" font-size="14.00">DModificationDate </text>
<text text-anchor="start" x="171.48" y="-493.6" font-family="Arial" font-size="14.00" fill="#666666">[datetime]</text>
<polygon fill="none" stroke="black" points="46.2,-450.6 46.2,-481.4 343.29,-481.4 343.29,-450.6 46.2,-450.6"/>
<text text-anchor="start" x="53.2" y="-462.8" font-family="Arial" font-size="14.00">SModificationUser </text>
<text text-anchor="start" x="170.69" y="-462.8" font-family="Arial" font-size="14.00" fill="#666666">[varchar(300)]</text>
<polygon fill="none" stroke="black" points="46.2,-419.8 46.2,-450.6 343.29,-450.6 343.29,-419.8 46.2,-419.8"/>
<text text-anchor="start" x="53.2" y="-432" font-family="Arial" font-size="14.00">BDeleted </text>
<text text-anchor="start" x="114.68" y="-432" font-family="Arial" font-size="14.00" fill="#666666">[bit]</text>
<polygon fill="none" stroke="black" stroke-width="3" points="44.7,-418.3 44.7,-795.7 344.79,-795.7 344.79,-418.3 44.7,-418.3"/>
</g>
<!-- TBL_Hierarchy -->
<g id="node2" class="node">
<title>TBL_Hierarchy</title>
<polygon fill="#efefef" stroke="none" points="65.69,-258.8 65.69,-294.4 323.8,-294.4 323.8,-258.8 65.69,-258.8"/>
<polygon fill="none" stroke="black" points="65.69,-258.8 65.69,-294.4 323.8,-294.4 323.8,-258.8 65.69,-258.8"/>
<text text-anchor="start" x="72.69" y="-272.2" font-family="Arial Bold" font-size="18.00">TBL_Hierarchy</text>
<text text-anchor="start" x="187.65" y="-272.2" font-family="Arial" font-size="14.00">    </text>
<text text-anchor="start" x="218.76" y="-272.2" font-family="Arial" font-size="14.00" fill="#666666">[BASIC TABLE]</text>
<polygon fill="none" stroke="black" points="65.69,-228 65.69,-258.8 323.8,-258.8 323.8,-228 65.69,-228"/>
<text text-anchor="start" x="72.69" y="-240.2" font-family="Arial" font-size="14.00">Id </text>
<text text-anchor="start" x="88.26" y="-240.2" font-family="Arial" font-size="14.00" fill="#666666">[int]</text>
<polygon fill="none" stroke="black" points="65.69,-197.2 65.69,-228 323.8,-228 323.8,-197.2 65.69,-197.2"/>
<text text-anchor="start" x="72.69" y="-209.4" font-family="Arial" font-size="14.00">SName </text>
<text text-anchor="start" x="123.27" y="-209.4" font-family="Arial" font-size="14.00" fill="#666666">[varchar(200)]</text>
<polygon fill="none" stroke="black" points="65.69,-166.4 65.69,-197.2 323.8,-197.2 323.8,-166.4 65.69,-166.4"/>
<text text-anchor="start" x="72.69" y="-178.6" font-family="Arial" font-size="14.00">DCreationDate </text>
<text text-anchor="start" x="169.18" y="-178.6" font-family="Arial" font-size="14.00" fill="#666666">[datetime]</text>
<polygon fill="none" stroke="black" points="65.69,-135.6 65.69,-166.4 323.8,-166.4 323.8,-135.6 65.69,-135.6"/>
<text text-anchor="start" x="72.69" y="-147.8" font-family="Arial" font-size="14.00">SCreationUser </text>
<text text-anchor="start" x="168.4" y="-147.8" font-family="Arial" font-size="14.00" fill="#666666">[varchar(300)]</text>
<polygon fill="none" stroke="black" points="65.69,-104.8 65.69,-135.6 323.8,-135.6 323.8,-104.8 65.69,-104.8"/>
<text text-anchor="start" x="72.69" y="-117" font-family="Arial" font-size="14.00">DModificationDate </text>
<text text-anchor="start" x="190.97" y="-117" font-family="Arial" font-size="14.00" fill="#666666">[datetime]</text>
<polygon fill="none" stroke="black" points="65.69,-74 65.69,-104.8 323.8,-104.8 323.8,-74 65.69,-74"/>
<text text-anchor="start" x="72.69" y="-86.2" font-family="Arial" font-size="14.00">SModificationUser </text>
<text text-anchor="start" x="190.18" y="-86.2" font-family="Arial" font-size="14.00" fill="#666666">[varchar(300)]</text>
<polygon fill="none" stroke="black" points="65.69,-43.2 65.69,-74 323.8,-74 323.8,-43.2 65.69,-43.2"/>
<text text-anchor="start" x="72.69" y="-55.4" font-family="Arial" font-size="14.00">BDeleted </text>
<text text-anchor="start" x="134.18" y="-55.4" font-family="Arial" font-size="14.00" fill="#666666">[bit]</text>
</g>
<!-- TBL_HierarchyNode&#45;&gt;TBL_Hierarchy -->
<g id="edge1" class="edge">
<title>TBL_HierarchyNode:NHierarchyCode&#45;&gt;TBL_Hierarchy:Id</title>
<path fill="none" stroke="black" d="M354.56,-710.79C447.17,-680.89 425.54,-243.4 324.8,-243.4"/>
<polygon fill="black" stroke="black" points="354.5,-710.8 343.93,-707.9 349.23,-711.63 344.95,-712.3 344.95,-712.3 344.95,-712.3 349.23,-711.63 345.32,-716.79 354.5,-710.8"/>
</g>
</g>
</svg>
